<svg xmlns="http://www.w3.org/2000/svg" width="438.26" height="196.920985795598">
<style type="text/css" >
<![CDATA[
.font { font-family: Helvetica; font-size: 3.052500px; font-weight: bold;  }
.numbering-line { stroke: rgb(204, 204, 204); stroke-width: 0.1908;  }
.bp-line { stroke-width: 0.3816;  }
.text-black { fill: rgb(0, 0, 0);  }
.text-red { fill: rgb(255, 0, 255);  }
.text-green { fill: rgb(0, 255, 0);  }
.text-blue { fill: rgb(0, 0, 255);  }
.text-gray { fill: rgb(204, 204, 204);  }
.text-brown { fill: rgb(211.65, 104.55, 30.6);  }
text { element-wise: True; fill: rgb(0, 0, 0); text-anchor: middle; dominant-baseline: middle;  }
.circle-black { stroke: rgb(0, 0, 0); fill: none;  }
.circle-red { stroke: rgb(255, 0, 255); fill: none;  }
.circle-green { stroke: rgb(0, 255, 0); fill: none;  }
.circle-blue { stroke: rgb(0, 0, 255); fill: none;  }
.circle-gray { stroke: rgb(204, 204, 204); fill: none;  }
.circle-brown { stroke: rgb(211.65, 104.55, 30.6); fill: none;  }
.circle { stroke: rgb(0, 0, 0);  }
.numbering-label { fill: rgb(204, 204, 204);  }
.numbering-line { stroke: rgb(204, 204, 204);  }
.template { visibility: hidden;  }
.bp-line { stroke: rgb(0, 0, 0);  }
.residue-circle { fill: rgb(255,255,255);  }
.res-line { stroke: rgb(204, 204, 204);  }
.color-posterior_probability-0 { fill: rgb(158, 189, 240);  }
.color-posterior_probability-10 { fill: rgb(255, 255, 255);  }
]]>
</style>

<g class="bps"><line x1="113.54" y1="164.6" x2="125.57" y2="164.6" class="bp-line" />
<line x1="113.54" y1="157.04" x2="125.57" y2="157.04" class="bp-line" />
<line x1="113.33" y1="149.48" x2="125.78" y2="149.48" class="bp-line" />
<line x1="113.54" y1="141.92" x2="125.78" y2="141.92" class="bp-line" />
<line x1="113.54" y1="134.36" x2="125.57" y2="134.36" class="bp-line" />
<line x1="113.54" y1="126.8" x2="125.57" y2="126.8" class="bp-line" />
<line x1="113.54" y1="119.24" x2="125.99" y2="119.24" class="bp-line" />
<line x1="113.33" y1="111.68" x2="125.78" y2="111.68" class="bp-line" />
<line x1="113.33" y1="81.81" x2="125.78" y2="81.81" class="bp-line" />
<line x1="113.75" y1="74.25" x2="125.57" y2="74.25" class="bp-line" />
<line x1="113.54" y1="66.69" x2="125.57" y2="66.69" class="bp-line" />
<line x1="113.54" y1="59.13" x2="125.99" y2="59.13" class="bp-line" />
<line x1="113.33" y1="51.57" x2="125.78" y2="51.57" class="bp-line" />
<line x1="113.75" y1="44.01" x2="125.78" y2="44.01" class="bp-line" />
</g>
<g class="residues"><line x1="10.0" y1="170.05" x2="17.56" y2="170.05" class="bp-line res-line" />
<line x1="17.56" y1="170.05" x2="25.119999999999997" y2="170.05" class="bp-line res-line" />
<line x1="25.119999999999997" y1="170.05" x2="32.69" y2="170.05" class="bp-line res-line" />
<line x1="32.69" y1="170.05" x2="40.25" y2="170.05" class="bp-line res-line" />
<line x1="40.25" y1="170.05" x2="47.81" y2="170.05" class="bp-line res-line" />
<line x1="47.81" y1="170.05" x2="55.37" y2="170.05" class="bp-line res-line" />
<line x1="55.37" y1="170.05" x2="62.93" y2="170.05" class="bp-line res-line" />
<line x1="62.93" y1="170.05" x2="70.49000000000001" y2="170.05" class="bp-line res-line" />
<line x1="70.49000000000001" y1="170.05" x2="78.06" y2="170.05" class="bp-line res-line" />
<line x1="78.06" y1="170.05" x2="85.62" y2="170.05" class="bp-line res-line" />
<line x1="85.62" y1="170.05" x2="93.18" y2="170.05" class="bp-line res-line" />
<line x1="93.18" y1="170.05" x2="100.74" y2="170.05" class="bp-line res-line" />
<line x1="100.74" y1="170.05" x2="108.3" y2="170.05" class="bp-line res-line" />
<line x1="108.3" y1="170.05" x2="113.54" y2="164.6" class="bp-line res-line" />
<line x1="113.54" y1="164.6" x2="113.54" y2="157.04" class="bp-line res-line" />
<line x1="113.54" y1="157.04" x2="113.33" y2="149.48" class="bp-line res-line" />
<line x1="113.33" y1="149.48" x2="113.54" y2="141.92" class="bp-line res-line" />
<line x1="113.54" y1="141.92" x2="113.54" y2="134.36" class="bp-line res-line" />
<line x1="113.54" y1="134.36" x2="113.54" y2="126.8" class="bp-line res-line" />
<line x1="113.54" y1="126.8" x2="113.54" y2="119.24" class="bp-line res-line" />
<line x1="113.54" y1="119.24" x2="113.33" y2="111.68" class="bp-line res-line" />
<line x1="113.33" y1="111.68" x2="106.51" y2="109.5" class="bp-line res-line" />
<line x1="106.51" y1="109.5" x2="101.26" y2="104.06" class="bp-line res-line" />
<line x1="101.26" y1="104.06" x2="99.14" y2="96.75" class="bp-line res-line" />
<line x1="99.14" y1="96.75" x2="101.26" y2="89.43" class="bp-line res-line" />
<line x1="101.26" y1="89.43" x2="106.51" y2="83.99" class="bp-line res-line" />
<line x1="106.51" y1="83.99" x2="113.33" y2="81.81" class="bp-line res-line" />
<line x1="113.33" y1="81.81" x2="113.75" y2="74.25" class="bp-line res-line" />
<line x1="113.75" y1="74.25" x2="113.54" y2="66.69" class="bp-line res-line" />
<line x1="113.54" y1="66.69" x2="113.54" y2="59.13" class="bp-line res-line" />
<line x1="113.54" y1="59.13" x2="113.33" y2="51.57" class="bp-line res-line" />
<line x1="113.33" y1="51.57" x2="113.75" y2="44.01" class="bp-line res-line" />
<line x1="113.75" y1="44.01" x2="107.16" y2="39.95" class="bp-line res-line" />
<line x1="107.16" y1="39.95" x2="103.05" y2="33.61" class="bp-line res-line" />
<line x1="103.05" y1="33.61" x2="101.95" y2="26.13" class="bp-line res-line" />
<line x1="101.95" y1="26.13" x2="104.06" y2="18.869999999999997" class="bp-line res-line" />
<line x1="104.06" y1="18.869999999999997" x2="109.21" y2="13.15" class="bp-line res-line" />
<line x1="109.21" y1="13.15" x2="115.88" y2="10.0" class="bp-line res-line" />
<line x1="115.88" y1="10.0" x2="123.44" y2="10.0" class="bp-line res-line" />
<line x1="123.44" y1="10.0" x2="130.31" y2="13.15" class="bp-line res-line" />
<line x1="130.31" y1="13.15" x2="135.05" y2="18.869999999999997" class="bp-line res-line" />
<line x1="135.05" y1="18.869999999999997" x2="137.57999999999998" y2="26.13" class="bp-line res-line" />
<line x1="137.57999999999998" y1="26.13" x2="136.26999999999998" y2="33.61" class="bp-line res-line" />
<line x1="136.26999999999998" y1="33.61" x2="132.16" y2="39.95" class="bp-line res-line" />
<line x1="132.16" y1="39.95" x2="125.78" y2="44.01" class="bp-line res-line" />
<line x1="125.78" y1="44.01" x2="125.78" y2="51.57" class="bp-line res-line" />
<line x1="125.78" y1="51.57" x2="125.99" y2="59.13" class="bp-line res-line" />
<line x1="125.99" y1="59.13" x2="125.57" y2="66.69" class="bp-line res-line" />
<line x1="125.57" y1="66.69" x2="133.55" y2="66.69" class="bp-line res-line" />
<line x1="133.55" y1="66.69" x2="133.55" y2="74.25" class="bp-line res-line" />
<line x1="133.55" y1="74.25" x2="125.57" y2="74.25" class="bp-line res-line" />
<line x1="125.57" y1="74.25" x2="125.78" y2="81.81" class="bp-line res-line" />
<line x1="125.78" y1="81.81" x2="131.91" y2="86.24" class="bp-line res-line" />
<line x1="131.91" y1="86.24" x2="135.56" y2="92.97" class="bp-line res-line" />
<line x1="135.56" y1="92.97" x2="135.56" y2="100.53" class="bp-line res-line" />
<line x1="135.56" y1="100.53" x2="131.7" y2="107.26" class="bp-line res-line" />
<line x1="131.7" y1="107.26" x2="125.78" y2="111.68" class="bp-line res-line" />
<line x1="125.78" y1="111.68" x2="125.99" y2="119.24" class="bp-line res-line" />
<line x1="125.99" y1="119.24" x2="125.57" y2="126.8" class="bp-line res-line" />
<line x1="125.57" y1="126.8" x2="125.57" y2="134.36" class="bp-line res-line" />
<line x1="125.57" y1="134.36" x2="125.78" y2="141.92" class="bp-line res-line" />
<line x1="125.78" y1="141.92" x2="125.78" y2="149.48" class="bp-line res-line" />
<line x1="125.78" y1="149.48" x2="132.32999999999998" y2="153.26" class="bp-line res-line" />
<line x1="132.32999999999998" y1="153.26" x2="125.57" y2="157.04" class="bp-line res-line" />
<line x1="125.57" y1="157.04" x2="125.57" y2="164.6" class="bp-line res-line" />
<line x1="125.57" y1="164.6" x2="130.92000000000002" y2="169.95" class="bp-line res-line" />
<line x1="130.92000000000002" y1="169.95" x2="138.48" y2="169.95" class="bp-line res-line" />
<line x1="138.48" y1="169.95" x2="146.04" y2="169.95" class="bp-line res-line" />
<line x1="146.04" y1="169.95" x2="153.6" y2="169.95" class="bp-line res-line" />
<line x1="153.6" y1="169.95" x2="161.16" y2="169.95" class="bp-line res-line" />
<line x1="161.16" y1="169.95" x2="168.73" y2="169.95" class="bp-line res-line" />
<line x1="168.73" y1="169.95" x2="176.29" y2="169.95" class="bp-line res-line" />
<line x1="176.29" y1="169.95" x2="183.85" y2="169.95" class="bp-line res-line" />
<line x1="183.85" y1="169.95" x2="191.41" y2="169.95" class="bp-line res-line" />
<line x1="191.41" y1="169.95" x2="198.97" y2="169.95" class="bp-line res-line" />
<line x1="198.97" y1="169.95" x2="206.53" y2="169.95" class="bp-line res-line" />
<line x1="206.53" y1="169.95" x2="214.1" y2="169.95" class="bp-line res-line" />
<line x1="214.1" y1="169.95" x2="221.66" y2="169.95" class="bp-line res-line" />
<line x1="221.66" y1="169.95" x2="229.22" y2="169.95" class="bp-line res-line" />
<line x1="229.22" y1="169.95" x2="236.78" y2="169.95" class="bp-line res-line" />
<line x1="236.78" y1="169.95" x2="244.34" y2="169.95" class="bp-line res-line" />
<line x1="244.34" y1="169.95" x2="251.9" y2="169.95" class="bp-line res-line" />
<line x1="251.9" y1="169.95" x2="259.47" y2="169.95" class="bp-line res-line" />
<line x1="259.47" y1="169.95" x2="267.03" y2="169.95" class="bp-line res-line" />
<line x1="267.03" y1="169.95" x2="274.59" y2="169.95" class="bp-line res-line" />
<line x1="274.59" y1="169.95" x2="282.15" y2="169.95" class="bp-line res-line" />
<line x1="282.15" y1="169.95" x2="289.71" y2="169.95" class="bp-line res-line" />
<line x1="289.71" y1="169.95" x2="297.27" y2="169.95" class="bp-line res-line" />
<line x1="297.27" y1="169.95" x2="304.84" y2="169.95" class="bp-line res-line" />
<line x1="304.84" y1="169.95" x2="312.4" y2="169.95" class="bp-line res-line" />
<line x1="312.4" y1="169.95" x2="319.96" y2="169.95" class="bp-line res-line" />
<line x1="319.96" y1="169.95" x2="327.52" y2="169.95" class="bp-line res-line" />
<line x1="327.52" y1="169.95" x2="335.08" y2="169.95" class="bp-line res-line" />
<line x1="335.08" y1="169.95" x2="342.64" y2="169.95" class="bp-line res-line" />
<line x1="342.64" y1="169.95" x2="350.21" y2="169.95" class="bp-line res-line" />
<line x1="350.21" y1="169.95" x2="357.77" y2="169.95" class="bp-line res-line" />
<line x1="357.77" y1="169.95" x2="365.33" y2="169.95" class="bp-line res-line" />
<line x1="365.33" y1="169.95" x2="372.89" y2="169.95" class="bp-line res-line" />
<line x1="372.89" y1="169.95" x2="380.45" y2="169.95" class="bp-line res-line" />
<line x1="380.45" y1="169.95" x2="388.01" y2="169.95" class="bp-line res-line" />
<line x1="388.01" y1="169.95" x2="395.58" y2="169.95" class="bp-line res-line" />
<line x1="395.58" y1="169.95" x2="403.14" y2="169.95" class="bp-line res-line" />
<line x1="403.14" y1="169.95" x2="410.7" y2="169.95" class="bp-line res-line" />
<line x1="410.7" y1="169.95" x2="418.26" y2="169.95" class="bp-line res-line" />
<circle cx="10.0" cy="170.05" class="residue-circle" r="2.289375"/>
<circle cx="17.56" cy="170.05" class="residue-circle color-posterior_probability-10" r="2.289375"/>
<circle cx="25.119999999999997" cy="170.05" class="residue-circle color-posterior_probability-10" r="2.289375"/>
<circle cx="32.69" cy="170.05" class="residue-circle color-posterior_probability-10" r="2.289375"/>
<circle cx="40.25" cy="170.05" class="residue-circle color-posterior_probability-10" r="2.289375"/>
<circle cx="47.81" cy="170.05" class="residue-circle color-posterior_probability-10" r="2.289375"/>
<circle cx="55.37" cy="170.05" class="residue-circle color-posterior_probability-10" r="2.289375"/>
<circle cx="62.93" cy="170.05" class="residue-circle color-posterior_probability-10" r="2.289375"/>
<circle cx="70.49000000000001" cy="170.05" class="residue-circle color-posterior_probability-10" r="2.289375"/>
<circle cx="78.06" cy="170.05" class="residue-circle color-posterior_probability-10" r="2.289375"/>
<circle cx="85.62" cy="170.05" class="residue-circle color-posterior_probability-10" r="2.289375"/>
<circle cx="93.18" cy="170.05" class="residue-circle color-posterior_probability-10" r="2.289375"/>
<circle cx="100.74" cy="170.05" class="residue-circle color-posterior_probability-10" r="2.289375"/>
<circle cx="108.3" cy="170.05" class="residue-circle color-posterior_probability-10" r="2.289375"/>
<circle cx="113.54" cy="164.6" class="residue-circle color-posterior_probability-10" r="2.289375"/>
<circle cx="113.54" cy="157.04" class="residue-circle color-posterior_probability-10" r="2.289375"/>
<circle cx="113.33" cy="149.48" class="residue-circle color-posterior_probability-10" r="2.289375"/>
<circle cx="113.54" cy="141.92" class="residue-circle color-posterior_probability-10" r="2.289375"/>
<circle cx="113.54" cy="134.36" class="residue-circle color-posterior_probability-10" r="2.289375"/>
<circle cx="113.54" cy="126.8" class="residue-circle color-posterior_probability-10" r="2.289375"/>
<circle cx="113.54" cy="119.24" class="residue-circle color-posterior_probability-10" r="2.289375"/>
<circle cx="113.33" cy="111.68" class="residue-circle color-posterior_probability-10" r="2.289375"/>
<circle cx="106.51" cy="109.5" class="residue-circle color-posterior_probability-10" r="2.289375"/>
<circle cx="101.26" cy="104.06" class="residue-circle color-posterior_probability-10" r="2.289375"/>
<circle cx="99.14" cy="96.75" class="residue-circle color-posterior_probability-10" r="2.289375"/>
<circle cx="101.26" cy="89.43" class="residue-circle color-posterior_probability-10" r="2.289375"/>
<circle cx="106.51" cy="83.99" class="residue-circle color-posterior_probability-10" r="2.289375"/>
<circle cx="113.33" cy="81.81" class="residue-circle color-posterior_probability-10" r="2.289375"/>
<circle cx="113.75" cy="74.25" class="residue-circle color-posterior_probability-10" r="2.289375"/>
<circle cx="113.54" cy="66.69" class="residue-circle color-posterior_probability-10" r="2.289375"/>
<circle cx="113.54" cy="59.13" class="residue-circle color-posterior_probability-10" r="2.289375"/>
<circle cx="113.33" cy="51.57" class="residue-circle color-posterior_probability-10" r="2.289375"/>
<circle cx="113.75" cy="44.01" class="residue-circle color-posterior_probability-10" r="2.289375"/>
<circle cx="107.16" cy="39.95" class="residue-circle color-posterior_probability-10" r="2.289375"/>
<circle cx="103.05" cy="33.61" class="residue-circle color-posterior_probability-10" r="2.289375"/>
<circle cx="101.95" cy="26.13" class="residue-circle color-posterior_probability-10" r="2.289375"/>
<circle cx="104.06" cy="18.869999999999997" class="residue-circle color-posterior_probability-10" r="2.289375"/>
<circle cx="109.21" cy="13.15" class="residue-circle color-posterior_probability-10" r="2.289375"/>
<circle cx="115.88" cy="10.0" class="residue-circle color-posterior_probability-10" r="2.289375"/>
<circle cx="123.44" cy="10.0" class="residue-circle color-posterior_probability-10" r="2.289375"/>
<circle cx="130.31" cy="13.15" class="residue-circle color-posterior_probability-10" r="2.289375"/>
<circle cx="135.05" cy="18.869999999999997" class="residue-circle color-posterior_probability-10" r="2.289375"/>
<circle cx="137.57999999999998" cy="26.13" class="residue-circle color-posterior_probability-10" r="2.289375"/>
<circle cx="136.26999999999998" cy="33.61" class="residue-circle color-posterior_probability-10" r="2.289375"/>
<circle cx="132.16" cy="39.95" class="residue-circle color-posterior_probability-10" r="2.289375"/>
<circle cx="125.78" cy="44.01" class="residue-circle color-posterior_probability-10" r="2.289375"/>
<circle cx="125.78" cy="51.57" class="residue-circle color-posterior_probability-10" r="2.289375"/>
<circle cx="125.99" cy="59.13" class="residue-circle color-posterior_probability-10" r="2.289375"/>
<circle cx="125.57" cy="66.69" class="residue-circle color-posterior_probability-10" r="2.289375"/>
<circle cx="133.55" cy="66.69" class="residue-circle color-posterior_probability-10" r="2.289375"/>
<circle cx="133.55" cy="74.25" class="residue-circle color-posterior_probability-10" r="2.289375"/>
<circle cx="125.57" cy="74.25" class="residue-circle color-posterior_probability-10" r="2.289375"/>
<circle cx="125.78" cy="81.81" class="residue-circle color-posterior_probability-10" r="2.289375"/>
<circle cx="131.91" cy="86.24" class="residue-circle color-posterior_probability-10" r="2.289375"/>
<circle cx="135.56" cy="92.97" class="residue-circle color-posterior_probability-10" r="2.289375"/>
<circle cx="135.56" cy="100.53" class="residue-circle color-posterior_probability-10" r="2.289375"/>
<circle cx="131.7" cy="107.26" class="residue-circle color-posterior_probability-10" r="2.289375"/>
<circle cx="125.78" cy="111.68" class="residue-circle color-posterior_probability-10" r="2.289375"/>
<circle cx="125.99" cy="119.24" class="residue-circle color-posterior_probability-10" r="2.289375"/>
<circle cx="125.57" cy="126.8" class="residue-circle color-posterior_probability-10" r="2.289375"/>
<circle cx="125.57" cy="134.36" class="residue-circle color-posterior_probability-10" r="2.289375"/>
<circle cx="125.78" cy="141.92" class="residue-circle color-posterior_probability-0" r="2.289375"/>
<circle cx="125.78" cy="149.48" class="residue-circle color-posterior_probability-0" r="2.289375"/>
<circle cx="132.32999999999998" cy="153.26" class="residue-circle color-posterior_probability-0" r="2.289375"/>
<circle cx="125.57" cy="157.04" class="residue-circle color-posterior_probability-0" r="2.289375"/>
<circle cx="125.57" cy="164.6" class="residue-circle color-posterior_probability-0" r="2.289375"/>
<circle cx="130.92000000000002" cy="169.95" class="residue-circle color-posterior_probability-0" r="2.289375"/>
<circle cx="138.48" cy="169.95" class="residue-circle color-posterior_probability-0" r="2.289375"/>
<circle cx="146.04" cy="169.95" class="residue-circle color-posterior_probability-0" r="2.289375"/>
<circle cx="153.6" cy="169.95" class="residue-circle color-posterior_probability-0" r="2.289375"/>
<circle cx="161.16" cy="169.95" class="residue-circle color-posterior_probability-0" r="2.289375"/>
<circle cx="168.73" cy="169.95" class="residue-circle color-posterior_probability-10" r="2.289375"/>
<circle cx="176.29" cy="169.95" class="residue-circle color-posterior_probability-10" r="2.289375"/>
<circle cx="183.85" cy="169.95" class="residue-circle color-posterior_probability-10" r="2.289375"/>
<circle cx="191.41" cy="169.95" class="residue-circle color-posterior_probability-10" r="2.289375"/>
<circle cx="198.97" cy="169.95" class="residue-circle color-posterior_probability-10" r="2.289375"/>
<circle cx="206.53" cy="169.95" class="residue-circle color-posterior_probability-10" r="2.289375"/>
<circle cx="214.1" cy="169.95" class="residue-circle color-posterior_probability-10" r="2.289375"/>
<circle cx="221.66" cy="169.95" class="residue-circle color-posterior_probability-10" r="2.289375"/>
<circle cx="229.22" cy="169.95" class="residue-circle color-posterior_probability-10" r="2.289375"/>
<circle cx="236.78" cy="169.95" class="residue-circle color-posterior_probability-10" r="2.289375"/>
<circle cx="244.34" cy="169.95" class="residue-circle color-posterior_probability-10" r="2.289375"/>
<circle cx="251.9" cy="169.95" class="residue-circle color-posterior_probability-10" r="2.289375"/>
<circle cx="259.47" cy="169.95" class="residue-circle color-posterior_probability-10" r="2.289375"/>
<circle cx="267.03" cy="169.95" class="residue-circle color-posterior_probability-10" r="2.289375"/>
<circle cx="274.59" cy="169.95" class="residue-circle color-posterior_probability-10" r="2.289375"/>
<circle cx="282.15" cy="169.95" class="residue-circle color-posterior_probability-10" r="2.289375"/>
<circle cx="289.71" cy="169.95" class="residue-circle color-posterior_probability-10" r="2.289375"/>
<circle cx="297.27" cy="169.95" class="residue-circle color-posterior_probability-10" r="2.289375"/>
<circle cx="304.84" cy="169.95" class="residue-circle color-posterior_probability-10" r="2.289375"/>
<circle cx="312.4" cy="169.95" class="residue-circle color-posterior_probability-10" r="2.289375"/>
<circle cx="319.96" cy="169.95" class="residue-circle color-posterior_probability-10" r="2.289375"/>
<circle cx="327.52" cy="169.95" class="residue-circle color-posterior_probability-10" r="2.289375"/>
<circle cx="335.08" cy="169.95" class="residue-circle color-posterior_probability-10" r="2.289375"/>
<circle cx="342.64" cy="169.95" class="residue-circle color-posterior_probability-10" r="2.289375"/>
<circle cx="350.21" cy="169.95" class="residue-circle color-posterior_probability-10" r="2.289375"/>
<circle cx="357.77" cy="169.95" class="residue-circle color-posterior_probability-10" r="2.289375"/>
<circle cx="365.33" cy="169.95" class="residue-circle color-posterior_probability-10" r="2.289375"/>
<circle cx="372.89" cy="169.95" class="residue-circle color-posterior_probability-10" r="2.289375"/>
<circle cx="380.45" cy="169.95" class="residue-circle color-posterior_probability-10" r="2.289375"/>
<circle cx="388.01" cy="169.95" class="residue-circle color-posterior_probability-10" r="2.289375"/>
<circle cx="395.58" cy="169.95" class="residue-circle color-posterior_probability-10" r="2.289375"/>
<circle cx="403.14" cy="169.95" class="residue-circle color-posterior_probability-10" r="2.289375"/>
<circle cx="410.7" cy="169.95" class="residue-circle color-posterior_probability-10" r="2.289375"/>
<circle cx="418.26" cy="169.95" class="residue-circle" r="2.289375"/>
<g><title>Position: 0 (position.label in template: 0.5')</title><text x="10.0" y="170.05" class="text-green font" >5'</text></g>
<g><title>Position: 1 (position.label in template: 1.A)
Alignment accuracy: 10</title><text x="17.56" y="170.05" class="text-black font" >A</text></g>
<g><title>Position: 2 (position.label in template: 2.U)
Alignment accuracy: 10</title><text x="25.119999999999997" y="170.05" class="text-black font" >U</text></g>
<g><title>Position: 3 (position.label in template: 3.C)
Alignment accuracy: 10</title><text x="32.69" y="170.05" class="text-black font" >C</text></g>
<g><title>Position: 4 (position.label in template: 4.U)
Alignment accuracy: 10</title><text x="40.25" y="170.05" class="text-black font" >U</text></g>
<g><title>Position: 5 (position.label in template: 5.A)
Alignment accuracy: 10</title><text x="47.81" y="170.05" class="text-black font" >A</text></g>
<g><title>Position: 6 (position.label in template: 6.U)
Alignment accuracy: 10</title><text x="55.37" y="170.05" class="text-black font" >U</text></g>
<g><title>Position: 7 (position.label in template: 7.G)
Alignment accuracy: 10</title><text x="62.93" y="170.05" class="text-black font" >G</text></g>
<g><title>Position: 8 (position.label in template: 8.G)
Alignment accuracy: 10</title><text x="70.49000000000001" y="170.05" class="text-black font" >G</text></g>
<g><title>Position: 9 (position.label in template: 9.U)
Alignment accuracy: 10</title><text x="78.06" y="170.05" class="text-black font" >U</text></g>
<g><title>Position: 10 (position.label in template: 10.C)
Alignment accuracy: 10</title><text x="85.62" y="170.05" class="text-black font" >C</text></g>
<g><title>Position: 11 (position.label in template: 11.A)
Alignment accuracy: 10</title><text x="93.18" y="170.05" class="text-black font" >A</text></g>
<g><title>Position: 12 (position.label in template: 12.C)
Alignment accuracy: 10</title><text x="100.74" y="170.05" class="text-black font" >C</text></g>
<g><title>Position: 13 (position.label in template: 13.A)
Alignment accuracy: 10</title><text x="108.3" y="170.05" class="text-black font" >A</text></g>
<g><title>Position: 14 (position.label in template: 14.C)
Alignment accuracy: 10</title><text x="113.54" y="164.6" class="text-black font" >C</text></g>
<g><title>Position: 15 (position.label in template: 15.U)
Alignment accuracy: 10</title><text x="113.54" y="157.04" class="text-black font" >U</text></g>
<g><title>Position: 16 (position.label in template: 16.G)
Alignment accuracy: 10</title><text x="113.33" y="149.48" class="text-black font" >G</text></g>
<g><title>Position: 17 (position.label in template: 17.C)
Alignment accuracy: 10</title><text x="113.54" y="141.92" class="text-black font" >C</text></g>
<g><title>Position: 18 (position.label in template: 18.C)
Alignment accuracy: 10</title><text x="113.54" y="134.36" class="text-black font" >C</text></g>
<g><title>Position: 19 (position.label in template: 19.C)
Alignment accuracy: 10</title><text x="113.54" y="126.8" class="text-black font" >C</text></g>
<g><title>Position: 20 (position.label in template: 20.U)
Alignment accuracy: 10</title><text x="113.54" y="119.24" class="text-black font" >U</text></g>
<g><title>Position: 21 (position.label in template: 21.G)
Alignment accuracy: 10</title><text x="113.33" y="111.68" class="text-black font" >G</text></g>
<g><title>Position: 22 (position.label in template: 22.A)
Alignment accuracy: 10</title><text x="106.51" y="109.5" class="text-black font" >A</text></g>
<g><title>Position: 23 (position.label in template: 23.A)
Alignment accuracy: 10</title><text x="101.26" y="104.06" class="text-black font" >A</text></g>
<g><title>Position: 24 (position.label in template: 24.C)
Alignment accuracy: 10</title><text x="99.14" y="96.75" class="text-black font" >C</text></g>
<g><title>Position: 25 (position.label in template: 25.A)
Alignment accuracy: 10</title><text x="101.26" y="89.43" class="text-black font" >A</text></g>
<g><title>Position: 26 (position.label in template: 26.A)
Alignment accuracy: 10</title><text x="106.51" y="83.99" class="text-black font" >A</text></g>
<g><title>Position: 27 (position.label in template: 27.G)
Alignment accuracy: 10</title><text x="113.33" y="81.81" class="text-black font" >G</text></g>
<g><title>Position: 28 (position.label in template: 28.A)
Alignment accuracy: 10</title><text x="113.75" y="74.25" class="text-black font" >A</text></g>
<g><title>Position: 29 (position.label in template: 29.C)
Alignment accuracy: 10</title><text x="113.54" y="66.69" class="text-black font" >C</text></g>
<g><title>Position: 30 (position.label in template: 30.U)
Alignment accuracy: 10</title><text x="113.54" y="59.13" class="text-black font" >U</text></g>
<g><title>Position: 31 (position.label in template: 31.G)
Alignment accuracy: 10</title><text x="113.33" y="51.57" class="text-black font" >G</text></g>
<g><title>Position: 32 (position.label in template: 32.A)
Alignment accuracy: 10</title><text x="113.75" y="44.01" class="text-black font" >A</text></g>
<g><title>Position: 33 (position.label in template: 33.U)
Alignment accuracy: 10</title><text x="107.16" y="39.95" class="text-black font" >U</text></g>
<g><title>Position: 34 (position.label in template: 34.C)
Alignment accuracy: 10</title><text x="103.05" y="33.61" class="text-black font" >C</text></g>
<g><title>Position: 35 (position.label in template: 35.U)
Alignment accuracy: 10</title><text x="101.95" y="26.13" class="text-black font" >U</text></g>
<g><title>Position: 36 (position.label in template: 36.U)
Alignment accuracy: 10</title><text x="104.06" y="18.869999999999997" class="text-black font" >U</text></g>
<g><title>Position: 37 (position.label in template: 37.A)
Alignment accuracy: 10</title><text x="109.21" y="13.15" class="text-black font" >A</text></g>
<g><title>Position: 38 (position.label in template: 38.U)
Alignment accuracy: 10</title><text x="115.88" y="10.0" class="text-black font" >U</text></g>
<g><title>Position: 39 (position.label in template: 39.C)
Alignment accuracy: 10</title><text x="123.44" y="10.0" class="text-black font" >C</text></g>
<g><title>Position: 40 (position.label in template: 40.U)
Alignment accuracy: 10</title><text x="130.31" y="13.15" class="text-black font" >U</text></g>
<g><title>Position: 41 (position.label in template: 41.G)
Alignment accuracy: 10</title><text x="135.05" y="18.869999999999997" class="text-black font" >G</text></g>
<g><title>Position: 42 (position.label in template: 42.A)
Alignment accuracy: 10</title><text x="137.57999999999998" y="26.13" class="text-black font" >A</text></g>
<g><title>Position: 43 (position.label in template: 43.U)
Alignment accuracy: 10</title><text x="136.26999999999998" y="33.61" class="text-black font" >U</text></g>
<g><title>Position: 44 (position.label in template: 44.C)
Alignment accuracy: 10</title><text x="132.16" y="39.95" class="text-black font" >C</text></g>
<g><title>Position: 45 (position.label in template: 45.U)
Alignment accuracy: 10</title><text x="125.78" y="44.01" class="text-black font" >U</text></g>
<g><title>Position: 46 (position.label in template: 46.C)
Alignment accuracy: 10</title><text x="125.78" y="51.57" class="text-black font" >C</text></g>
<g><title>Position: 47 (position.label in template: 47.A)
Alignment accuracy: 10</title><text x="125.99" y="59.13" class="text-black font" >A</text></g>
<g><title>Position: 48 (position.label in template: 48.G)
Alignment accuracy: 10</title><text x="125.57" y="66.69" class="text-black font" >G</text></g>
<g><title>Position: 49 (position.label in template: 49.A)
Alignment accuracy: 10</title><text x="133.55" y="66.69" class="text-black font" >A</text></g>
<g><title>Position: 50 (position.label in template: 50.A)
Alignment accuracy: 10</title><text x="133.55" y="74.25" class="text-black font" >A</text></g>
<g><title>Position: 51 (position.label in template: 51.G)
Alignment accuracy: 10</title><text x="125.57" y="74.25" class="text-black font" >G</text></g>
<g><title>Position: 52 (position.label in template: 52.C)
Alignment accuracy: 10</title><text x="125.78" y="81.81" class="text-black font" >C</text></g>
<g><title>Position: 53 (position.label in template: 53.U)
Alignment accuracy: 10</title><text x="131.91" y="86.24" class="text-black font" >U</text></g>
<g><title>Position: 54 (position.label in template: 54.A)
Alignment accuracy: 10</title><text x="135.56" y="92.97" class="text-black font" >A</text></g>
<g><title>Position: 55 (position.label in template: 55.A)
Alignment accuracy: 10</title><text x="135.56" y="100.53" class="text-black font" >A</text></g>
<g><title>Position: 56 (position.label in template: 56.G)
Alignment accuracy: 10</title><text x="131.7" y="107.26" class="text-black font" >G</text></g>
<g><title>Position: 57 (position.label in template: 57.C)
Alignment accuracy: 10</title><text x="125.78" y="111.68" class="text-black font" >C</text></g>
<g><title>Position: 58 (position.label in template: 58.A)
Alignment accuracy: 10</title><text x="125.99" y="119.24" class="text-black font" >A</text></g>
<g><title>Position: 59 (position.label in template: 59.G)
Alignment accuracy: 10</title><text x="125.57" y="126.8" class="text-black font" >G</text></g>
<g><title>Position: 60 (position.label in template: 60.G)
Alignment accuracy: 10</title><text x="125.57" y="134.36" class="text-black font" >G</text></g>
<g><title>Position: 61 (position.label in template: 61.C)
Alignment accuracy: 0</title><text x="125.78" y="141.92" class="text-black font" >C</text></g>
<g><title>Position: 62 (position.label in template: 62.U)
Alignment accuracy: 0</title><text x="125.78" y="149.48" class="text-black font" >U</text></g>
<g><title>Position: 63 (position.label in template: 63.U)
Alignment accuracy: 0</title><text x="132.32999999999998" y="153.26" class="text-black font" >U</text></g>
<g><title>Position: 64 (position.label in template: 64.G)
Alignment accuracy: 0</title><text x="125.57" y="157.04" class="text-black font" >G</text></g>
<g><title>Position: 65 (position.label in template: 65.G)
Alignment accuracy: 0</title><text x="125.57" y="164.6" class="text-black font" >G</text></g>
<g><title>Position: 66 (position.label in template: 66.G)
Alignment accuracy: 0</title><text x="130.92000000000002" y="169.95" class="text-black font" >G</text></g>
<g><title>Position: 67 (position.label in template: 67.U)
Alignment accuracy: 0</title><text x="138.48" y="169.95" class="text-black font" >U</text></g>
<g><title>Position: 68 (position.label in template: 68.C)
Alignment accuracy: 0</title><text x="146.04" y="169.95" class="text-black font" >C</text></g>
<g><title>Position: 69 (position.label in template: 69.U)
Alignment accuracy: 0</title><text x="153.6" y="169.95" class="text-black font" >U</text></g>
<g><title>Position: 70 (position.label in template: 70.U)
Alignment accuracy: 0</title><text x="161.16" y="169.95" class="text-black font" >U</text></g>
<g><title>Position: 71 (position.label in template: 71.G)
Alignment accuracy: 10</title><text x="168.73" y="169.95" class="text-black font" >G</text></g>
<g><title>Position: 72 (position.label in template: 72.G)
Alignment accuracy: 10</title><text x="176.29" y="169.95" class="text-black font" >G</text></g>
<g><title>Position: 73 (position.label in template: 73.U)
Alignment accuracy: 10</title><text x="183.85" y="169.95" class="text-black font" >U</text></g>
<g><title>Position: 74 (position.label in template: 74.A)
Alignment accuracy: 10</title><text x="191.41" y="169.95" class="text-black font" >A</text></g>
<g><title>Position: 75 (position.label in template: 75.G)
Alignment accuracy: 10</title><text x="198.97" y="169.95" class="text-black font" >G</text></g>
<g><title>Position: 76 (position.label in template: 76.U)
Alignment accuracy: 10</title><text x="206.53" y="169.95" class="text-black font" >U</text></g>
<g><title>Position: 77 (position.label in template: 77.A)
Alignment accuracy: 10</title><text x="214.1" y="169.95" class="text-black font" >A</text></g>
<g><title>Position: 78 (position.label in template: 78.G)
Alignment accuracy: 10</title><text x="221.66" y="169.95" class="text-black font" >G</text></g>
<g><title>Position: 79 (position.label in template: 79.A)
Alignment accuracy: 10</title><text x="229.22" y="169.95" class="text-black font" >A</text></g>
<g><title>Position: 80 (position.label in template: 80.A)
Alignment accuracy: 10</title><text x="236.78" y="169.95" class="text-black font" >A</text></g>
<g><title>Position: 81 (position.label in template: 81.G)
Alignment accuracy: 10</title><text x="244.34" y="169.95" class="text-black font" >G</text></g>
<g><title>Position: 82 (position.label in template: 82.C)
Alignment accuracy: 10</title><text x="251.9" y="169.95" class="text-black font" >C</text></g>
<g><title>Position: 83 (position.label in template: 83.U)
Alignment accuracy: 10</title><text x="259.47" y="169.95" class="text-black font" >U</text></g>
<g><title>Position: 84 (position.label in template: 84.A)
Alignment accuracy: 10</title><text x="267.03" y="169.95" class="text-black font" >A</text></g>
<g><title>Position: 85 (position.label in template: 85.A)
Alignment accuracy: 10</title><text x="274.59" y="169.95" class="text-black font" >A</text></g>
<g><title>Position: 86 (position.label in template: 86.G)
Alignment accuracy: 10</title><text x="282.15" y="169.95" class="text-black font" >G</text></g>
<g><title>Position: 87 (position.label in template: 87.C)
Alignment accuracy: 10</title><text x="289.71" y="169.95" class="text-black font" >C</text></g>
<g><title>Position: 88 (position.label in template: 88.A)
Alignment accuracy: 10</title><text x="297.27" y="169.95" class="text-black font" >A</text></g>
<g><title>Position: 89 (position.label in template: 89.G)
Alignment accuracy: 10</title><text x="304.84" y="169.95" class="text-black font" >G</text></g>
<g><title>Position: 90 (position.label in template: 90.A)
Alignment accuracy: 10</title><text x="312.4" y="169.95" class="text-black font" >A</text></g>
<g><title>Position: 91 (position.label in template: 91.G)
Alignment accuracy: 10</title><text x="319.96" y="169.95" class="text-black font" >G</text></g>
<g><title>Position: 92 (position.label in template: 92.U)
Alignment accuracy: 10</title><text x="327.52" y="169.95" class="text-black font" >U</text></g>
<g><title>Position: 93 (position.label in template: 93.A)
Alignment accuracy: 10</title><text x="335.08" y="169.95" class="text-black font" >A</text></g>
<g><title>Position: 94 (position.label in template: 94.A)
Alignment accuracy: 10</title><text x="342.64" y="169.95" class="text-black font" >A</text></g>
<g><title>Position: 95 (position.label in template: 95.G)
Alignment accuracy: 10</title><text x="350.21" y="169.95" class="text-black font" >G</text></g>
<g><title>Position: 96 (position.label in template: 96.A)
Alignment accuracy: 10</title><text x="357.77" y="169.95" class="text-black font" >A</text></g>
<g><title>Position: 97 (position.label in template: 97.A)
Alignment accuracy: 10</title><text x="365.33" y="169.95" class="text-black font" >A</text></g>
<g><title>Position: 98 (position.label in template: 98.U)
Alignment accuracy: 10</title><text x="372.89" y="169.95" class="text-black font" >U</text></g>
<g><title>Position: 99 (position.label in template: 99.G)
Alignment accuracy: 10</title><text x="380.45" y="169.95" class="text-black font" >G</text></g>
<g><title>Position: 100 (position.label in template: 100.G)
Alignment accuracy: 10</title><text x="388.01" y="169.95" class="text-black font" >G</text></g>
<g><title>Position: 101 (position.label in template: 101.G)
Alignment accuracy: 10</title><text x="395.58" y="169.95" class="text-black font" >G</text></g>
<g><title>Position: 102 (position.label in template: 102.U)
Alignment accuracy: 10</title><text x="403.14" y="169.95" class="text-black font" >U</text></g>
<g><title>Position: 103 (position.label in template: 103.U)
Alignment accuracy: 10</title><text x="410.7" y="169.95" class="text-black font" >U</text></g>
<g><title>Position: 104 (position.label in template: 104.3')</title><text x="418.26" y="169.95" class="text-green font" >3'</text></g>
</g>
<g class="labels">
<g class="label">
<text x="85.61676791579245" y="176.920985795598" class="font numbering-label sequential" >10</text>
<line x1="85.61676791579245" y1="171.8843605953264" x2="85.61676791579245" y2="175.39473579082963" class="numbering-line sequential" />
</g><g class="label">
<text x="106.67315850598209" y="119.33538142862747" class="font numbering-label sequential" >20</text>
<line x1="111.70929799091428" y1="119.26543504689232" x2="108.50465851170415" y2="119.309943928548" class="numbering-line sequential" />
</g><g class="label">
<text x="106.67315850598209" y="59.22538142862746" class="font numbering-label sequential" >30</text>
<line x1="111.70929799091428" y1="59.15543504689228" x2="108.50465851170415" y2="59.19994392854798" class="numbering-line sequential" />
</g><g class="label">
<text x="138.2741377148295" y="79.23593392253841" class="font numbering-label sequential" >50</text>
<line x1="134.81022568981012" y1="75.57958234057352" x2="136.82821665768057" y2="77.70968391777004" class="numbering-line sequential" />
</g><g class="label">
<text x="388.0145452173225" y="176.81503813673825" class="font numbering-label sequential" >100</text>
<line x1="388.0145452173225" y1="171.77841293646665" x2="388.01454521732256" y2="175.28878813196988" class="numbering-line sequential" />
</g></g>

</svg>