<svg xmlns="http://www.w3.org/2000/svg" width="393.32" height="261.0868828743661">
<style type="text/css" >
<![CDATA[
.font { font-family: Helvetica; font-size: 3.062386px; font-weight: bold;  }
.numbering-line { stroke: rgb(204, 204, 204); stroke-width: 0.1914;  }
.bp-line { stroke-width: 0.3828;  }
.text-black { fill: rgb(0, 0, 0);  }
.text-red { fill: rgb(255, 0, 255);  }
.text-green { fill: rgb(0, 255, 0);  }
.text-blue { fill: rgb(0, 0, 255);  }
.text-gray { fill: rgb(204, 204, 204);  }
.text-brown { fill: rgb(211.65, 104.55, 30.6);  }
text { element-wise: True; fill: rgb(0, 0, 0); text-anchor: middle; dominant-baseline: middle;  }
.circle-black { stroke: rgb(0, 0, 0); fill: none;  }
.circle-red { stroke: rgb(255, 0, 255); fill: none;  }
.circle-green { stroke: rgb(0, 255, 0); fill: none;  }
.circle-blue { stroke: rgb(0, 0, 255); fill: none;  }
.circle-gray { stroke: rgb(204, 204, 204); fill: none;  }
.circle-brown { stroke: rgb(211.65, 104.55, 30.6); fill: none;  }
.circle { stroke: rgb(0, 0, 0);  }
.numbering-label { fill: rgb(204, 204, 204);  }
.numbering-line { stroke: rgb(204, 204, 204);  }
.template { visibility: hidden;  }
.bp-line { stroke: rgb(0, 0, 0);  }
.residue-circle { fill: rgb(255,255,255);  }
.res-line { stroke: rgb(204, 204, 204);  }
.color-posterior_probability-0 { fill: rgb(158, 189, 240);  }
.color-posterior_probability-10 { fill: rgb(255, 255, 255);  }
]]>
</style>

<g class="bps"><line x1="158.81" y1="228.64" x2="171.26" y2="228.64" class="bp-line" />
<line x1="159.02" y1="221.08" x2="171.05" y2="221.08" class="bp-line" />
<line x1="159.23" y1="201.68" x2="171.26" y2="201.68" class="bp-line" />
<line x1="158.81" y1="194.12" x2="171.26" y2="194.12" class="bp-line" />
<line x1="159.23" y1="186.56" x2="171.26" y2="186.56" class="bp-line" />
<line x1="159.02" y1="172.77" x2="171.47" y2="172.77" class="bp-line" />
<line x1="158.81" y1="165.21" x2="171.26" y2="165.21" class="bp-line" />
<line x1="158.81" y1="157.65" x2="171.26" y2="157.65" class="bp-line" />
<line x1="158.81" y1="143.86" x2="171.05" y2="143.86" class="bp-line" />
<line x1="159.02" y1="136.3" x2="171.47" y2="136.3" class="bp-line" />
<line x1="158.81" y1="128.74" x2="171.26" y2="128.74" class="bp-line" />
<line x1="159.02" y1="121.18" x2="171.05" y2="121.18" class="bp-line" />
<line x1="159.02" y1="113.62" x2="171.05" y2="113.62" class="bp-line" />
<line x1="159.23" y1="94.23" x2="171.26" y2="94.23" class="bp-line" />
<line x1="158.81" y1="86.67" x2="171.26" y2="86.67" class="bp-line" />
<line x1="159.23" y1="79.11" x2="171.26" y2="79.11" class="bp-line" />
<line x1="159.02" y1="71.55" x2="171.26" y2="71.55" class="bp-line" />
<line x1="159.23" y1="63.99" x2="171.26" y2="63.99" class="bp-line" />
<line x1="159.02" y1="56.43" x2="171.47" y2="56.43" class="bp-line" />
<line x1="159.02" y1="48.87" x2="171.05" y2="48.87" class="bp-line" />
<line x1="159.02" y1="41.31" x2="171.47" y2="41.31" class="bp-line" />
<line x1="159.02" y1="33.75" x2="171.26" y2="33.75" class="bp-line" />
</g>
<g class="residues"><line x1="10.0" y1="234.2" x2="17.56" y2="234.2" class="bp-line res-line" />
<line x1="17.56" y1="234.2" x2="25.119999999999997" y2="234.2" class="bp-line res-line" />
<line x1="25.119999999999997" y1="234.2" x2="32.69" y2="234.2" class="bp-line res-line" />
<line x1="32.69" y1="234.2" x2="40.25" y2="234.2" class="bp-line res-line" />
<line x1="40.25" y1="234.2" x2="47.81" y2="234.2" class="bp-line res-line" />
<line x1="47.81" y1="234.2" x2="55.37" y2="234.2" class="bp-line res-line" />
<line x1="55.37" y1="234.2" x2="62.93" y2="234.2" class="bp-line res-line" />
<line x1="62.93" y1="234.2" x2="70.5" y2="234.2" class="bp-line res-line" />
<line x1="70.5" y1="234.2" x2="78.06" y2="234.2" class="bp-line res-line" />
<line x1="78.06" y1="234.2" x2="85.62" y2="234.2" class="bp-line res-line" />
<line x1="85.62" y1="234.2" x2="93.18" y2="234.2" class="bp-line res-line" />
<line x1="93.18" y1="234.2" x2="100.74" y2="234.2" class="bp-line res-line" />
<line x1="100.74" y1="234.2" x2="108.31" y2="234.2" class="bp-line res-line" />
<line x1="108.31" y1="234.2" x2="115.87" y2="234.2" class="bp-line res-line" />
<line x1="115.87" y1="234.2" x2="123.43" y2="234.2" class="bp-line res-line" />
<line x1="123.43" y1="234.2" x2="130.99" y2="234.2" class="bp-line res-line" />
<line x1="130.99" y1="234.2" x2="138.55" y2="234.2" class="bp-line res-line" />
<line x1="138.55" y1="234.2" x2="146.11" y2="234.2" class="bp-line res-line" />
<line x1="146.11" y1="234.2" x2="153.68" y2="234.2" class="bp-line res-line" />
<line x1="153.68" y1="234.2" x2="158.81" y2="228.64" class="bp-line res-line" />
<line x1="158.81" y1="228.64" x2="159.02" y2="221.08" class="bp-line res-line" />
<line x1="159.02" y1="221.08" x2="154.52" y2="215.16" class="bp-line res-line" />
<line x1="154.52" y1="215.16" x2="154.32" y2="207.6" class="bp-line res-line" />
<line x1="154.32" y1="207.6" x2="159.23" y2="201.68" class="bp-line res-line" />
<line x1="159.23" y1="201.68" x2="158.81" y2="194.12" class="bp-line res-line" />
<line x1="158.81" y1="194.12" x2="159.23" y2="186.56" class="bp-line res-line" />
<line x1="159.23" y1="186.56" x2="155.92" y2="179.67" class="bp-line res-line" />
<line x1="155.92" y1="179.67" x2="159.02" y2="172.77" class="bp-line res-line" />
<line x1="159.02" y1="172.77" x2="158.81" y2="165.21" class="bp-line res-line" />
<line x1="158.81" y1="165.21" x2="158.81" y2="157.65" class="bp-line res-line" />
<line x1="158.81" y1="157.65" x2="156.13" y2="150.76" class="bp-line res-line" />
<line x1="156.13" y1="150.76" x2="158.81" y2="143.86" class="bp-line res-line" />
<line x1="158.81" y1="143.86" x2="159.02" y2="136.3" class="bp-line res-line" />
<line x1="159.02" y1="136.3" x2="158.81" y2="128.74" class="bp-line res-line" />
<line x1="158.81" y1="128.74" x2="159.02" y2="121.18" class="bp-line res-line" />
<line x1="159.02" y1="121.18" x2="159.02" y2="113.62" class="bp-line res-line" />
<line x1="159.02" y1="113.62" x2="154.32" y2="107.71" class="bp-line res-line" />
<line x1="154.32" y1="107.71" x2="154.32" y2="100.15" class="bp-line res-line" />
<line x1="154.32" y1="100.15" x2="159.23" y2="94.23" class="bp-line res-line" />
<line x1="159.23" y1="94.23" x2="158.81" y2="86.67" class="bp-line res-line" />
<line x1="158.81" y1="86.67" x2="159.23" y2="79.11" class="bp-line res-line" />
<line x1="159.23" y1="79.11" x2="159.02" y2="71.55" class="bp-line res-line" />
<line x1="159.02" y1="71.55" x2="159.23" y2="63.99" class="bp-line res-line" />
<line x1="159.23" y1="63.99" x2="159.02" y2="56.43" class="bp-line res-line" />
<line x1="159.02" y1="56.43" x2="159.02" y2="48.87" class="bp-line res-line" />
<line x1="159.02" y1="48.87" x2="159.02" y2="41.31" class="bp-line res-line" />
<line x1="159.02" y1="41.31" x2="159.02" y2="33.75" class="bp-line res-line" />
<line x1="159.02" y1="33.75" x2="155.62" y2="27.0" class="bp-line res-line" />
<line x1="155.62" y1="27.0" x2="157.99" y2="19.89" class="bp-line res-line" />
<line x1="157.99" y1="19.89" x2="165.35" y2="16.89" class="bp-line res-line" />
<line x1="165.35" y1="16.89" x2="172.08" y2="19.89" class="bp-line res-line" />
<line x1="172.08" y1="19.89" x2="174.66" y2="27.0" class="bp-line res-line" />
<line x1="174.66" y1="27.0" x2="171.26" y2="33.75" class="bp-line res-line" />
<line x1="171.26" y1="33.75" x2="171.47" y2="41.31" class="bp-line res-line" />
<line x1="171.47" y1="41.31" x2="171.05" y2="48.87" class="bp-line res-line" />
<line x1="171.05" y1="48.87" x2="177.81" y2="52.65" class="bp-line res-line" />
<line x1="177.81" y1="52.65" x2="171.47" y2="56.43" class="bp-line res-line" />
<line x1="171.47" y1="56.43" x2="171.26" y2="63.99" class="bp-line res-line" />
<line x1="171.26" y1="63.99" x2="171.26" y2="71.55" class="bp-line res-line" />
<line x1="171.26" y1="71.55" x2="171.26" y2="79.11" class="bp-line res-line" />
<line x1="171.26" y1="79.11" x2="171.26" y2="86.67" class="bp-line res-line" />
<line x1="171.26" y1="86.67" x2="171.26" y2="94.23" class="bp-line res-line" />
<line x1="171.26" y1="94.23" x2="175.97" y2="100.15" class="bp-line res-line" />
<line x1="175.97" y1="100.15" x2="175.97" y2="107.71" class="bp-line res-line" />
<line x1="175.97" y1="107.71" x2="171.05" y2="113.62" class="bp-line res-line" />
<line x1="171.05" y1="113.62" x2="178.01" y2="117.4" class="bp-line res-line" />
<line x1="178.01" y1="117.4" x2="171.05" y2="121.18" class="bp-line res-line" />
<line x1="171.05" y1="121.18" x2="171.26" y2="128.74" class="bp-line res-line" />
<line x1="171.26" y1="128.74" x2="171.47" y2="136.3" class="bp-line res-line" />
<line x1="171.47" y1="136.3" x2="171.05" y2="143.86" class="bp-line res-line" />
<line x1="171.05" y1="143.86" x2="174.36" y2="150.76" class="bp-line res-line" />
<line x1="174.36" y1="150.76" x2="171.26" y2="157.65" class="bp-line res-line" />
<line x1="171.26" y1="157.65" x2="171.26" y2="165.21" class="bp-line res-line" />
<line x1="171.26" y1="165.21" x2="171.47" y2="172.77" class="bp-line res-line" />
<line x1="171.47" y1="172.77" x2="174.36" y2="179.67" class="bp-line res-line" />
<line x1="174.36" y1="179.67" x2="171.26" y2="186.56" class="bp-line res-line" />
<line x1="171.26" y1="186.56" x2="171.26" y2="194.12" class="bp-line res-line" />
<line x1="171.26" y1="194.12" x2="171.26" y2="201.68" class="bp-line res-line" />
<line x1="171.26" y1="201.68" x2="178.31" y2="204.42" class="bp-line res-line" />
<line x1="178.31" y1="204.42" x2="181.46" y2="211.38" class="bp-line res-line" />
<line x1="181.46" y1="211.38" x2="178.52" y2="218.34" class="bp-line res-line" />
<line x1="178.52" y1="218.34" x2="171.05" y2="221.08" class="bp-line res-line" />
<line x1="171.05" y1="221.08" x2="171.26" y2="228.64" class="bp-line res-line" />
<line x1="171.26" y1="228.64" x2="176.71" y2="233.88" class="bp-line res-line" />
<line x1="176.71" y1="233.88" x2="184.27" y2="233.88" class="bp-line res-line" />
<line x1="184.27" y1="233.88" x2="191.83" y2="233.88" class="bp-line res-line" />
<line x1="191.83" y1="233.88" x2="199.39" y2="233.88" class="bp-line res-line" />
<line x1="199.39" y1="233.88" x2="206.95" y2="233.88" class="bp-line res-line" />
<line x1="206.95" y1="233.88" x2="214.52" y2="233.88" class="bp-line res-line" />
<line x1="214.52" y1="233.88" x2="222.08" y2="233.88" class="bp-line res-line" />
<line x1="222.08" y1="233.88" x2="229.64" y2="233.88" class="bp-line res-line" />
<line x1="229.64" y1="233.88" x2="237.2" y2="233.88" class="bp-line res-line" />
<line x1="237.2" y1="233.88" x2="244.76" y2="233.88" class="bp-line res-line" />
<line x1="244.76" y1="233.88" x2="252.33" y2="233.88" class="bp-line res-line" />
<line x1="252.33" y1="233.88" x2="259.89" y2="233.88" class="bp-line res-line" />
<line x1="259.89" y1="233.88" x2="267.45" y2="233.88" class="bp-line res-line" />
<line x1="267.45" y1="233.88" x2="275.01" y2="233.88" class="bp-line res-line" />
<line x1="275.01" y1="233.88" x2="282.57" y2="233.88" class="bp-line res-line" />
<line x1="282.57" y1="233.88" x2="290.13" y2="233.88" class="bp-line res-line" />
<line x1="290.13" y1="233.88" x2="297.7" y2="233.88" class="bp-line res-line" />
<line x1="297.7" y1="233.88" x2="305.26" y2="233.88" class="bp-line res-line" />
<line x1="305.26" y1="233.88" x2="312.82" y2="233.88" class="bp-line res-line" />
<line x1="312.82" y1="233.88" x2="320.38" y2="233.88" class="bp-line res-line" />
<line x1="320.38" y1="233.88" x2="327.94" y2="233.88" class="bp-line res-line" />
<line x1="327.94" y1="233.88" x2="335.51" y2="233.88" class="bp-line res-line" />
<line x1="335.51" y1="233.88" x2="343.07" y2="233.88" class="bp-line res-line" />
<line x1="343.07" y1="233.88" x2="350.63" y2="233.88" class="bp-line res-line" />
<line x1="350.63" y1="233.88" x2="358.19" y2="233.88" class="bp-line res-line" />
<line x1="358.19" y1="233.88" x2="365.75" y2="233.88" class="bp-line res-line" />
<line x1="365.75" y1="233.88" x2="373.32" y2="233.88" class="bp-line res-line" />
<circle cx="10.0" cy="234.2" class="residue-circle" r="2.2967895"/>
<circle cx="17.56" cy="234.2" class="residue-circle color-posterior_probability-10" r="2.2967895"/>
<circle cx="25.119999999999997" cy="234.2" class="residue-circle color-posterior_probability-10" r="2.2967895"/>
<circle cx="32.69" cy="234.2" class="residue-circle color-posterior_probability-10" r="2.2967895"/>
<circle cx="40.25" cy="234.2" class="residue-circle color-posterior_probability-10" r="2.2967895"/>
<circle cx="47.81" cy="234.2" class="residue-circle color-posterior_probability-10" r="2.2967895"/>
<circle cx="55.37" cy="234.2" class="residue-circle color-posterior_probability-10" r="2.2967895"/>
<circle cx="62.93" cy="234.2" class="residue-circle color-posterior_probability-10" r="2.2967895"/>
<circle cx="70.5" cy="234.2" class="residue-circle color-posterior_probability-10" r="2.2967895"/>
<circle cx="78.06" cy="234.2" class="residue-circle color-posterior_probability-10" r="2.2967895"/>
<circle cx="85.62" cy="234.2" class="residue-circle color-posterior_probability-10" r="2.2967895"/>
<circle cx="93.18" cy="234.2" class="residue-circle color-posterior_probability-10" r="2.2967895"/>
<circle cx="100.74" cy="234.2" class="residue-circle color-posterior_probability-10" r="2.2967895"/>
<circle cx="108.31" cy="234.2" class="residue-circle color-posterior_probability-10" r="2.2967895"/>
<circle cx="115.87" cy="234.2" class="residue-circle color-posterior_probability-10" r="2.2967895"/>
<circle cx="123.43" cy="234.2" class="residue-circle color-posterior_probability-10" r="2.2967895"/>
<circle cx="130.99" cy="234.2" class="residue-circle color-posterior_probability-10" r="2.2967895"/>
<circle cx="138.55" cy="234.2" class="residue-circle color-posterior_probability-10" r="2.2967895"/>
<circle cx="146.11" cy="234.2" class="residue-circle color-posterior_probability-10" r="2.2967895"/>
<circle cx="153.68" cy="234.2" class="residue-circle color-posterior_probability-10" r="2.2967895"/>
<circle cx="158.81" cy="228.64" class="residue-circle color-posterior_probability-10" r="2.2967895"/>
<circle cx="159.02" cy="221.08" class="residue-circle color-posterior_probability-10" r="2.2967895"/>
<circle cx="154.52" cy="215.16" class="residue-circle color-posterior_probability-10" r="2.2967895"/>
<circle cx="154.32" cy="207.6" class="residue-circle color-posterior_probability-10" r="2.2967895"/>
<circle cx="159.23" cy="201.68" class="residue-circle color-posterior_probability-10" r="2.2967895"/>
<circle cx="158.81" cy="194.12" class="residue-circle color-posterior_probability-10" r="2.2967895"/>
<circle cx="159.23" cy="186.56" class="residue-circle color-posterior_probability-0" r="2.2967895"/>
<circle cx="155.92" cy="179.67" class="residue-circle color-posterior_probability-0" r="2.2967895"/>
<circle cx="159.02" cy="172.77" class="residue-circle color-posterior_probability-0" r="2.2967895"/>
<circle cx="158.81" cy="165.21" class="residue-circle color-posterior_probability-0" r="2.2967895"/>
<circle cx="158.81" cy="157.65" class="residue-circle color-posterior_probability-0" r="2.2967895"/>
<circle cx="156.13" cy="150.76" class="residue-circle color-posterior_probability-0" r="2.2967895"/>
<circle cx="158.81" cy="143.86" class="residue-circle color-posterior_probability-0" r="2.2967895"/>
<circle cx="159.02" cy="136.3" class="residue-circle color-posterior_probability-0" r="2.2967895"/>
<circle cx="158.81" cy="128.74" class="residue-circle color-posterior_probability-0" r="2.2967895"/>
<circle cx="159.02" cy="121.18" class="residue-circle color-posterior_probability-0" r="2.2967895"/>
<circle cx="159.02" cy="113.62" class="residue-circle color-posterior_probability-0" r="2.2967895"/>
<circle cx="154.32" cy="107.71" class="residue-circle color-posterior_probability-0" r="2.2967895"/>
<circle cx="154.32" cy="100.15" class="residue-circle color-posterior_probability-10" r="2.2967895"/>
<circle cx="159.23" cy="94.23" class="residue-circle color-posterior_probability-10" r="2.2967895"/>
<circle cx="158.81" cy="86.67" class="residue-circle color-posterior_probability-10" r="2.2967895"/>
<circle cx="159.23" cy="79.11" class="residue-circle color-posterior_probability-10" r="2.2967895"/>
<circle cx="159.02" cy="71.55" class="residue-circle color-posterior_probability-10" r="2.2967895"/>
<circle cx="159.23" cy="63.99" class="residue-circle color-posterior_probability-10" r="2.2967895"/>
<circle cx="159.02" cy="56.43" class="residue-circle color-posterior_probability-10" r="2.2967895"/>
<circle cx="159.02" cy="48.87" class="residue-circle color-posterior_probability-10" r="2.2967895"/>
<circle cx="159.02" cy="41.31" class="residue-circle color-posterior_probability-10" r="2.2967895"/>
<circle cx="159.02" cy="33.75" class="residue-circle color-posterior_probability-10" r="2.2967895"/>
<circle cx="155.62" cy="27.0" class="residue-circle color-posterior_probability-10" r="2.2967895"/>
<circle cx="157.99" cy="19.89" class="residue-circle color-posterior_probability-10" r="2.2967895"/>
<circle cx="165.35" cy="16.89" class="residue-circle color-posterior_probability-10" r="2.2967895"/>
<circle cx="172.08" cy="19.89" class="residue-circle color-posterior_probability-10" r="2.2967895"/>
<circle cx="174.66" cy="27.0" class="residue-circle color-posterior_probability-10" r="2.2967895"/>
<circle cx="171.26" cy="33.75" class="residue-circle color-posterior_probability-10" r="2.2967895"/>
<circle cx="171.47" cy="41.31" class="residue-circle color-posterior_probability-10" r="2.2967895"/>
<circle cx="171.05" cy="48.87" class="residue-circle color-posterior_probability-10" r="2.2967895"/>
<circle cx="177.81" cy="52.65" class="residue-circle color-posterior_probability-10" r="2.2967895"/>
<circle cx="171.47" cy="56.43" class="residue-circle color-posterior_probability-10" r="2.2967895"/>
<circle cx="171.26" cy="63.99" class="residue-circle color-posterior_probability-10" r="2.2967895"/>
<circle cx="171.26" cy="71.55" class="residue-circle color-posterior_probability-10" r="2.2967895"/>
<circle cx="171.26" cy="79.11" class="residue-circle color-posterior_probability-10" r="2.2967895"/>
<circle cx="171.26" cy="86.67" class="residue-circle color-posterior_probability-10" r="2.2967895"/>
<circle cx="171.26" cy="94.23" class="residue-circle color-posterior_probability-10" r="2.2967895"/>
<circle cx="175.97" cy="100.15" class="residue-circle color-posterior_probability-10" r="2.2967895"/>
<circle cx="175.97" cy="107.71" class="residue-circle color-posterior_probability-10" r="2.2967895"/>
<circle cx="171.05" cy="113.62" class="residue-circle color-posterior_probability-10" r="2.2967895"/>
<circle cx="178.01" cy="117.4" class="residue-circle color-posterior_probability-10" r="2.2967895"/>
<circle cx="171.05" cy="121.18" class="residue-circle color-posterior_probability-10" r="2.2967895"/>
<circle cx="171.26" cy="128.74" class="residue-circle color-posterior_probability-10" r="2.2967895"/>
<circle cx="171.47" cy="136.3" class="residue-circle color-posterior_probability-10" r="2.2967895"/>
<circle cx="171.05" cy="143.86" class="residue-circle color-posterior_probability-10" r="2.2967895"/>
<circle cx="174.36" cy="150.76" class="residue-circle color-posterior_probability-10" r="2.2967895"/>
<circle cx="171.26" cy="157.65" class="residue-circle color-posterior_probability-10" r="2.2967895"/>
<circle cx="171.26" cy="165.21" class="residue-circle color-posterior_probability-10" r="2.2967895"/>
<circle cx="171.47" cy="172.77" class="residue-circle color-posterior_probability-10" r="2.2967895"/>
<circle cx="174.36" cy="179.67" class="residue-circle color-posterior_probability-10" r="2.2967895"/>
<circle cx="171.26" cy="186.56" class="residue-circle color-posterior_probability-10" r="2.2967895"/>
<circle cx="171.26" cy="194.12" class="residue-circle color-posterior_probability-10" r="2.2967895"/>
<circle cx="171.26" cy="201.68" class="residue-circle color-posterior_probability-10" r="2.2967895"/>
<circle cx="178.31" cy="204.42" class="residue-circle color-posterior_probability-10" r="2.2967895"/>
<circle cx="181.46" cy="211.38" class="residue-circle color-posterior_probability-10" r="2.2967895"/>
<circle cx="178.52" cy="218.34" class="residue-circle color-posterior_probability-10" r="2.2967895"/>
<circle cx="171.05" cy="221.08" class="residue-circle color-posterior_probability-10" r="2.2967895"/>
<circle cx="171.26" cy="228.64" class="residue-circle color-posterior_probability-10" r="2.2967895"/>
<circle cx="176.71" cy="233.88" class="residue-circle color-posterior_probability-10" r="2.2967895"/>
<circle cx="184.27" cy="233.88" class="residue-circle color-posterior_probability-10" r="2.2967895"/>
<circle cx="191.83" cy="233.88" class="residue-circle color-posterior_probability-10" r="2.2967895"/>
<circle cx="199.39" cy="233.88" class="residue-circle color-posterior_probability-10" r="2.2967895"/>
<circle cx="206.95" cy="233.88" class="residue-circle color-posterior_probability-10" r="2.2967895"/>
<circle cx="214.52" cy="233.88" class="residue-circle color-posterior_probability-10" r="2.2967895"/>
<circle cx="222.08" cy="233.88" class="residue-circle color-posterior_probability-10" r="2.2967895"/>
<circle cx="229.64" cy="233.88" class="residue-circle color-posterior_probability-10" r="2.2967895"/>
<circle cx="237.2" cy="233.88" class="residue-circle color-posterior_probability-10" r="2.2967895"/>
<circle cx="244.76" cy="233.88" class="residue-circle color-posterior_probability-10" r="2.2967895"/>
<circle cx="252.33" cy="233.88" class="residue-circle color-posterior_probability-10" r="2.2967895"/>
<circle cx="259.89" cy="233.88" class="residue-circle color-posterior_probability-10" r="2.2967895"/>
<circle cx="267.45" cy="233.88" class="residue-circle color-posterior_probability-10" r="2.2967895"/>
<circle cx="275.01" cy="233.88" class="residue-circle color-posterior_probability-10" r="2.2967895"/>
<circle cx="282.57" cy="233.88" class="residue-circle color-posterior_probability-10" r="2.2967895"/>
<circle cx="290.13" cy="233.88" class="residue-circle color-posterior_probability-10" r="2.2967895"/>
<circle cx="297.7" cy="233.88" class="residue-circle color-posterior_probability-10" r="2.2967895"/>
<circle cx="305.26" cy="233.88" class="residue-circle color-posterior_probability-10" r="2.2967895"/>
<circle cx="312.82" cy="233.88" class="residue-circle color-posterior_probability-10" r="2.2967895"/>
<circle cx="320.38" cy="233.88" class="residue-circle color-posterior_probability-10" r="2.2967895"/>
<circle cx="327.94" cy="233.88" class="residue-circle color-posterior_probability-10" r="2.2967895"/>
<circle cx="335.51" cy="233.88" class="residue-circle color-posterior_probability-10" r="2.2967895"/>
<circle cx="343.07" cy="233.88" class="residue-circle color-posterior_probability-10" r="2.2967895"/>
<circle cx="350.63" cy="233.88" class="residue-circle color-posterior_probability-10" r="2.2967895"/>
<circle cx="358.19" cy="233.88" class="residue-circle color-posterior_probability-10" r="2.2967895"/>
<circle cx="365.75" cy="233.88" class="residue-circle color-posterior_probability-10" r="2.2967895"/>
<circle cx="373.32" cy="233.88" class="residue-circle" r="2.2967895"/>
<g><title>Position: 0 (position.label in template: 0.5')</title><text x="10.0" y="234.2" class="text-green font" >5'</text></g>
<g><title>Position: 1 (position.label in template: 1.G)
Alignment accuracy: 10</title><text x="17.56" y="234.2" class="text-black font" >G</text></g>
<g><title>Position: 2 (position.label in template: 2.C)
Alignment accuracy: 10</title><text x="25.119999999999997" y="234.2" class="text-black font" >C</text></g>
<g><title>Position: 3 (position.label in template: 3.U)
Alignment accuracy: 10</title><text x="32.69" y="234.2" class="text-black font" >U</text></g>
<g><title>Position: 4 (position.label in template: 4.G)
Alignment accuracy: 10</title><text x="40.25" y="234.2" class="text-black font" >G</text></g>
<g><title>Position: 5 (position.label in template: 5.G)
Alignment accuracy: 10</title><text x="47.81" y="234.2" class="text-black font" >G</text></g>
<g><title>Position: 6 (position.label in template: 6.C)
Alignment accuracy: 10</title><text x="55.37" y="234.2" class="text-black font" >C</text></g>
<g><title>Position: 7 (position.label in template: 7.A)
Alignment accuracy: 10</title><text x="62.93" y="234.2" class="text-black font" >A</text></g>
<g><title>Position: 8 (position.label in template: 8.G)
Alignment accuracy: 10</title><text x="70.5" y="234.2" class="text-black font" >G</text></g>
<g><title>Position: 9 (position.label in template: 9.G)
Alignment accuracy: 10</title><text x="78.06" y="234.2" class="text-black font" >G</text></g>
<g><title>Position: 10 (position.label in template: 10.G)
Alignment accuracy: 10</title><text x="85.62" y="234.2" class="text-black font" >G</text></g>
<g><title>Position: 11 (position.label in template: 11.A)
Alignment accuracy: 10</title><text x="93.18" y="234.2" class="text-black font" >A</text></g>
<g><title>Position: 12 (position.label in template: 12.C)
Alignment accuracy: 10</title><text x="100.74" y="234.2" class="text-black font" >C</text></g>
<g><title>Position: 13 (position.label in template: 13.A)
Alignment accuracy: 10</title><text x="108.31" y="234.2" class="text-black font" >A</text></g>
<g><title>Position: 14 (position.label in template: 14.C)
Alignment accuracy: 10</title><text x="115.87" y="234.2" class="text-black font" >C</text></g>
<g><title>Position: 15 (position.label in template: 15.A)
Alignment accuracy: 10</title><text x="123.43" y="234.2" class="text-black font" >A</text></g>
<g><title>Position: 16 (position.label in template: 16.A)
Alignment accuracy: 10</title><text x="130.99" y="234.2" class="text-black font" >A</text></g>
<g><title>Position: 17 (position.label in template: 17.C)
Alignment accuracy: 10</title><text x="138.55" y="234.2" class="text-black font" >C</text></g>
<g><title>Position: 18 (position.label in template: 18.C)
Alignment accuracy: 10</title><text x="146.11" y="234.2" class="text-black font" >C</text></g>
<g><title>Position: 19 (position.label in template: 19.A)
Alignment accuracy: 10</title><text x="153.68" y="234.2" class="text-black font" >A</text></g>
<g><title>Position: 20 (position.label in template: 20.G)
Alignment accuracy: 10</title><text x="158.81" y="228.64" class="text-black font" >G</text></g>
<g><title>Position: 21 (position.label in template: 21.C)
Alignment accuracy: 10</title><text x="159.02" y="221.08" class="text-black font" >C</text></g>
<g><title>Position: 22 (position.label in template: 22.A)
Alignment accuracy: 10</title><text x="154.52" y="215.16" class="text-black font" >A</text></g>
<g><title>Position: 23 (position.label in template: 23.C)
Alignment accuracy: 10</title><text x="154.32" y="207.6" class="text-black font" >C</text></g>
<g><title>Position: 24 (position.label in template: 24.A)
Alignment accuracy: 10</title><text x="159.23" y="201.68" class="text-black font" >A</text></g>
<g><title>Position: 25 (position.label in template: 25.G)
Alignment accuracy: 10</title><text x="158.81" y="194.12" class="text-black font" >G</text></g>
<g><title>Position: 26 (position.label in template: 26.A)
Alignment accuracy: 0</title><text x="159.23" y="186.56" class="text-black font" >A</text></g>
<g><title>Position: 27 (position.label in template: 27.C)
Alignment accuracy: 0</title><text x="155.92" y="179.67" class="text-black font" >C</text></g>
<g><title>Position: 28 (position.label in template: 28.U)
Alignment accuracy: 0</title><text x="159.02" y="172.77" class="text-black font" >U</text></g>
<g><title>Position: 29 (position.label in template: 29.G)
Alignment accuracy: 0</title><text x="158.81" y="165.21" class="text-black font" >G</text></g>
<g><title>Position: 30 (position.label in template: 30.G)
Alignment accuracy: 0</title><text x="158.81" y="157.65" class="text-black font" >G</text></g>
<g><title>Position: 31 (position.label in template: 31.A)
Alignment accuracy: 0</title><text x="156.13" y="150.76" class="text-black font" >A</text></g>
<g><title>Position: 32 (position.label in template: 32.G)
Alignment accuracy: 0</title><text x="158.81" y="143.86" class="text-black font" >G</text></g>
<g><title>Position: 33 (position.label in template: 33.U)
Alignment accuracy: 0</title><text x="159.02" y="136.3" class="text-black font" >U</text></g>
<g><title>Position: 34 (position.label in template: 34.G)
Alignment accuracy: 0</title><text x="158.81" y="128.74" class="text-black font" >G</text></g>
<g><title>Position: 35 (position.label in template: 35.U)
Alignment accuracy: 0</title><text x="159.02" y="121.18" class="text-black font" >U</text></g>
<g><title>Position: 36 (position.label in template: 36.C)
Alignment accuracy: 0</title><text x="159.02" y="113.62" class="text-black font" >C</text></g>
<g><title>Position: 37 (position.label in template: 37.C)
Alignment accuracy: 0</title><text x="154.32" y="107.71" class="text-black font" >C</text></g>
<g><title>Position: 38 (position.label in template: 38.C)
Alignment accuracy: 10</title><text x="154.32" y="100.15" class="text-black font" >C</text></g>
<g><title>Position: 39 (position.label in template: 39.A)
Alignment accuracy: 10</title><text x="159.23" y="94.23" class="text-black font" >A</text></g>
<g><title>Position: 40 (position.label in template: 40.G)
Alignment accuracy: 10</title><text x="158.81" y="86.67" class="text-black font" >G</text></g>
<g><title>Position: 41 (position.label in template: 41.A)
Alignment accuracy: 10</title><text x="159.23" y="79.11" class="text-black font" >A</text></g>
<g><title>Position: 42 (position.label in template: 42.C)
Alignment accuracy: 10</title><text x="159.02" y="71.55" class="text-black font" >C</text></g>
<g><title>Position: 43 (position.label in template: 43.A)
Alignment accuracy: 10</title><text x="159.23" y="63.99" class="text-black font" >A</text></g>
<g><title>Position: 44 (position.label in template: 44.U)
Alignment accuracy: 10</title><text x="159.02" y="56.43" class="text-black font" >U</text></g>
<g><title>Position: 45 (position.label in template: 45.C)
Alignment accuracy: 10</title><text x="159.02" y="48.87" class="text-black font" >C</text></g>
<g><title>Position: 46 (position.label in template: 46.U)
Alignment accuracy: 10</title><text x="159.02" y="41.31" class="text-black font" >U</text></g>
<g><title>Position: 47 (position.label in template: 47.C)
Alignment accuracy: 10</title><text x="159.02" y="33.75" class="text-black font" >C</text></g>
<g><title>Position: 48 (position.label in template: 48.U)
Alignment accuracy: 10</title><text x="155.62" y="27.0" class="text-black font" >U</text></g>
<g><title>Position: 49 (position.label in template: 49.G)
Alignment accuracy: 10</title><text x="157.99" y="19.89" class="text-black font" >G</text></g>
<g><title>Position: 50 (position.label in template: 50.A)
Alignment accuracy: 10</title><text x="165.35" y="16.89" class="text-black font" >A</text></g>
<g><title>Position: 51 (position.label in template: 51.C)
Alignment accuracy: 10</title><text x="172.08" y="19.89" class="text-black font" >C</text></g>
<g><title>Position: 52 (position.label in template: 52.C)
Alignment accuracy: 10</title><text x="174.66" y="27.0" class="text-black font" >C</text></g>
<g><title>Position: 53 (position.label in template: 53.C)
Alignment accuracy: 10</title><text x="171.26" y="33.75" class="text-black font" >C</text></g>
<g><title>Position: 54 (position.label in template: 54.A)
Alignment accuracy: 10</title><text x="171.47" y="41.31" class="text-black font" >A</text></g>
<g><title>Position: 55 (position.label in template: 55.G)
Alignment accuracy: 10</title><text x="171.05" y="48.87" class="text-black font" >G</text></g>
<g><title>Position: 56 (position.label in template: 56.U)
Alignment accuracy: 10</title><text x="177.81" y="52.65" class="text-black font" >U</text></g>
<g><title>Position: 57 (position.label in template: 57.A)
Alignment accuracy: 10</title><text x="171.47" y="56.43" class="text-black font" >A</text></g>
<g><title>Position: 58 (position.label in template: 58.U)
Alignment accuracy: 10</title><text x="171.26" y="63.99" class="text-black font" >U</text></g>
<g><title>Position: 59 (position.label in template: 59.C)
Alignment accuracy: 10</title><text x="171.26" y="71.55" class="text-black font" >C</text></g>
<g><title>Position: 60 (position.label in template: 60.U)
Alignment accuracy: 10</title><text x="171.26" y="79.11" class="text-black font" >U</text></g>
<g><title>Position: 61 (position.label in template: 61.C)
Alignment accuracy: 10</title><text x="171.26" y="86.67" class="text-black font" >C</text></g>
<g><title>Position: 62 (position.label in template: 62.U)
Alignment accuracy: 10</title><text x="171.26" y="94.23" class="text-black font" >U</text></g>
<g><title>Position: 63 (position.label in template: 63.U)
Alignment accuracy: 10</title><text x="175.97" y="100.15" class="text-black font" >U</text></g>
<g><title>Position: 64 (position.label in template: 64.U)
Alignment accuracy: 10</title><text x="175.97" y="107.71" class="text-black font" >U</text></g>
<g><title>Position: 65 (position.label in template: 65.G)
Alignment accuracy: 10</title><text x="171.05" y="113.62" class="text-black font" >G</text></g>
<g><title>Position: 66 (position.label in template: 66.A)
Alignment accuracy: 10</title><text x="178.01" y="117.4" class="text-black font" >A</text></g>
<g><title>Position: 67 (position.label in template: 67.G)
Alignment accuracy: 10</title><text x="171.05" y="121.18" class="text-black font" >G</text></g>
<g><title>Position: 68 (position.label in template: 68.C)
Alignment accuracy: 10</title><text x="171.26" y="128.74" class="text-black font" >C</text></g>
<g><title>Position: 69 (position.label in template: 69.A)
Alignment accuracy: 10</title><text x="171.47" y="136.3" class="text-black font" >A</text></g>
<g><title>Position: 70 (position.label in template: 70.G)
Alignment accuracy: 10</title><text x="171.05" y="143.86" class="text-black font" >G</text></g>
<g><title>Position: 71 (position.label in template: 71.C)
Alignment accuracy: 10</title><text x="174.36" y="150.76" class="text-black font" >C</text></g>
<g><title>Position: 72 (position.label in template: 72.U)
Alignment accuracy: 10</title><text x="171.26" y="157.65" class="text-black font" >U</text></g>
<g><title>Position: 73 (position.label in template: 73.C)
Alignment accuracy: 10</title><text x="171.26" y="165.21" class="text-black font" >C</text></g>
<g><title>Position: 74 (position.label in template: 74.A)
Alignment accuracy: 10</title><text x="171.47" y="172.77" class="text-black font" >A</text></g>
<g><title>Position: 75 (position.label in template: 75.C)
Alignment accuracy: 10</title><text x="174.36" y="179.67" class="text-black font" >C</text></g>
<g><title>Position: 76 (position.label in template: 76.U)
Alignment accuracy: 10</title><text x="171.26" y="186.56" class="text-black font" >U</text></g>
<g><title>Position: 77 (position.label in template: 77.C)
Alignment accuracy: 10</title><text x="171.26" y="194.12" class="text-black font" >C</text></g>
<g><title>Position: 78 (position.label in template: 78.U)
Alignment accuracy: 10</title><text x="171.26" y="201.68" class="text-black font" >U</text></g>
<g><title>Position: 79 (position.label in template: 79.C)
Alignment accuracy: 10</title><text x="178.31" y="204.42" class="text-black font" >C</text></g>
<g><title>Position: 80 (position.label in template: 80.A)
Alignment accuracy: 10</title><text x="181.46" y="211.38" class="text-black font" >A</text></g>
<g><title>Position: 81 (position.label in template: 81.A)
Alignment accuracy: 10</title><text x="178.52" y="218.34" class="text-black font" >A</text></g>
<g><title>Position: 82 (position.label in template: 82.G)
Alignment accuracy: 10</title><text x="171.05" y="221.08" class="text-black font" >G</text></g>
<g><title>Position: 83 (position.label in template: 83.C)
Alignment accuracy: 10</title><text x="171.26" y="228.64" class="text-black font" >C</text></g>
<g><title>Position: 84 (position.label in template: 84.A)
Alignment accuracy: 10</title><text x="176.71" y="233.88" class="text-black font" >A</text></g>
<g><title>Position: 85 (position.label in template: 85.C)
Alignment accuracy: 10</title><text x="184.27" y="233.88" class="text-black font" >C</text></g>
<g><title>Position: 86 (position.label in template: 86.G)
Alignment accuracy: 10</title><text x="191.83" y="233.88" class="text-black font" >G</text></g>
<g><title>Position: 87 (position.label in template: 87.A)
Alignment accuracy: 10</title><text x="199.39" y="233.88" class="text-black font" >A</text></g>
<g><title>Position: 88 (position.label in template: 88.C)
Alignment accuracy: 10</title><text x="206.95" y="233.88" class="text-black font" >C</text></g>
<g><title>Position: 89 (position.label in template: 89.U)
Alignment accuracy: 10</title><text x="214.52" y="233.88" class="text-black font" >U</text></g>
<g><title>Position: 90 (position.label in template: 90.A)
Alignment accuracy: 10</title><text x="222.08" y="233.88" class="text-black font" >A</text></g>
<g><title>Position: 91 (position.label in template: 91.U)
Alignment accuracy: 10</title><text x="229.64" y="233.88" class="text-black font" >U</text></g>
<g><title>Position: 92 (position.label in template: 92.G)
Alignment accuracy: 10</title><text x="237.2" y="233.88" class="text-black font" >G</text></g>
<g><title>Position: 93 (position.label in template: 93.A)
Alignment accuracy: 10</title><text x="244.76" y="233.88" class="text-black font" >A</text></g>
<g><title>Position: 94 (position.label in template: 94.G)
Alignment accuracy: 10</title><text x="252.33" y="233.88" class="text-black font" >G</text></g>
<g><title>Position: 95 (position.label in template: 95.G)
Alignment accuracy: 10</title><text x="259.89" y="233.88" class="text-black font" >G</text></g>
<g><title>Position: 96 (position.label in template: 96.C)
Alignment accuracy: 10</title><text x="267.45" y="233.88" class="text-black font" >C</text></g>
<g><title>Position: 97 (position.label in template: 97.C)
Alignment accuracy: 10</title><text x="275.01" y="233.88" class="text-black font" >C</text></g>
<g><title>Position: 98 (position.label in template: 98.U)
Alignment accuracy: 10</title><text x="282.57" y="233.88" class="text-black font" >U</text></g>
<g><title>Position: 99 (position.label in template: 99.C)
Alignment accuracy: 10</title><text x="290.13" y="233.88" class="text-black font" >C</text></g>
<g><title>Position: 100 (position.label in template: 100.U)
Alignment accuracy: 10</title><text x="297.7" y="233.88" class="text-black font" >U</text></g>
<g><title>Position: 101 (position.label in template: 101.G)
Alignment accuracy: 10</title><text x="305.26" y="233.88" class="text-black font" >G</text></g>
<g><title>Position: 102 (position.label in template: 102.U)
Alignment accuracy: 10</title><text x="312.82" y="233.88" class="text-black font" >U</text></g>
<g><title>Position: 103 (position.label in template: 103.G)
Alignment accuracy: 10</title><text x="320.38" y="233.88" class="text-black font" >G</text></g>
<g><title>Position: 104 (position.label in template: 104.C)
Alignment accuracy: 10</title><text x="327.94" y="233.88" class="text-black font" >C</text></g>
<g><title>Position: 105 (position.label in template: 105.C)
Alignment accuracy: 10</title><text x="335.51" y="233.88" class="text-black font" >C</text></g>
<g><title>Position: 106 (position.label in template: 106.U)
Alignment accuracy: 10</title><text x="343.07" y="233.88" class="text-black font" >U</text></g>
<g><title>Position: 107 (position.label in template: 107.U)
Alignment accuracy: 10</title><text x="350.63" y="233.88" class="text-black font" >U</text></g>
<g><title>Position: 108 (position.label in template: 108.C)
Alignment accuracy: 10</title><text x="358.19" y="233.88" class="text-black font" >C</text></g>
<g><title>Position: 109 (position.label in template: 109.C)
Alignment accuracy: 10</title><text x="365.75" y="233.88" class="text-black font" >C</text></g>
<g><title>Position: 110 (position.label in template: 110.3')</title><text x="373.32" y="233.88" class="text-green font" >3'</text></g>
</g>
<g class="labels">
<g class="label">
<text x="85.61943985230997" y="241.08688287436613" class="font numbering-label sequential" >10</text>
<line x1="85.61943985230997" y1="236.03394503884616" x2="85.61943985230998" y2="239.55568973719724" class="numbering-line sequential" />
</g><g class="label">
<text x="152.42467430404588" y="226.042351361048" class="font numbering-label sequential" >20</text>
<line x1="157.104668159369" y1="227.94756480939625" x2="154.2621060686485" y2="226.79036510135697" class="numbering-line sequential" />
</g><g class="label">
<text x="152.03164975418053" y="158.90687870297964" class="font numbering-label sequential" >30</text>
<line x1="156.9998616178417" y1="157.98543871719338" x2="153.86908151878322" y2="158.56609551065196" class="numbering-line sequential" />
</g><g class="label">
<text x="165.34648399375703" y="10.0" class="font numbering-label sequential" >50</text>
<line x1="165.34648399375703" y1="15.05293783551997" x2="165.34648399375703" y2="11.531193137168856" class="numbering-line sequential" />
</g><g class="label">
<text x="297.69678870204433" y="240.7737542703077" class="font numbering-label sequential" >100</text>
<line x1="297.69678870204433" y1="235.72081643478774" x2="297.69678870204433" y2="239.24256113313882" class="numbering-line sequential" />
</g></g>

</svg>