<svg xmlns="http://www.w3.org/2000/svg" width="105.93" height="183.53">
<style type="text/css" >
<![CDATA[
.font { font-family: Helvetica; font-size: 3.084500px; font-weight: bold;  }
.numbering-line { stroke: rgb(204, 204, 204); stroke-width: 0.1928;  }
.bp-line { stroke-width: 0.3856;  }
.text-black { fill: rgb(0, 0, 0);  }
.text-red { fill: rgb(255, 0, 255);  }
.text-green { fill: rgb(0, 255, 0);  }
.text-blue { fill: rgb(0, 0, 255);  }
.text-gray { fill: rgb(204, 204, 204);  }
.text-brown { fill: rgb(211.65, 104.55, 30.6);  }
text { element-wise: True; fill: rgb(0, 0, 0); text-anchor: middle; dominant-baseline: middle;  }
.circle-black { stroke: rgb(0, 0, 0); fill: none;  }
.circle-red { stroke: rgb(255, 0, 255); fill: none;  }
.circle-green { stroke: rgb(0, 255, 0); fill: none;  }
.circle-blue { stroke: rgb(0, 0, 255); fill: none;  }
.circle-gray { stroke: rgb(204, 204, 204); fill: none;  }
.circle-brown { stroke: rgb(211.65, 104.55, 30.6); fill: none;  }
.circle { stroke: rgb(0, 0, 0);  }
.numbering-label { fill: rgb(204, 204, 204);  }
.numbering-line { stroke: rgb(204, 204, 204);  }
.template { visibility: hidden;  }
.bp-line { stroke: rgb(0, 0, 0);  }
.residue-circle { fill: rgb(255,255,255);  }
.res-line { stroke: rgb(204, 204, 204);  }
.color-posterior_probability-0 { fill: rgb(158, 189, 240);  }
.color-posterior_probability-10 { fill: rgb(255, 255, 255);  }
]]>
</style>

<g class="bps"><line x1="38.0" y1="157.97" x2="50.45" y2="157.97" class="bp-line" />
<line x1="38.0" y1="150.41" x2="50.45" y2="150.41" class="bp-line" />
<line x1="38.0" y1="142.85" x2="50.45" y2="142.85" class="bp-line" />
<line x1="38.0" y1="135.29000000000002" x2="50.45" y2="135.29000000000002" class="bp-line" />
<line x1="38.0" y1="121.5" x2="50.45" y2="121.5" class="bp-line" />
<line x1="38.0" y1="113.94" x2="50.45" y2="113.94" class="bp-line" />
<line x1="38.42" y1="106.38" x2="50.45" y2="106.38" class="bp-line" />
<line x1="38.0" y1="98.82" x2="50.45" y2="98.82" class="bp-line" />
<line x1="38.21" y1="91.26" x2="50.24" y2="91.26" class="bp-line" />
<line x1="38.42" y1="83.7" x2="50.45" y2="83.7" class="bp-line" />
<line x1="38.0" y1="76.14" x2="50.45" y2="76.14" class="bp-line" />
<line x1="38.0" y1="51.43" x2="50.45" y2="51.43" class="bp-line" />
<line x1="38.0" y1="43.87" x2="50.45" y2="43.87" class="bp-line" />
<line x1="38.0" y1="36.31" x2="50.45" y2="36.31" class="bp-line" />
<line x1="38.21" y1="28.75" x2="50.24" y2="28.75" class="bp-line" />
</g>
<g class="residues"><line x1="10.19" y1="163.53" x2="17.75" y2="163.53" class="bp-line res-line" />
<line x1="17.75" y1="163.53" x2="25.32" y2="163.53" class="bp-line res-line" />
<line x1="25.32" y1="163.53" x2="32.879999999999995" y2="163.53" class="bp-line res-line" />
<line x1="32.879999999999995" y1="163.53" x2="38.0" y2="157.97" class="bp-line res-line" />
<line x1="38.0" y1="157.97" x2="38.0" y2="150.41" class="bp-line res-line" />
<line x1="38.0" y1="150.41" x2="38.0" y2="142.85" class="bp-line res-line" />
<line x1="38.0" y1="142.85" x2="38.0" y2="135.29000000000002" class="bp-line res-line" />
<line x1="38.0" y1="135.29000000000002" x2="35.11" y2="128.4" class="bp-line res-line" />
<line x1="35.11" y1="128.4" x2="38.0" y2="121.5" class="bp-line res-line" />
<line x1="38.0" y1="121.5" x2="38.0" y2="113.94" class="bp-line res-line" />
<line x1="38.0" y1="113.94" x2="38.42" y2="106.38" class="bp-line res-line" />
<line x1="38.42" y1="106.38" x2="34.43" y2="112.93" class="bp-line res-line" />
<line x1="34.43" y1="112.93" x2="28.09" y2="116.71" class="bp-line res-line" />
<line x1="28.09" y1="116.71" x2="20.11" y2="116.71" class="bp-line res-line" />
<line x1="20.11" y1="116.71" x2="13.98" y2="112.93" class="bp-line res-line" />
<line x1="13.98" y1="112.93" x2="10.0" y2="106.38" class="bp-line res-line" />
<line x1="10.0" y1="106.38" x2="10.2" y2="98.82" class="bp-line res-line" />
<line x1="10.2" y1="98.82" x2="13.57" y2="92.28" class="bp-line res-line" />
<line x1="13.57" y1="92.28" x2="20.53" y2="88.5" class="bp-line res-line" />
<line x1="20.53" y1="88.5" x2="27.88" y2="88.5" class="bp-line res-line" />
<line x1="27.88" y1="88.5" x2="34.22" y2="92.28" class="bp-line res-line" />
<line x1="34.22" y1="92.28" x2="38.0" y2="98.82" class="bp-line res-line" />
<line x1="38.0" y1="98.82" x2="38.21" y2="91.26" class="bp-line res-line" />
<line x1="38.21" y1="91.26" x2="38.42" y2="83.7" class="bp-line res-line" />
<line x1="38.42" y1="83.7" x2="38.0" y2="76.14" class="bp-line res-line" />
<line x1="38.0" y1="76.14" x2="32.41" y2="71.06" class="bp-line res-line" />
<line x1="32.41" y1="71.06" x2="30.75" y2="63.79" class="bp-line res-line" />
<line x1="30.75" y1="63.79" x2="32.82" y2="56.52" class="bp-line res-line" />
<line x1="32.82" y1="56.52" x2="38.0" y2="51.43" class="bp-line res-line" />
<line x1="38.0" y1="51.43" x2="38.0" y2="43.87" class="bp-line res-line" />
<line x1="38.0" y1="43.87" x2="38.0" y2="36.31" class="bp-line res-line" />
<line x1="38.0" y1="36.31" x2="38.21" y2="28.75" class="bp-line res-line" />
<line x1="38.21" y1="28.75" x2="33.95" y2="22.509999999999998" class="bp-line res-line" />
<line x1="33.95" y1="22.509999999999998" x2="35.09" y2="15.01" class="bp-line res-line" />
<line x1="35.09" y1="15.01" x2="40.34" y2="10.0" class="bp-line res-line" />
<line x1="40.34" y1="10.0" x2="48.11" y2="10.0" class="bp-line res-line" />
<line x1="48.11" y1="10.0" x2="53.98" y2="15.01" class="bp-line res-line" />
<line x1="53.98" y1="15.01" x2="54.71" y2="22.509999999999998" class="bp-line res-line" />
<line x1="54.71" y1="22.509999999999998" x2="50.24" y2="28.75" class="bp-line res-line" />
<line x1="50.24" y1="28.75" x2="50.45" y2="36.31" class="bp-line res-line" />
<line x1="50.45" y1="36.31" x2="50.45" y2="43.87" class="bp-line res-line" />
<line x1="50.45" y1="43.87" x2="50.45" y2="51.43" class="bp-line res-line" />
<line x1="50.45" y1="51.43" x2="56.05" y2="56.52" class="bp-line res-line" />
<line x1="56.05" y1="56.52" x2="58.12" y2="63.79" class="bp-line res-line" />
<line x1="58.12" y1="63.79" x2="56.25" y2="71.06" class="bp-line res-line" />
<line x1="56.25" y1="71.06" x2="50.45" y2="76.14" class="bp-line res-line" />
<line x1="50.45" y1="76.14" x2="50.45" y2="83.7" class="bp-line res-line" />
<line x1="50.45" y1="83.7" x2="50.24" y2="91.26" class="bp-line res-line" />
<line x1="50.24" y1="91.26" x2="50.45" y2="98.82" class="bp-line res-line" />
<line x1="50.45" y1="98.82" x2="50.45" y2="106.38" class="bp-line res-line" />
<line x1="50.45" y1="106.38" x2="50.45" y2="113.94" class="bp-line res-line" />
<line x1="50.45" y1="113.94" x2="50.45" y2="121.5" class="bp-line res-line" />
<line x1="50.45" y1="121.5" x2="53.76" y2="128.4" class="bp-line res-line" />
<line x1="53.76" y1="128.4" x2="50.45" y2="135.29000000000002" class="bp-line res-line" />
<line x1="50.45" y1="135.29000000000002" x2="50.45" y2="142.85" class="bp-line res-line" />
<line x1="50.45" y1="142.85" x2="50.45" y2="150.41" class="bp-line res-line" />
<line x1="50.45" y1="150.41" x2="50.45" y2="157.97" class="bp-line res-line" />
<line x1="50.45" y1="157.97" x2="55.69" y2="163.42" class="bp-line res-line" />
<line x1="55.69" y1="163.42" x2="63.25" y2="163.42" class="bp-line res-line" />
<line x1="63.25" y1="163.42" x2="70.81" y2="163.42" class="bp-line res-line" />
<line x1="70.81" y1="163.42" x2="78.37" y2="163.42" class="bp-line res-line" />
<line x1="78.37" y1="163.42" x2="85.93" y2="163.42" class="bp-line res-line" />
<circle cx="10.19" cy="163.53" class="residue-circle" r="2.3133749999999997"/>
<circle cx="17.75" cy="163.53" class="residue-circle color-posterior_probability-10" r="2.3133749999999997"/>
<circle cx="25.32" cy="163.53" class="residue-circle color-posterior_probability-10" r="2.3133749999999997"/>
<circle cx="32.879999999999995" cy="163.53" class="residue-circle color-posterior_probability-10" r="2.3133749999999997"/>
<circle cx="38.0" cy="157.97" class="residue-circle color-posterior_probability-10" r="2.3133749999999997"/>
<circle cx="38.0" cy="150.41" class="residue-circle color-posterior_probability-10" r="2.3133749999999997"/>
<circle cx="38.0" cy="142.85" class="residue-circle color-posterior_probability-10" r="2.3133749999999997"/>
<circle cx="38.0" cy="135.29000000000002" class="residue-circle color-posterior_probability-10" r="2.3133749999999997"/>
<circle cx="35.11" cy="128.4" class="residue-circle color-posterior_probability-10" r="2.3133749999999997"/>
<circle cx="38.0" cy="121.5" class="residue-circle color-posterior_probability-10" r="2.3133749999999997"/>
<circle cx="38.0" cy="113.94" class="residue-circle color-posterior_probability-10" r="2.3133749999999997"/>
<circle cx="38.42" cy="106.38" class="residue-circle color-posterior_probability-10" r="2.3133749999999997"/>
<circle cx="34.43" cy="112.93" class="residue-circle color-posterior_probability-10" r="2.3133749999999997"/>
<circle cx="28.09" cy="116.71" class="residue-circle color-posterior_probability-10" r="2.3133749999999997"/>
<circle cx="20.11" cy="116.71" class="residue-circle color-posterior_probability-10" r="2.3133749999999997"/>
<circle cx="13.98" cy="112.93" class="residue-circle color-posterior_probability-10" r="2.3133749999999997"/>
<circle cx="10.0" cy="106.38" class="residue-circle color-posterior_probability-10" r="2.3133749999999997"/>
<circle cx="10.2" cy="98.82" class="residue-circle color-posterior_probability-10" r="2.3133749999999997"/>
<circle cx="13.57" cy="92.28" class="residue-circle color-posterior_probability-10" r="2.3133749999999997"/>
<circle cx="20.53" cy="88.5" class="residue-circle color-posterior_probability-0" r="2.3133749999999997"/>
<circle cx="27.88" cy="88.5" class="residue-circle color-posterior_probability-0" r="2.3133749999999997"/>
<circle cx="34.22" cy="92.28" class="residue-circle color-posterior_probability-0" r="2.3133749999999997"/>
<circle cx="38.0" cy="98.82" class="residue-circle color-posterior_probability-0" r="2.3133749999999997"/>
<circle cx="38.21" cy="91.26" class="residue-circle color-posterior_probability-0" r="2.3133749999999997"/>
<circle cx="38.42" cy="83.7" class="residue-circle color-posterior_probability-0" r="2.3133749999999997"/>
<circle cx="38.0" cy="76.14" class="residue-circle color-posterior_probability-0" r="2.3133749999999997"/>
<circle cx="32.41" cy="71.06" class="residue-circle color-posterior_probability-0" r="2.3133749999999997"/>
<circle cx="30.75" cy="63.79" class="residue-circle color-posterior_probability-0" r="2.3133749999999997"/>
<circle cx="32.82" cy="56.52" class="residue-circle color-posterior_probability-0" r="2.3133749999999997"/>
<circle cx="38.0" cy="51.43" class="residue-circle color-posterior_probability-0" r="2.3133749999999997"/>
<circle cx="38.0" cy="43.87" class="residue-circle color-posterior_probability-0" r="2.3133749999999997"/>
<circle cx="38.0" cy="36.31" class="residue-circle color-posterior_probability-10" r="2.3133749999999997"/>
<circle cx="38.21" cy="28.75" class="residue-circle color-posterior_probability-10" r="2.3133749999999997"/>
<circle cx="33.95" cy="22.509999999999998" class="residue-circle color-posterior_probability-10" r="2.3133749999999997"/>
<circle cx="35.09" cy="15.01" class="residue-circle color-posterior_probability-10" r="2.3133749999999997"/>
<circle cx="40.34" cy="10.0" class="residue-circle color-posterior_probability-10" r="2.3133749999999997"/>
<circle cx="48.11" cy="10.0" class="residue-circle color-posterior_probability-10" r="2.3133749999999997"/>
<circle cx="53.98" cy="15.01" class="residue-circle color-posterior_probability-10" r="2.3133749999999997"/>
<circle cx="54.71" cy="22.509999999999998" class="residue-circle color-posterior_probability-10" r="2.3133749999999997"/>
<circle cx="50.24" cy="28.75" class="residue-circle color-posterior_probability-10" r="2.3133749999999997"/>
<circle cx="50.45" cy="36.31" class="residue-circle color-posterior_probability-10" r="2.3133749999999997"/>
<circle cx="50.45" cy="43.87" class="residue-circle color-posterior_probability-10" r="2.3133749999999997"/>
<circle cx="50.45" cy="51.43" class="residue-circle color-posterior_probability-10" r="2.3133749999999997"/>
<circle cx="56.05" cy="56.52" class="residue-circle color-posterior_probability-10" r="2.3133749999999997"/>
<circle cx="58.12" cy="63.79" class="residue-circle color-posterior_probability-10" r="2.3133749999999997"/>
<circle cx="56.25" cy="71.06" class="residue-circle color-posterior_probability-10" r="2.3133749999999997"/>
<circle cx="50.45" cy="76.14" class="residue-circle color-posterior_probability-10" r="2.3133749999999997"/>
<circle cx="50.45" cy="83.7" class="residue-circle color-posterior_probability-10" r="2.3133749999999997"/>
<circle cx="50.24" cy="91.26" class="residue-circle color-posterior_probability-10" r="2.3133749999999997"/>
<circle cx="50.45" cy="98.82" class="residue-circle color-posterior_probability-10" r="2.3133749999999997"/>
<circle cx="50.45" cy="106.38" class="residue-circle color-posterior_probability-10" r="2.3133749999999997"/>
<circle cx="50.45" cy="113.94" class="residue-circle color-posterior_probability-10" r="2.3133749999999997"/>
<circle cx="50.45" cy="121.5" class="residue-circle color-posterior_probability-10" r="2.3133749999999997"/>
<circle cx="53.76" cy="128.4" class="residue-circle color-posterior_probability-10" r="2.3133749999999997"/>
<circle cx="50.45" cy="135.29000000000002" class="residue-circle color-posterior_probability-10" r="2.3133749999999997"/>
<circle cx="50.45" cy="142.85" class="residue-circle color-posterior_probability-10" r="2.3133749999999997"/>
<circle cx="50.45" cy="150.41" class="residue-circle color-posterior_probability-10" r="2.3133749999999997"/>
<circle cx="50.45" cy="157.97" class="residue-circle color-posterior_probability-10" r="2.3133749999999997"/>
<circle cx="55.69" cy="163.42" class="residue-circle color-posterior_probability-10" r="2.3133749999999997"/>
<circle cx="63.25" cy="163.42" class="residue-circle color-posterior_probability-10" r="2.3133749999999997"/>
<circle cx="70.81" cy="163.42" class="residue-circle color-posterior_probability-10" r="2.3133749999999997"/>
<circle cx="78.37" cy="163.42" class="residue-circle color-posterior_probability-10" r="2.3133749999999997"/>
<circle cx="85.93" cy="163.42" class="residue-circle" r="2.3133749999999997"/>
<g><title>Position: 0 (position.label in template: 0.5')</title><text x="10.19" y="163.53" class="text-green font" >5'</text></g>
<g><title>Position: 1 (position.label in template: 1.U)
Alignment accuracy: 10</title><text x="17.75" y="163.53" class="text-black font" >U</text></g>
<g><title>Position: 2 (position.label in template: 2.A)
Alignment accuracy: 10</title><text x="25.32" y="163.53" class="text-black font" >A</text></g>
<g><title>Position: 3 (position.label in template: 3.A)
Alignment accuracy: 10</title><text x="32.879999999999995" y="163.53" class="text-black font" >A</text></g>
<g><title>Position: 4 (position.label in template: 4.G)
Alignment accuracy: 10</title><text x="38.0" y="157.97" class="text-black font" >G</text></g>
<g><title>Position: 5 (position.label in template: 5.G)
Alignment accuracy: 10</title><text x="38.0" y="150.41" class="text-black font" >G</text></g>
<g><title>Position: 6 (position.label in template: 6.G)
Alignment accuracy: 10</title><text x="38.0" y="142.85" class="text-black font" >G</text></g>
<g><title>Position: 7 (position.label in template: 7.G)
Alignment accuracy: 10</title><text x="38.0" y="135.29000000000002" class="text-black font" >G</text></g>
<g><title>Position: 8 (position.label in template: 8.C)
Alignment accuracy: 10</title><text x="35.11" y="128.4" class="text-black font" >C</text></g>
<g><title>Position: 9 (position.label in template: 9.G)
Alignment accuracy: 10</title><text x="38.0" y="121.5" class="text-black font" >G</text></g>
<g><title>Position: 10 (position.label in template: 10.G)
Alignment accuracy: 10</title><text x="38.0" y="113.94" class="text-black font" >G</text></g>
<g><title>Position: 11 (position.label in template: 11.A)
Alignment accuracy: 10</title><text x="38.42" y="106.38" class="text-black font" >A</text></g>
<g><title>Position: 12 (position.label in template: 12.C)
Alignment accuracy: 10</title><text x="34.43" y="112.93" class="text-black font" >C</text></g>
<g><title>Position: 13 (position.label in template: 13.A)
Alignment accuracy: 10</title><text x="28.09" y="116.71" class="text-black font" >A</text></g>
<g><title>Position: 14 (position.label in template: 14.G)
Alignment accuracy: 10</title><text x="20.11" y="116.71" class="text-black font" >G</text></g>
<g><title>Position: 15 (position.label in template: 15.A)
Alignment accuracy: 10</title><text x="13.98" y="112.93" class="text-black font" >A</text></g>
<g><title>Position: 16 (position.label in template: 16.C)
Alignment accuracy: 10</title><text x="10.0" y="106.38" class="text-black font" >C</text></g>
<g><title>Position: 17 (position.label in template: 17.A)
Alignment accuracy: 10</title><text x="10.2" y="98.82" class="text-black font" >A</text></g>
<g><title>Position: 18 (position.label in template: 18.G)
Alignment accuracy: 10</title><text x="13.57" y="92.28" class="text-black font" >G</text></g>
<g><title>Position: 19 (position.label in template: 19.A)
Alignment accuracy: 0</title><text x="20.53" y="88.5" class="text-black font" >A</text></g>
<g><title>Position: 20 (position.label in template: 20.C)
Alignment accuracy: 0</title><text x="27.88" y="88.5" class="text-black font" >C</text></g>
<g><title>Position: 21 (position.label in template: 21.G)
Alignment accuracy: 0</title><text x="34.22" y="92.28" class="text-black font" >G</text></g>
<g><title>Position: 22 (position.label in template: 22.G)
Alignment accuracy: 0</title><text x="38.0" y="98.82" class="text-black font" >G</text></g>
<g><title>Position: 23 (position.label in template: 23.C)
Alignment accuracy: 0</title><text x="38.21" y="91.26" class="text-black font" >C</text></g>
<g><title>Position: 24 (position.label in template: 24.A)
Alignment accuracy: 0</title><text x="38.42" y="83.7" class="text-black font" >A</text></g>
<g><title>Position: 25 (position.label in template: 25.G)
Alignment accuracy: 0</title><text x="38.0" y="76.14" class="text-black font" >G</text></g>
<g><title>Position: 26 (position.label in template: 26.G)
Alignment accuracy: 0</title><text x="32.41" y="71.06" class="text-black font" >G</text></g>
<g><title>Position: 27 (position.label in template: 27.A)
Alignment accuracy: 0</title><text x="30.75" y="63.79" class="text-black font" >A</text></g>
<g><title>Position: 28 (position.label in template: 28.A)
Alignment accuracy: 0</title><text x="32.82" y="56.52" class="text-black font" >A</text></g>
<g><title>Position: 29 (position.label in template: 29.G)
Alignment accuracy: 0</title><text x="38.0" y="51.43" class="text-black font" >G</text></g>
<g><title>Position: 30 (position.label in template: 30.G)
Alignment accuracy: 0</title><text x="38.0" y="43.87" class="text-black font" >G</text></g>
<g><title>Position: 31 (position.label in template: 31.G)
Alignment accuracy: 10</title><text x="38.0" y="36.31" class="text-black font" >G</text></g>
<g><title>Position: 32 (position.label in template: 32.U)
Alignment accuracy: 10</title><text x="38.21" y="28.75" class="text-black font" >U</text></g>
<g><title>Position: 33 (position.label in template: 33.C)
Alignment accuracy: 10</title><text x="33.95" y="22.509999999999998" class="text-black font" >C</text></g>
<g><title>Position: 34 (position.label in template: 34.A)
Alignment accuracy: 10</title><text x="35.09" y="15.01" class="text-black font" >A</text></g>
<g><title>Position: 35 (position.label in template: 35.G)
Alignment accuracy: 10</title><text x="40.34" y="10.0" class="text-black font" >G</text></g>
<g><title>Position: 36 (position.label in template: 36.C)
Alignment accuracy: 10</title><text x="48.11" y="10.0" class="text-black font" >C</text></g>
<g><title>Position: 37 (position.label in template: 37.A)
Alignment accuracy: 10</title><text x="53.98" y="15.01" class="text-black font" >A</text></g>
<g><title>Position: 38 (position.label in template: 38.U)
Alignment accuracy: 10</title><text x="54.71" y="22.509999999999998" class="text-black font" >U</text></g>
<g><title>Position: 39 (position.label in template: 39.G)
Alignment accuracy: 10</title><text x="50.24" y="28.75" class="text-black font" >G</text></g>
<g><title>Position: 40 (position.label in template: 40.C)
Alignment accuracy: 10</title><text x="50.45" y="36.31" class="text-black font" >C</text></g>
<g><title>Position: 41 (position.label in template: 41.C)
Alignment accuracy: 10</title><text x="50.45" y="43.87" class="text-black font" >C</text></g>
<g><title>Position: 42 (position.label in template: 42.C)
Alignment accuracy: 10</title><text x="50.45" y="51.43" class="text-black font" >C</text></g>
<g><title>Position: 43 (position.label in template: 43.C)
Alignment accuracy: 10</title><text x="56.05" y="56.52" class="text-black font" >C</text></g>
<g><title>Position: 44 (position.label in template: 44.U)
Alignment accuracy: 10</title><text x="58.12" y="63.79" class="text-black font" >U</text></g>
<g><title>Position: 45 (position.label in template: 45.A)
Alignment accuracy: 10</title><text x="56.25" y="71.06" class="text-black font" >A</text></g>
<g><title>Position: 46 (position.label in template: 46.C)
Alignment accuracy: 10</title><text x="50.45" y="76.14" class="text-black font" >C</text></g>
<g><title>Position: 47 (position.label in template: 47.U)
Alignment accuracy: 10</title><text x="50.45" y="83.7" class="text-black font" >U</text></g>
<g><title>Position: 48 (position.label in template: 48.G)
Alignment accuracy: 10</title><text x="50.24" y="91.26" class="text-black font" >G</text></g>
<g><title>Position: 49 (position.label in template: 49.U)
Alignment accuracy: 10</title><text x="50.45" y="98.82" class="text-black font" >U</text></g>
<g><title>Position: 50 (position.label in template: 50.U)
Alignment accuracy: 10</title><text x="50.45" y="106.38" class="text-black font" >U</text></g>
<g><title>Position: 51 (position.label in template: 51.C)
Alignment accuracy: 10</title><text x="50.45" y="113.94" class="text-black font" >C</text></g>
<g><title>Position: 52 (position.label in template: 52.C)
Alignment accuracy: 10</title><text x="50.45" y="121.5" class="text-black font" >C</text></g>
<g><title>Position: 53 (position.label in template: 53.A)
Alignment accuracy: 10</title><text x="53.76" y="128.4" class="text-black font" >A</text></g>
<g><title>Position: 54 (position.label in template: 54.C)
Alignment accuracy: 10</title><text x="50.45" y="135.29000000000002" class="text-black font" >C</text></g>
<g><title>Position: 55 (position.label in template: 55.C)
Alignment accuracy: 10</title><text x="50.45" y="142.85" class="text-black font" >C</text></g>
<g><title>Position: 56 (position.label in template: 56.C)
Alignment accuracy: 10</title><text x="50.45" y="150.41" class="text-black font" >C</text></g>
<g><title>Position: 57 (position.label in template: 57.C)
Alignment accuracy: 10</title><text x="50.45" y="157.97" class="text-black font" >C</text></g>
<g><title>Position: 58 (position.label in template: 58.G)
Alignment accuracy: 10</title><text x="55.69" y="163.42" class="text-black font" >G</text></g>
<g><title>Position: 59 (position.label in template: 59.C)
Alignment accuracy: 10</title><text x="63.25" y="163.42" class="text-black font" >C</text></g>
<g><title>Position: 60 (position.label in template: 60.C)
Alignment accuracy: 10</title><text x="70.81" y="163.42" class="text-black font" >C</text></g>
<g><title>Position: 61 (position.label in template: 61.U)
Alignment accuracy: 10</title><text x="78.37" y="163.42" class="text-black font" >U</text></g>
<g><title>Position: 62 (position.label in template: 62.3')</title><text x="85.93" y="163.42" class="text-green font" >3'</text></g>
</g>
<g class="labels">
<g class="label">
<text x="31.06255098030723" y="113.74729308278631" class="font numbering-label sequential" >10</text>
<line x1="36.15001359169801" y1="113.88861148865828" x2="32.91325102493918" y2="113.79870141735944" class="numbering-line sequential" />
</g><g class="label">
<text x="29.727146316108293" y="81.8102028921898" class="font numbering-label sequential" >20</text>
<line x1="28.37257235177445" y1="86.71605410164227" x2="29.301309563691145" y2="83.35245292938313" class="numbering-line sequential" />
</g><g class="label">
<text x="31.059875011444092" y="43.870000000000005" class="font numbering-label sequential" >30</text>
<line x1="36.149300000000004" y1="43.870000000000005" x2="32.91057505607605" y2="43.870000000000005" class="numbering-line sequential" />
</g><g class="label">
<text x="57.390124988555904" y="106.38" class="font numbering-label sequential" >50</text>
<line x1="52.30069999999999" y1="106.38" x2="55.53942494392395" y2="106.38" class="numbering-line sequential" />
</g></g>

</svg>