<svg xmlns="http://www.w3.org/2000/svg" width="334.2" height="272.05724506030657">
<style type="text/css" >
<![CDATA[
.font { font-family: Helvetica; font-size: 3.060000px; font-weight: bold;  }
.numbering-line { stroke: rgb(204, 204, 204); stroke-width: 0.1913;  }
.bp-line { stroke-width: 0.3825;  }
.text-black { fill: rgb(0, 0, 0);  }
.text-red { fill: rgb(255, 0, 255);  }
.text-green { fill: rgb(0, 255, 0);  }
.text-blue { fill: rgb(0, 0, 255);  }
.text-gray { fill: rgb(204, 204, 204);  }
.text-brown { fill: rgb(211.65, 104.55, 30.6);  }
text { element-wise: True; fill: rgb(0, 0, 0); text-anchor: middle; dominant-baseline: middle;  }
.circle-black { stroke: rgb(0, 0, 0); fill: none;  }
.circle-red { stroke: rgb(255, 0, 255); fill: none;  }
.circle-green { stroke: rgb(0, 255, 0); fill: none;  }
.circle-blue { stroke: rgb(0, 0, 255); fill: none;  }
.circle-gray { stroke: rgb(204, 204, 204); fill: none;  }
.circle-brown { stroke: rgb(211.65, 104.55, 30.6); fill: none;  }
.circle { stroke: rgb(0, 0, 0);  }
.numbering-label { fill: rgb(204, 204, 204);  }
.numbering-line { stroke: rgb(204, 204, 204);  }
.template { visibility: hidden;  }
.bp-line { stroke: rgb(0, 0, 0);  }
.residue-circle { fill: rgb(255,255,255);  }
.res-line { stroke: rgb(204, 204, 204);  }
.color-posterior_probability-0 { fill: rgb(158, 189, 240);  }
.color-posterior_probability-10 { fill: rgb(255, 255, 255);  }
]]>
</style>

<g class="bps"><line x1="219.59" y1="239.93" x2="231.62" y2="239.93" class="bp-line" />
<line x1="219.38" y1="232.37" x2="231.83" y2="232.37" class="bp-line" />
<line x1="219.59" y1="224.81" x2="231.83" y2="224.81" class="bp-line" />
<line x1="219.38" y1="217.25" x2="231.83" y2="217.25" class="bp-line" />
<line x1="219.59" y1="209.69" x2="231.83" y2="209.69" class="bp-line" />
<line x1="219.8" y1="202.13" x2="231.83" y2="202.13" class="bp-line" />
<line x1="219.59" y1="194.57" x2="231.62" y2="194.57" class="bp-line" />
<line x1="219.38" y1="187.01" x2="231.83" y2="187.01" class="bp-line" />
</g>
<g class="residues"><line x1="10.0" y1="245.17" x2="17.56" y2="245.17" class="bp-line res-line" />
<line x1="17.56" y1="245.17" x2="25.119999999999997" y2="245.17" class="bp-line res-line" />
<line x1="25.119999999999997" y1="245.17" x2="32.68" y2="245.17" class="bp-line res-line" />
<line x1="32.68" y1="245.17" x2="40.239999999999995" y2="245.17" class="bp-line res-line" />
<line x1="40.239999999999995" y1="245.17" x2="47.8" y2="245.17" class="bp-line res-line" />
<line x1="47.8" y1="245.17" x2="55.36" y2="245.17" class="bp-line res-line" />
<line x1="55.36" y1="245.17" x2="62.93" y2="245.17" class="bp-line res-line" />
<line x1="62.93" y1="245.17" x2="70.49000000000001" y2="245.17" class="bp-line res-line" />
<line x1="70.49000000000001" y1="245.17" x2="78.05" y2="245.17" class="bp-line res-line" />
<line x1="78.05" y1="245.17" x2="85.61" y2="245.17" class="bp-line res-line" />
<line x1="85.61" y1="245.17" x2="93.17" y2="245.17" class="bp-line res-line" />
<line x1="93.17" y1="245.17" x2="100.73" y2="245.17" class="bp-line res-line" />
<line x1="100.73" y1="245.17" x2="108.29" y2="245.17" class="bp-line res-line" />
<line x1="108.29" y1="245.17" x2="115.85" y2="245.17" class="bp-line res-line" />
<line x1="115.85" y1="245.17" x2="123.41" y2="245.17" class="bp-line res-line" />
<line x1="123.41" y1="245.17" x2="130.97" y2="245.17" class="bp-line res-line" />
<line x1="130.97" y1="245.17" x2="138.53" y2="245.17" class="bp-line res-line" />
<line x1="138.53" y1="245.17" x2="146.09" y2="245.17" class="bp-line res-line" />
<line x1="146.09" y1="245.17" x2="153.66" y2="245.17" class="bp-line res-line" />
<line x1="153.66" y1="245.17" x2="161.22" y2="245.17" class="bp-line res-line" />
<line x1="161.22" y1="245.17" x2="168.78" y2="245.17" class="bp-line res-line" />
<line x1="168.78" y1="245.17" x2="176.34" y2="245.17" class="bp-line res-line" />
<line x1="176.34" y1="245.17" x2="183.9" y2="245.17" class="bp-line res-line" />
<line x1="183.9" y1="245.17" x2="191.46" y2="245.17" class="bp-line res-line" />
<line x1="191.46" y1="245.17" x2="199.02" y2="245.17" class="bp-line res-line" />
<line x1="199.02" y1="245.17" x2="206.58" y2="245.17" class="bp-line res-line" />
<line x1="206.58" y1="245.17" x2="214.14" y2="245.17" class="bp-line res-line" />
<line x1="214.14" y1="245.17" x2="219.59" y2="239.93" class="bp-line res-line" />
<line x1="219.59" y1="239.93" x2="219.38" y2="232.37" class="bp-line res-line" />
<line x1="219.38" y1="232.37" x2="219.59" y2="224.81" class="bp-line res-line" />
<line x1="219.59" y1="224.81" x2="219.38" y2="217.25" class="bp-line res-line" />
<line x1="219.38" y1="217.25" x2="219.59" y2="209.69" class="bp-line res-line" />
<line x1="219.59" y1="209.69" x2="219.8" y2="202.13" class="bp-line res-line" />
<line x1="219.8" y1="202.13" x2="219.59" y2="194.57" class="bp-line res-line" />
<line x1="219.59" y1="194.57" x2="219.38" y2="187.01" class="bp-line res-line" />
<line x1="219.38" y1="187.01" x2="212.08" y2="186.16" class="bp-line res-line" />
<line x1="212.08" y1="186.16" x2="204.45" y2="184.68" class="bp-line res-line" />
<line x1="204.45" y1="184.68" x2="197.4" y2="182.58" class="bp-line res-line" />
<line x1="197.4" y1="182.58" x2="190.14" y2="179.86" class="bp-line res-line" />
<line x1="190.14" y1="179.86" x2="183.55" y2="176.55" class="bp-line res-line" />
<line x1="183.55" y1="176.55" x2="176.85" y2="172.67" class="bp-line res-line" />
<line x1="176.85" y1="172.67" x2="170.93" y2="168.25" class="bp-line res-line" />
<line x1="170.93" y1="168.25" x2="164.98" y2="163.33" class="bp-line res-line" />
<line x1="164.98" y1="163.33" x2="159.89" y2="157.94" class="bp-line res-line" />
<line x1="159.89" y1="157.94" x2="154.87" y2="152.11" class="bp-line res-line" />
<line x1="154.87" y1="152.11" x2="150.77" y2="145.89" class="bp-line res-line" />
<line x1="150.77" y1="145.89" x2="146.8" y2="139.33" class="bp-line res-line" />
<line x1="146.8" y1="139.33" x2="143.83" y2="132.48000000000002" class="bp-line res-line" />
<line x1="143.83" y1="132.48000000000002" x2="141.45" y2="125.37" class="bp-line res-line" />
<line x1="141.45" y1="125.37" x2="139.27" y2="118.08" class="bp-line res-line" />
<line x1="139.27" y1="118.08" x2="137.70999999999998" y2="110.64" class="bp-line res-line" />
<line x1="137.70999999999998" y1="110.64" x2="137.22" y2="103.11" class="bp-line res-line" />
<line x1="137.22" y1="103.11" x2="136.95" y2="95.55" class="bp-line res-line" />
<line x1="136.95" y1="95.55" x2="137.74" y2="88.01" class="bp-line res-line" />
<line x1="137.74" y1="88.01" x2="138.75" y2="80.55" class="bp-line res-line" />
<line x1="138.75" y1="80.55" x2="140.82" y2="73.22" class="bp-line res-line" />
<line x1="140.82" y1="73.22" x2="143.08" y2="66.08" class="bp-line res-line" />
<line x1="143.08" y1="66.08" x2="146.36" y2="59.17" class="bp-line res-line" />
<line x1="146.36" y1="59.17" x2="149.81" y2="52.55" class="bp-line res-line" />
<line x1="149.81" y1="52.55" x2="154.22" y2="46.27" class="bp-line res-line" />
<line x1="154.22" y1="46.27" x2="158.73" y2="40.36" class="bp-line res-line" />
<line x1="158.73" y1="40.36" x2="164.15" y2="34.879999999999995" class="bp-line res-line" />
<line x1="164.15" y1="34.879999999999995" x2="170.01" y2="29.87" class="bp-line res-line" />
<line x1="170.01" y1="29.87" x2="175.87" y2="25.35" class="bp-line res-line" />
<line x1="175.87" y1="25.35" x2="182.08" y2="21.369999999999997" class="bp-line res-line" />
<line x1="182.08" y1="21.369999999999997" x2="189.04" y2="17.95" class="bp-line res-line" />
<line x1="189.04" y1="17.95" x2="195.84" y2="15.120000000000001" class="bp-line res-line" />
<line x1="195.84" y1="15.120000000000001" x2="203.27" y2="12.89" class="bp-line res-line" />
<line x1="203.27" y1="12.89" x2="210.45" y2="11.29" class="bp-line res-line" />
<line x1="210.45" y1="11.29" x2="218.16" y2="10.33" class="bp-line res-line" />
<line x1="218.16" y1="10.33" x2="225.5" y2="10.0" class="bp-line res-line" />
<line x1="225.5" y1="10.0" x2="233.26" y2="10.33" class="bp-line res-line" />
<line x1="233.26" y1="10.33" x2="240.55" y2="11.29" class="bp-line res-line" />
<line x1="240.55" y1="11.29" x2="248.15" y2="12.89" class="bp-line res-line" />
<line x1="248.15" y1="12.89" x2="255.17" y2="15.120000000000001" class="bp-line res-line" />
<line x1="255.17" y1="15.120000000000001" x2="262.38" y2="17.95" class="bp-line res-line" />
<line x1="262.38" y1="17.95" x2="268.92" y2="21.369999999999997" class="bp-line res-line" />
<line x1="268.92" y1="21.369999999999997" x2="275.55" y2="25.35" class="bp-line res-line" />
<line x1="275.55" y1="25.35" x2="281.41" y2="29.87" class="bp-line res-line" />
<line x1="281.41" y1="29.87" x2="287.27" y2="34.879999999999995" class="bp-line res-line" />
<line x1="287.27" y1="34.879999999999995" x2="292.27" y2="40.36" class="bp-line res-line" />
<line x1="292.27" y1="40.36" x2="297.2" y2="46.27" class="bp-line res-line" />
<line x1="297.2" y1="46.27" x2="301.2" y2="52.55" class="bp-line res-line" />
<line x1="301.2" y1="52.55" x2="305.06" y2="59.17" class="bp-line res-line" />
<line x1="305.06" y1="59.17" x2="308.34" y2="66.08" class="bp-line res-line" />
<line x1="308.34" y1="66.08" x2="310.6" y2="73.22" class="bp-line res-line" />
<line x1="310.6" y1="73.22" x2="312.25" y2="80.55" class="bp-line res-line" />
<line x1="312.25" y1="80.55" x2="313.68" y2="88.01" class="bp-line res-line" />
<line x1="313.68" y1="88.01" x2="314.05" y2="95.55" class="bp-line res-line" />
<line x1="314.05" y1="95.55" x2="314.2" y2="103.11" class="bp-line res-line" />
<line x1="314.2" y1="103.11" x2="313.29" y2="110.64" class="bp-line res-line" />
<line x1="313.29" y1="110.64" x2="312.15" y2="118.08" class="bp-line res-line" />
<line x1="312.15" y1="118.08" x2="309.97" y2="125.37" class="bp-line res-line" />
<line x1="309.97" y1="125.37" x2="307.59" y2="132.48000000000002" class="bp-line res-line" />
<line x1="307.59" y1="132.48000000000002" x2="304.2" y2="139.33" class="bp-line res-line" />
<line x1="304.2" y1="139.33" x2="300.65" y2="145.89" class="bp-line res-line" />
<line x1="300.65" y1="145.89" x2="296.13" y2="152.11" class="bp-line res-line" />
<line x1="296.13" y1="152.11" x2="291.53" y2="157.94" class="bp-line res-line" />
<line x1="291.53" y1="157.94" x2="286.44" y2="163.33" class="bp-line res-line" />
<line x1="286.44" y1="163.33" x2="280.7" y2="168.25" class="bp-line res-line" />
<line x1="280.7" y1="168.25" x2="274.15" y2="172.67" class="bp-line res-line" />
<line x1="274.15" y1="172.67" x2="267.87" y2="176.55" class="bp-line res-line" />
<line x1="267.87" y1="176.55" x2="260.86" y2="179.86" class="bp-line res-line" />
<line x1="260.86" y1="179.86" x2="254.02" y2="182.58" class="bp-line res-line" />
<line x1="254.02" y1="182.58" x2="246.55" y2="184.68" class="bp-line res-line" />
<line x1="246.55" y1="184.68" x2="239.34" y2="186.16" class="bp-line res-line" />
<line x1="239.34" y1="186.16" x2="231.83" y2="187.01" class="bp-line res-line" />
<line x1="231.83" y1="187.01" x2="231.62" y2="194.57" class="bp-line res-line" />
<line x1="231.62" y1="194.57" x2="231.83" y2="202.13" class="bp-line res-line" />
<line x1="231.83" y1="202.13" x2="231.83" y2="209.69" class="bp-line res-line" />
<line x1="231.83" y1="209.69" x2="231.83" y2="217.25" class="bp-line res-line" />
<line x1="231.83" y1="217.25" x2="231.83" y2="224.81" class="bp-line res-line" />
<line x1="231.83" y1="224.81" x2="231.83" y2="232.37" class="bp-line res-line" />
<line x1="231.83" y1="232.37" x2="231.62" y2="239.93" class="bp-line res-line" />
<line x1="231.62" y1="239.93" x2="238.86" y2="237.76" class="bp-line res-line" />
<circle cx="10.0" cy="245.17" class="residue-circle" r="2.295"/>
<circle cx="17.56" cy="245.17" class="residue-circle color-posterior_probability-10" r="2.295"/>
<circle cx="25.119999999999997" cy="245.17" class="residue-circle color-posterior_probability-10" r="2.295"/>
<circle cx="32.68" cy="245.17" class="residue-circle color-posterior_probability-10" r="2.295"/>
<circle cx="40.239999999999995" cy="245.17" class="residue-circle color-posterior_probability-10" r="2.295"/>
<circle cx="47.8" cy="245.17" class="residue-circle color-posterior_probability-10" r="2.295"/>
<circle cx="55.36" cy="245.17" class="residue-circle color-posterior_probability-10" r="2.295"/>
<circle cx="62.93" cy="245.17" class="residue-circle color-posterior_probability-10" r="2.295"/>
<circle cx="70.49000000000001" cy="245.17" class="residue-circle color-posterior_probability-10" r="2.295"/>
<circle cx="78.05" cy="245.17" class="residue-circle color-posterior_probability-10" r="2.295"/>
<circle cx="85.61" cy="245.17" class="residue-circle color-posterior_probability-10" r="2.295"/>
<circle cx="93.17" cy="245.17" class="residue-circle color-posterior_probability-10" r="2.295"/>
<circle cx="100.73" cy="245.17" class="residue-circle color-posterior_probability-10" r="2.295"/>
<circle cx="108.29" cy="245.17" class="residue-circle color-posterior_probability-10" r="2.295"/>
<circle cx="115.85" cy="245.17" class="residue-circle color-posterior_probability-10" r="2.295"/>
<circle cx="123.41" cy="245.17" class="residue-circle color-posterior_probability-10" r="2.295"/>
<circle cx="130.97" cy="245.17" class="residue-circle color-posterior_probability-10" r="2.295"/>
<circle cx="138.53" cy="245.17" class="residue-circle color-posterior_probability-10" r="2.295"/>
<circle cx="146.09" cy="245.17" class="residue-circle color-posterior_probability-10" r="2.295"/>
<circle cx="153.66" cy="245.17" class="residue-circle color-posterior_probability-10" r="2.295"/>
<circle cx="161.22" cy="245.17" class="residue-circle color-posterior_probability-10" r="2.295"/>
<circle cx="168.78" cy="245.17" class="residue-circle color-posterior_probability-10" r="2.295"/>
<circle cx="176.34" cy="245.17" class="residue-circle color-posterior_probability-10" r="2.295"/>
<circle cx="183.9" cy="245.17" class="residue-circle color-posterior_probability-10" r="2.295"/>
<circle cx="191.46" cy="245.17" class="residue-circle color-posterior_probability-10" r="2.295"/>
<circle cx="199.02" cy="245.17" class="residue-circle color-posterior_probability-10" r="2.295"/>
<circle cx="206.58" cy="245.17" class="residue-circle color-posterior_probability-10" r="2.295"/>
<circle cx="214.14" cy="245.17" class="residue-circle color-posterior_probability-10" r="2.295"/>
<circle cx="219.59" cy="239.93" class="residue-circle color-posterior_probability-10" r="2.295"/>
<circle cx="219.38" cy="232.37" class="residue-circle color-posterior_probability-10" r="2.295"/>
<circle cx="219.59" cy="224.81" class="residue-circle color-posterior_probability-10" r="2.295"/>
<circle cx="219.38" cy="217.25" class="residue-circle color-posterior_probability-10" r="2.295"/>
<circle cx="219.59" cy="209.69" class="residue-circle color-posterior_probability-10" r="2.295"/>
<circle cx="219.8" cy="202.13" class="residue-circle color-posterior_probability-0" r="2.295"/>
<circle cx="219.59" cy="194.57" class="residue-circle color-posterior_probability-0" r="2.295"/>
<circle cx="219.38" cy="187.01" class="residue-circle color-posterior_probability-0" r="2.295"/>
<circle cx="212.08" cy="186.16" class="residue-circle color-posterior_probability-0" r="2.295"/>
<circle cx="204.45" cy="184.68" class="residue-circle color-posterior_probability-0" r="2.295"/>
<circle cx="197.4" cy="182.58" class="residue-circle color-posterior_probability-0" r="2.295"/>
<circle cx="190.14" cy="179.86" class="residue-circle color-posterior_probability-0" r="2.295"/>
<circle cx="183.55" cy="176.55" class="residue-circle color-posterior_probability-0" r="2.295"/>
<circle cx="176.85" cy="172.67" class="residue-circle color-posterior_probability-0" r="2.295"/>
<circle cx="170.93" cy="168.25" class="residue-circle color-posterior_probability-0" r="2.295"/>
<circle cx="164.98" cy="163.33" class="residue-circle color-posterior_probability-0" r="2.295"/>
<circle cx="159.89" cy="157.94" class="residue-circle color-posterior_probability-10" r="2.295"/>
<circle cx="154.87" cy="152.11" class="residue-circle color-posterior_probability-10" r="2.295"/>
<circle cx="150.77" cy="145.89" class="residue-circle color-posterior_probability-10" r="2.295"/>
<circle cx="146.8" cy="139.33" class="residue-circle color-posterior_probability-10" r="2.295"/>
<circle cx="143.83" cy="132.48000000000002" class="residue-circle color-posterior_probability-10" r="2.295"/>
<circle cx="141.45" cy="125.37" class="residue-circle color-posterior_probability-10" r="2.295"/>
<circle cx="139.27" cy="118.08" class="residue-circle color-posterior_probability-10" r="2.295"/>
<circle cx="137.70999999999998" cy="110.64" class="residue-circle color-posterior_probability-10" r="2.295"/>
<circle cx="137.22" cy="103.11" class="residue-circle color-posterior_probability-10" r="2.295"/>
<circle cx="136.95" cy="95.55" class="residue-circle color-posterior_probability-10" r="2.295"/>
<circle cx="137.74" cy="88.01" class="residue-circle color-posterior_probability-10" r="2.295"/>
<circle cx="138.75" cy="80.55" class="residue-circle color-posterior_probability-10" r="2.295"/>
<circle cx="140.82" cy="73.22" class="residue-circle color-posterior_probability-10" r="2.295"/>
<circle cx="143.08" cy="66.08" class="residue-circle color-posterior_probability-10" r="2.295"/>
<circle cx="146.36" cy="59.17" class="residue-circle color-posterior_probability-10" r="2.295"/>
<circle cx="149.81" cy="52.55" class="residue-circle color-posterior_probability-10" r="2.295"/>
<circle cx="154.22" cy="46.27" class="residue-circle color-posterior_probability-10" r="2.295"/>
<circle cx="158.73" cy="40.36" class="residue-circle color-posterior_probability-10" r="2.295"/>
<circle cx="164.15" cy="34.879999999999995" class="residue-circle color-posterior_probability-10" r="2.295"/>
<circle cx="170.01" cy="29.87" class="residue-circle color-posterior_probability-10" r="2.295"/>
<circle cx="175.87" cy="25.35" class="residue-circle color-posterior_probability-10" r="2.295"/>
<circle cx="182.08" cy="21.369999999999997" class="residue-circle color-posterior_probability-10" r="2.295"/>
<circle cx="189.04" cy="17.95" class="residue-circle color-posterior_probability-10" r="2.295"/>
<circle cx="195.84" cy="15.120000000000001" class="residue-circle color-posterior_probability-10" r="2.295"/>
<circle cx="203.27" cy="12.89" class="residue-circle color-posterior_probability-10" r="2.295"/>
<circle cx="210.45" cy="11.29" class="residue-circle color-posterior_probability-10" r="2.295"/>
<circle cx="218.16" cy="10.33" class="residue-circle color-posterior_probability-10" r="2.295"/>
<circle cx="225.5" cy="10.0" class="residue-circle color-posterior_probability-10" r="2.295"/>
<circle cx="233.26" cy="10.33" class="residue-circle color-posterior_probability-10" r="2.295"/>
<circle cx="240.55" cy="11.29" class="residue-circle color-posterior_probability-10" r="2.295"/>
<circle cx="248.15" cy="12.89" class="residue-circle color-posterior_probability-10" r="2.295"/>
<circle cx="255.17" cy="15.120000000000001" class="residue-circle color-posterior_probability-10" r="2.295"/>
<circle cx="262.38" cy="17.95" class="residue-circle color-posterior_probability-10" r="2.295"/>
<circle cx="268.92" cy="21.369999999999997" class="residue-circle color-posterior_probability-10" r="2.295"/>
<circle cx="275.55" cy="25.35" class="residue-circle color-posterior_probability-10" r="2.295"/>
<circle cx="281.41" cy="29.87" class="residue-circle color-posterior_probability-10" r="2.295"/>
<circle cx="287.27" cy="34.879999999999995" class="residue-circle color-posterior_probability-10" r="2.295"/>
<circle cx="292.27" cy="40.36" class="residue-circle color-posterior_probability-10" r="2.295"/>
<circle cx="297.2" cy="46.27" class="residue-circle color-posterior_probability-10" r="2.295"/>
<circle cx="301.2" cy="52.55" class="residue-circle color-posterior_probability-10" r="2.295"/>
<circle cx="305.06" cy="59.17" class="residue-circle color-posterior_probability-10" r="2.295"/>
<circle cx="308.34" cy="66.08" class="residue-circle color-posterior_probability-0" r="2.295"/>
<circle cx="310.6" cy="73.22" class="residue-circle color-posterior_probability-0" r="2.295"/>
<circle cx="312.25" cy="80.55" class="residue-circle color-posterior_probability-0" r="2.295"/>
<circle cx="313.68" cy="88.01" class="residue-circle color-posterior_probability-0" r="2.295"/>
<circle cx="314.05" cy="95.55" class="residue-circle color-posterior_probability-0" r="2.295"/>
<circle cx="314.2" cy="103.11" class="residue-circle color-posterior_probability-0" r="2.295"/>
<circle cx="313.29" cy="110.64" class="residue-circle color-posterior_probability-0" r="2.295"/>
<circle cx="312.15" cy="118.08" class="residue-circle color-posterior_probability-0" r="2.295"/>
<circle cx="309.97" cy="125.37" class="residue-circle color-posterior_probability-0" r="2.295"/>
<circle cx="307.59" cy="132.48000000000002" class="residue-circle color-posterior_probability-0" r="2.295"/>
<circle cx="304.2" cy="139.33" class="residue-circle color-posterior_probability-0" r="2.295"/>
<circle cx="300.65" cy="145.89" class="residue-circle color-posterior_probability-10" r="2.295"/>
<circle cx="296.13" cy="152.11" class="residue-circle color-posterior_probability-10" r="2.295"/>
<circle cx="291.53" cy="157.94" class="residue-circle color-posterior_probability-10" r="2.295"/>
<circle cx="286.44" cy="163.33" class="residue-circle color-posterior_probability-10" r="2.295"/>
<circle cx="280.7" cy="168.25" class="residue-circle color-posterior_probability-10" r="2.295"/>
<circle cx="274.15" cy="172.67" class="residue-circle color-posterior_probability-10" r="2.295"/>
<circle cx="267.87" cy="176.55" class="residue-circle color-posterior_probability-10" r="2.295"/>
<circle cx="260.86" cy="179.86" class="residue-circle color-posterior_probability-10" r="2.295"/>
<circle cx="254.02" cy="182.58" class="residue-circle color-posterior_probability-10" r="2.295"/>
<circle cx="246.55" cy="184.68" class="residue-circle color-posterior_probability-10" r="2.295"/>
<circle cx="239.34" cy="186.16" class="residue-circle color-posterior_probability-10" r="2.295"/>
<circle cx="231.83" cy="187.01" class="residue-circle color-posterior_probability-10" r="2.295"/>
<circle cx="231.62" cy="194.57" class="residue-circle color-posterior_probability-10" r="2.295"/>
<circle cx="231.83" cy="202.13" class="residue-circle color-posterior_probability-10" r="2.295"/>
<circle cx="231.83" cy="209.69" class="residue-circle color-posterior_probability-10" r="2.295"/>
<circle cx="231.83" cy="217.25" class="residue-circle color-posterior_probability-10" r="2.295"/>
<circle cx="231.83" cy="224.81" class="residue-circle color-posterior_probability-10" r="2.295"/>
<circle cx="231.83" cy="232.37" class="residue-circle color-posterior_probability-10" r="2.295"/>
<circle cx="231.62" cy="239.93" class="residue-circle color-posterior_probability-10" r="2.295"/>
<circle cx="238.86" cy="237.76" class="residue-circle" r="2.295"/>
<g><title>Position: 0 (position.label in template: 0.5')</title><text x="10.0" y="245.17" class="text-green font" >5'</text></g>
<g><title>Position: 1 (position.label in template: 1.G)
Alignment accuracy: 10</title><text x="17.56" y="245.17" class="text-black font" >G</text></g>
<g><title>Position: 2 (position.label in template: 2.U)
Alignment accuracy: 10</title><text x="25.119999999999997" y="245.17" class="text-black font" >U</text></g>
<g><title>Position: 3 (position.label in template: 3.G)
Alignment accuracy: 10</title><text x="32.68" y="245.17" class="text-black font" >G</text></g>
<g><title>Position: 4 (position.label in template: 4.U)
Alignment accuracy: 10</title><text x="40.239999999999995" y="245.17" class="text-black font" >U</text></g>
<g><title>Position: 5 (position.label in template: 5.G)
Alignment accuracy: 10</title><text x="47.8" y="245.17" class="text-black font" >G</text></g>
<g><title>Position: 6 (position.label in template: 6.U)
Alignment accuracy: 10</title><text x="55.36" y="245.17" class="text-black font" >U</text></g>
<g><title>Position: 7 (position.label in template: 7.G)
Alignment accuracy: 10</title><text x="62.93" y="245.17" class="text-black font" >G</text></g>
<g><title>Position: 8 (position.label in template: 8.U)
Alignment accuracy: 10</title><text x="70.49000000000001" y="245.17" class="text-black font" >U</text></g>
<g><title>Position: 9 (position.label in template: 9.G)
Alignment accuracy: 10</title><text x="78.05" y="245.17" class="text-black font" >G</text></g>
<g><title>Position: 10 (position.label in template: 10.U)
Alignment accuracy: 10</title><text x="85.61" y="245.17" class="text-black font" >U</text></g>
<g><title>Position: 11 (position.label in template: 11.G)
Alignment accuracy: 10</title><text x="93.17" y="245.17" class="text-black font" >G</text></g>
<g><title>Position: 12 (position.label in template: 12.U)
Alignment accuracy: 10</title><text x="100.73" y="245.17" class="text-black font" >U</text></g>
<g><title>Position: 13 (position.label in template: 13.G)
Alignment accuracy: 10</title><text x="108.29" y="245.17" class="text-black font" >G</text></g>
<g><title>Position: 14 (position.label in template: 14.U)
Alignment accuracy: 10</title><text x="115.85" y="245.17" class="text-black font" >U</text></g>
<g><title>Position: 15 (position.label in template: 15.G)
Alignment accuracy: 10</title><text x="123.41" y="245.17" class="text-black font" >G</text></g>
<g><title>Position: 16 (position.label in template: 16.U)
Alignment accuracy: 10</title><text x="130.97" y="245.17" class="text-black font" >U</text></g>
<g><title>Position: 17 (position.label in template: 17.G)
Alignment accuracy: 10</title><text x="138.53" y="245.17" class="text-black font" >G</text></g>
<g><title>Position: 18 (position.label in template: 18.U)
Alignment accuracy: 10</title><text x="146.09" y="245.17" class="text-black font" >U</text></g>
<g><title>Position: 19 (position.label in template: 19.G)
Alignment accuracy: 10</title><text x="153.66" y="245.17" class="text-black font" >G</text></g>
<g><title>Position: 20 (position.label in template: 20.U)
Alignment accuracy: 10</title><text x="161.22" y="245.17" class="text-black font" >U</text></g>
<g><title>Position: 21 (position.label in template: 21.G)
Alignment accuracy: 10</title><text x="168.78" y="245.17" class="text-black font" >G</text></g>
<g><title>Position: 22 (position.label in template: 22.U)
Alignment accuracy: 10</title><text x="176.34" y="245.17" class="text-black font" >U</text></g>
<g><title>Position: 23 (position.label in template: 23.G)
Alignment accuracy: 10</title><text x="183.9" y="245.17" class="text-black font" >G</text></g>
<g><title>Position: 24 (position.label in template: 24.U)
Alignment accuracy: 10</title><text x="191.46" y="245.17" class="text-black font" >U</text></g>
<g><title>Position: 25 (position.label in template: 25.G)
Alignment accuracy: 10</title><text x="199.02" y="245.17" class="text-black font" >G</text></g>
<g><title>Position: 26 (position.label in template: 26.U)
Alignment accuracy: 10</title><text x="206.58" y="245.17" class="text-black font" >U</text></g>
<g><title>Position: 27 (position.label in template: 27.G)
Alignment accuracy: 10</title><text x="214.14" y="245.17" class="text-black font" >G</text></g>
<g><title>Position: 28 (position.label in template: 28.U)
Alignment accuracy: 10</title><text x="219.59" y="239.93" class="text-black font" >U</text></g>
<g><title>Position: 29 (position.label in template: 29.G)
Alignment accuracy: 10</title><text x="219.38" y="232.37" class="text-black font" >G</text></g>
<g><title>Position: 30 (position.label in template: 30.U)
Alignment accuracy: 10</title><text x="219.59" y="224.81" class="text-black font" >U</text></g>
<g><title>Position: 31 (position.label in template: 31.G)
Alignment accuracy: 10</title><text x="219.38" y="217.25" class="text-black font" >G</text></g>
<g><title>Position: 32 (position.label in template: 32.C)
Alignment accuracy: 10</title><text x="219.59" y="209.69" class="text-black font" >C</text></g>
<g><title>Position: 33 (position.label in template: 33.A)
Alignment accuracy: 0</title><text x="219.8" y="202.13" class="text-black font" >A</text></g>
<g><title>Position: 34 (position.label in template: 34.U)
Alignment accuracy: 0</title><text x="219.59" y="194.57" class="text-black font" >U</text></g>
<g><title>Position: 35 (position.label in template: 35.G)
Alignment accuracy: 0</title><text x="219.38" y="187.01" class="text-black font" >G</text></g>
<g><title>Position: 36 (position.label in template: 36.U)
Alignment accuracy: 0</title><text x="212.08" y="186.16" class="text-black font" >U</text></g>
<g><title>Position: 37 (position.label in template: 37.G)
Alignment accuracy: 0</title><text x="204.45" y="184.68" class="text-black font" >G</text></g>
<g><title>Position: 38 (position.label in template: 38.U)
Alignment accuracy: 0</title><text x="197.4" y="182.58" class="text-black font" >U</text></g>
<g><title>Position: 39 (position.label in template: 39.G)
Alignment accuracy: 0</title><text x="190.14" y="179.86" class="text-black font" >G</text></g>
<g><title>Position: 40 (position.label in template: 40.U)
Alignment accuracy: 0</title><text x="183.55" y="176.55" class="text-black font" >U</text></g>
<g><title>Position: 41 (position.label in template: 41.G)
Alignment accuracy: 0</title><text x="176.85" y="172.67" class="text-black font" >G</text></g>
<g><title>Position: 42 (position.label in template: 42.U)
Alignment accuracy: 0</title><text x="170.93" y="168.25" class="text-black font" >U</text></g>
<g><title>Position: 43 (position.label in template: 43.G)
Alignment accuracy: 0</title><text x="164.98" y="163.33" class="text-black font" >G</text></g>
<g><title>Position: 44 (position.label in template: 44.U)
Alignment accuracy: 10</title><text x="159.89" y="157.94" class="text-black font" >U</text></g>
<g><title>Position: 45 (position.label in template: 45.G)
Alignment accuracy: 10</title><text x="154.87" y="152.11" class="text-black font" >G</text></g>
<g><title>Position: 46 (position.label in template: 46.U)
Alignment accuracy: 10</title><text x="150.77" y="145.89" class="text-black font" >U</text></g>
<g><title>Position: 47 (position.label in template: 47.G)
Alignment accuracy: 10</title><text x="146.8" y="139.33" class="text-black font" >G</text></g>
<g><title>Position: 48 (position.label in template: 48.C)
Alignment accuracy: 10</title><text x="143.83" y="132.48000000000002" class="text-black font" >C</text></g>
<g><title>Position: 49 (position.label in template: 49.A)
Alignment accuracy: 10</title><text x="141.45" y="125.37" class="text-black font" >A</text></g>
<g><title>Position: 50 (position.label in template: 50.U)
Alignment accuracy: 10</title><text x="139.27" y="118.08" class="text-black font" >U</text></g>
<g><title>Position: 51 (position.label in template: 51.G)
Alignment accuracy: 10</title><text x="137.70999999999998" y="110.64" class="text-black font" >G</text></g>
<g><title>Position: 52 (position.label in template: 52.U)
Alignment accuracy: 10</title><text x="137.22" y="103.11" class="text-black font" >U</text></g>
<g><title>Position: 53 (position.label in template: 53.G)
Alignment accuracy: 10</title><text x="136.95" y="95.55" class="text-black font" >G</text></g>
<g><title>Position: 54 (position.label in template: 54.U)
Alignment accuracy: 10</title><text x="137.74" y="88.01" class="text-black font" >U</text></g>
<g><title>Position: 55 (position.label in template: 55.G)
Alignment accuracy: 10</title><text x="138.75" y="80.55" class="text-black font" >G</text></g>
<g><title>Position: 56 (position.label in template: 56.U)
Alignment accuracy: 10</title><text x="140.82" y="73.22" class="text-black font" >U</text></g>
<g><title>Position: 57 (position.label in template: 57.G)
Alignment accuracy: 10</title><text x="143.08" y="66.08" class="text-black font" >G</text></g>
<g><title>Position: 58 (position.label in template: 58.U)
Alignment accuracy: 10</title><text x="146.36" y="59.17" class="text-black font" >U</text></g>
<g><title>Position: 59 (position.label in template: 59.G)
Alignment accuracy: 10</title><text x="149.81" y="52.55" class="text-black font" >G</text></g>
<g><title>Position: 60 (position.label in template: 60.U)
Alignment accuracy: 10</title><text x="154.22" y="46.27" class="text-black font" >U</text></g>
<g><title>Position: 61 (position.label in template: 61.G)
Alignment accuracy: 10</title><text x="158.73" y="40.36" class="text-black font" >G</text></g>
<g><title>Position: 62 (position.label in template: 62.C)
Alignment accuracy: 10</title><text x="164.15" y="34.879999999999995" class="text-black font" >C</text></g>
<g><title>Position: 63 (position.label in template: 63.A)
Alignment accuracy: 10</title><text x="170.01" y="29.87" class="text-black font" >A</text></g>
<g><title>Position: 64 (position.label in template: 64.U)
Alignment accuracy: 10</title><text x="175.87" y="25.35" class="text-black font" >U</text></g>
<g><title>Position: 65 (position.label in template: 65.G)
Alignment accuracy: 10</title><text x="182.08" y="21.369999999999997" class="text-black font" >G</text></g>
<g><title>Position: 66 (position.label in template: 66.U)
Alignment accuracy: 10</title><text x="189.04" y="17.95" class="text-black font" >U</text></g>
<g><title>Position: 67 (position.label in template: 67.G)
Alignment accuracy: 10</title><text x="195.84" y="15.120000000000001" class="text-black font" >G</text></g>
<g><title>Position: 68 (position.label in template: 68.U)
Alignment accuracy: 10</title><text x="203.27" y="12.89" class="text-black font" >U</text></g>
<g><title>Position: 69 (position.label in template: 69.G)
Alignment accuracy: 10</title><text x="210.45" y="11.29" class="text-black font" >G</text></g>
<g><title>Position: 70 (position.label in template: 70.U)
Alignment accuracy: 10</title><text x="218.16" y="10.33" class="text-black font" >U</text></g>
<g><title>Position: 71 (position.label in template: 71.G)
Alignment accuracy: 10</title><text x="225.5" y="10.0" class="text-black font" >G</text></g>
<g><title>Position: 72 (position.label in template: 72.U)
Alignment accuracy: 10</title><text x="233.26" y="10.33" class="text-black font" >U</text></g>
<g><title>Position: 73 (position.label in template: 73.G)
Alignment accuracy: 10</title><text x="240.55" y="11.29" class="text-black font" >G</text></g>
<g><title>Position: 74 (position.label in template: 74.U)
Alignment accuracy: 10</title><text x="248.15" y="12.89" class="text-black font" >U</text></g>
<g><title>Position: 75 (position.label in template: 75.G)
Alignment accuracy: 10</title><text x="255.17" y="15.120000000000001" class="text-black font" >G</text></g>
<g><title>Position: 76 (position.label in template: 76.U)
Alignment accuracy: 10</title><text x="262.38" y="17.95" class="text-black font" >U</text></g>
<g><title>Position: 77 (position.label in template: 77.G)
Alignment accuracy: 10</title><text x="268.92" y="21.369999999999997" class="text-black font" >G</text></g>
<g><title>Position: 78 (position.label in template: 78.U)
Alignment accuracy: 10</title><text x="275.55" y="25.35" class="text-black font" >U</text></g>
<g><title>Position: 79 (position.label in template: 79.G)
Alignment accuracy: 10</title><text x="281.41" y="29.87" class="text-black font" >G</text></g>
<g><title>Position: 80 (position.label in template: 80.U)
Alignment accuracy: 10</title><text x="287.27" y="34.879999999999995" class="text-black font" >U</text></g>
<g><title>Position: 81 (position.label in template: 81.G)
Alignment accuracy: 10</title><text x="292.27" y="40.36" class="text-black font" >G</text></g>
<g><title>Position: 82 (position.label in template: 82.U)
Alignment accuracy: 10</title><text x="297.2" y="46.27" class="text-black font" >U</text></g>
<g><title>Position: 83 (position.label in template: 83.G)
Alignment accuracy: 10</title><text x="301.2" y="52.55" class="text-black font" >G</text></g>
<g><title>Position: 84 (position.label in template: 84.C)
Alignment accuracy: 10</title><text x="305.06" y="59.17" class="text-black font" >C</text></g>
<g><title>Position: 85 (position.label in template: 85.A)
Alignment accuracy: 0</title><text x="308.34" y="66.08" class="text-black font" >A</text></g>
<g><title>Position: 86 (position.label in template: 86.U)
Alignment accuracy: 0</title><text x="310.6" y="73.22" class="text-black font" >U</text></g>
<g><title>Position: 87 (position.label in template: 87.G)
Alignment accuracy: 0</title><text x="312.25" y="80.55" class="text-black font" >G</text></g>
<g><title>Position: 88 (position.label in template: 88.U)
Alignment accuracy: 0</title><text x="313.68" y="88.01" class="text-black font" >U</text></g>
<g><title>Position: 89 (position.label in template: 89.G)
Alignment accuracy: 0</title><text x="314.05" y="95.55" class="text-black font" >G</text></g>
<g><title>Position: 90 (position.label in template: 90.U)
Alignment accuracy: 0</title><text x="314.2" y="103.11" class="text-black font" >U</text></g>
<g><title>Position: 91 (position.label in template: 91.G)
Alignment accuracy: 0</title><text x="313.29" y="110.64" class="text-black font" >G</text></g>
<g><title>Position: 92 (position.label in template: 92.U)
Alignment accuracy: 0</title><text x="312.15" y="118.08" class="text-black font" >U</text></g>
<g><title>Position: 93 (position.label in template: 93.G)
Alignment accuracy: 0</title><text x="309.97" y="125.37" class="text-black font" >G</text></g>
<g><title>Position: 94 (position.label in template: 94.U)
Alignment accuracy: 0</title><text x="307.59" y="132.48000000000002" class="text-black font" >U</text></g>
<g><title>Position: 95 (position.label in template: 95.G)
Alignment accuracy: 0</title><text x="304.2" y="139.33" class="text-black font" >G</text></g>
<g><title>Position: 96 (position.label in template: 96.U)
Alignment accuracy: 10</title><text x="300.65" y="145.89" class="text-black font" >U</text></g>
<g><title>Position: 97 (position.label in template: 97.G)
Alignment accuracy: 10</title><text x="296.13" y="152.11" class="text-black font" >G</text></g>
<g><title>Position: 98 (position.label in template: 98.U)
Alignment accuracy: 10</title><text x="291.53" y="157.94" class="text-black font" >U</text></g>
<g><title>Position: 99 (position.label in template: 99.A)
Alignment accuracy: 10</title><text x="286.44" y="163.33" class="text-black font" >A</text></g>
<g><title>Position: 100 (position.label in template: 100.A)
Alignment accuracy: 10</title><text x="280.7" y="168.25" class="text-black font" >A</text></g>
<g><title>Position: 101 (position.label in template: 101.G)
Alignment accuracy: 10</title><text x="274.15" y="172.67" class="text-black font" >G</text></g>
<g><title>Position: 102 (position.label in template: 102.U)
Alignment accuracy: 10</title><text x="267.87" y="176.55" class="text-black font" >U</text></g>
<g><title>Position: 103 (position.label in template: 103.G)
Alignment accuracy: 10</title><text x="260.86" y="179.86" class="text-black font" >G</text></g>
<g><title>Position: 104 (position.label in template: 104.U)
Alignment accuracy: 10</title><text x="254.02" y="182.58" class="text-black font" >U</text></g>
<g><title>Position: 105 (position.label in template: 105.G)
Alignment accuracy: 10</title><text x="246.55" y="184.68" class="text-black font" >G</text></g>
<g><title>Position: 106 (position.label in template: 106.U)
Alignment accuracy: 10</title><text x="239.34" y="186.16" class="text-black font" >U</text></g>
<g><title>Position: 107 (position.label in template: 107.U)
Alignment accuracy: 10</title><text x="231.83" y="187.01" class="text-black font" >U</text></g>
<g><title>Position: 108 (position.label in template: 108.G)
Alignment accuracy: 10</title><text x="231.62" y="194.57" class="text-black font" >G</text></g>
<g><title>Position: 109 (position.label in template: 109.U)
Alignment accuracy: 10</title><text x="231.83" y="202.13" class="text-black font" >U</text></g>
<g><title>Position: 110 (position.label in template: 110.U)
Alignment accuracy: 10</title><text x="231.83" y="209.69" class="text-black font" >U</text></g>
<g><title>Position: 111 (position.label in template: 111.U)
Alignment accuracy: 10</title><text x="231.83" y="217.25" class="text-black font" >U</text></g>
<g><title>Position: 112 (position.label in template: 112.U)
Alignment accuracy: 10</title><text x="231.83" y="224.81" class="text-black font" >U</text></g>
<g><title>Position: 113 (position.label in template: 113.U)
Alignment accuracy: 10</title><text x="231.83" y="232.37" class="text-black font" >U</text></g>
<g><title>Position: 114 (position.label in template: 114.G)
Alignment accuracy: 10</title><text x="231.62" y="239.93" class="text-black font" >G</text></g>
<g><title>Position: 115 (position.label in template: 115.3')</title><text x="238.86" y="237.76" class="text-green font" >3'</text></g>
</g>
<g class="labels">
<g class="label">
<text x="85.60833232896869" y="252.05724506030657" class="font numbering-label sequential" >10</text>
<line x1="85.60833232896869" y1="247.00824483142475" x2="85.60833232896869" y2="250.5272450889168" class="numbering-line sequential" />
</g><g class="label">
<text x="161.21666465793737" y="252.05724506030657" class="font numbering-label sequential" >20</text>
<line x1="161.21666465793737" y1="247.00824483142475" x2="161.2166646579374" y2="250.5272450889168" class="numbering-line sequential" />
</g><g class="label">
<text x="212.7058975863762" y="224.80999999999995" class="font numbering-label sequential" >30</text>
<line x1="217.75489781525806" y1="224.80999999999995" x2="214.54189755204393" y2="224.80999999999995" class="numbering-line sequential" />
</g><g class="label">
<text x="132.59764082065058" y="119.77436396197089" class="font numbering-label sequential" >50</text>
<line x1="137.4913626758541" y1="118.53183037483842" x2="134.4336407863183" y2="119.30819696457803" class="numbering-line sequential" />
</g><g class="label">
<text x="284.86678316000797" y="173.7316628358647" class="font numbering-label sequential" >100</text>
<line x1="281.8118005369277" y1="169.71177670763592" x2="283.7040329783334" y2="172.20166286447494" class="numbering-line sequential" />
</g></g>

</svg>