<svg xmlns="http://www.w3.org/2000/svg" width="141.82999999999998" height="360.5318610417365">
<style type="text/css" >
<![CDATA[
.font { font-family: Helvetica; font-size: 3.075025px; font-weight: bold;  }
.numbering-line { stroke: rgb(204, 204, 204); stroke-width: 0.1922;  }
.bp-line { stroke-width: 0.3844;  }
.text-black { fill: rgb(0, 0, 0);  }
.text-red { fill: rgb(255, 0, 255);  }
.text-green { fill: rgb(0, 255, 0);  }
.text-blue { fill: rgb(0, 0, 255);  }
.text-gray { fill: rgb(204, 204, 204);  }
.text-brown { fill: rgb(211.65, 104.55, 30.6);  }
text { element-wise: True; fill: rgb(0, 0, 0); text-anchor: middle; dominant-baseline: middle;  }
.circle-black { stroke: rgb(0, 0, 0); fill: none;  }
.circle-red { stroke: rgb(255, 0, 255); fill: none;  }
.circle-green { stroke: rgb(0, 255, 0); fill: none;  }
.circle-blue { stroke: rgb(0, 0, 255); fill: none;  }
.circle-gray { stroke: rgb(204, 204, 204); fill: none;  }
.circle-brown { stroke: rgb(211.65, 104.55, 30.6); fill: none;  }
.circle { stroke: rgb(0, 0, 0);  }
.numbering-label { fill: rgb(204, 204, 204);  }
.numbering-line { stroke: rgb(204, 204, 204);  }
.template { visibility: hidden;  }
.bp-line { stroke: rgb(0, 0, 0);  }
.residue-circle { fill: rgb(255,255,255);  }
.res-line { stroke: rgb(204, 204, 204);  }
.color-posterior_probability-0 { fill: rgb(158, 189, 240);  }
.color-posterior_probability-10 { fill: rgb(255, 255, 255);  }
]]>
</style>

<g class="bps"><line x1="20.7" y1="328.87" x2="33.15" y2="328.87" class="bp-line" />
<line x1="20.7" y1="321.31" x2="33.15" y2="321.31" class="bp-line" />
<line x1="20.91" y1="313.75" x2="32.94" y2="313.75" class="bp-line" />
<line x1="20.91" y1="303.18" x2="32.94" y2="303.18" class="bp-line" />
<line x1="20.91" y1="295.62" x2="32.94" y2="295.62" class="bp-line" />
<line x1="20.91" y1="288.06" x2="32.94" y2="288.06" class="bp-line" />
<line x1="20.7" y1="280.5" x2="33.15" y2="280.5" class="bp-line" />
<line x1="20.91" y1="272.94" x2="32.94" y2="272.94" class="bp-line" />
<line x1="20.91" y1="265.38" x2="33.36" y2="265.38" class="bp-line" />
<line x1="20.7" y1="257.82" x2="33.15" y2="257.82" class="bp-line" />
<line x1="20.91" y1="244.03" x2="32.94" y2="244.03" class="bp-line" />
<line x1="21.119999999999997" y1="236.47" x2="33.15" y2="236.47" class="bp-line" />
<line x1="20.7" y1="222.68" x2="33.15" y2="222.68" class="bp-line" />
<line x1="20.7" y1="215.12" x2="33.15" y2="215.12" class="bp-line" />
<line x1="20.7" y1="207.56" x2="33.15" y2="207.56" class="bp-line" />
<line x1="20.7" y1="200.0" x2="33.15" y2="200.0" class="bp-line" />
<line x1="20.7" y1="192.44" x2="33.15" y2="192.44" class="bp-line" />
<line x1="20.91" y1="178.65" x2="32.94" y2="178.65" class="bp-line" />
<line x1="20.7" y1="171.09" x2="33.36" y2="171.09" class="bp-line" />
<line x1="21.119999999999997" y1="163.53" x2="33.15" y2="163.53" class="bp-line" />
<line x1="20.7" y1="149.74" x2="33.15" y2="149.74" class="bp-line" />
<line x1="20.91" y1="142.18" x2="33.36" y2="142.18" class="bp-line" />
<line x1="20.91" y1="134.62" x2="32.94" y2="134.62" class="bp-line" />
<line x1="20.7" y1="120.82" x2="33.36" y2="120.82" class="bp-line" />
<line x1="20.7" y1="113.26" x2="33.15" y2="113.26" class="bp-line" />
<line x1="21.1" y1="83.0" x2="33.129999999999995" y2="83.0" class="bp-line" />
<line x1="20.68" y1="75.44" x2="33.129999999999995" y2="75.44" class="bp-line" />
<line x1="20.68" y1="67.88" x2="33.129999999999995" y2="67.88" class="bp-line" />
<line x1="21.0" y1="49.75" x2="33.239999999999995" y2="49.75" class="bp-line" />
<line x1="20.85" y1="41.980000000000004" x2="32.879999999999995" y2="41.980000000000004" class="bp-line" />
<line x1="20.64" y1="34.42" x2="33.09" y2="34.42" class="bp-line" />
<line x1="20.64" y1="26.86" x2="33.3" y2="26.86" class="bp-line" />
</g>
<g class="residues"><line x1="10.0" y1="339.57" x2="15.35" y2="334.22" class="bp-line res-line" />
<line x1="15.35" y1="334.22" x2="20.7" y2="328.87" class="bp-line res-line" />
<line x1="20.7" y1="328.87" x2="20.7" y2="321.31" class="bp-line res-line" />
<line x1="20.7" y1="321.31" x2="20.91" y2="313.75" class="bp-line res-line" />
<line x1="20.91" y1="313.75" x2="20.009999999999998" y2="308.47" class="bp-line res-line" />
<line x1="20.009999999999998" y1="308.47" x2="20.91" y2="303.18" class="bp-line res-line" />
<line x1="20.91" y1="303.18" x2="20.91" y2="295.62" class="bp-line res-line" />
<line x1="20.91" y1="295.62" x2="20.91" y2="288.06" class="bp-line res-line" />
<line x1="20.91" y1="288.06" x2="20.7" y2="280.5" class="bp-line res-line" />
<line x1="20.7" y1="280.5" x2="20.91" y2="272.94" class="bp-line res-line" />
<line x1="20.91" y1="272.94" x2="20.91" y2="265.38" class="bp-line res-line" />
<line x1="20.91" y1="265.38" x2="20.7" y2="257.82" class="bp-line res-line" />
<line x1="20.7" y1="257.82" x2="18.02" y2="250.92" class="bp-line res-line" />
<line x1="18.02" y1="250.92" x2="20.91" y2="244.03" class="bp-line res-line" />
<line x1="20.91" y1="244.03" x2="21.119999999999997" y2="236.47" class="bp-line res-line" />
<line x1="21.119999999999997" y1="236.47" x2="17.81" y2="229.57" class="bp-line res-line" />
<line x1="17.81" y1="229.57" x2="20.7" y2="222.68" class="bp-line res-line" />
<line x1="20.7" y1="222.68" x2="20.7" y2="215.12" class="bp-line res-line" />
<line x1="20.7" y1="215.12" x2="20.7" y2="207.56" class="bp-line res-line" />
<line x1="20.7" y1="207.56" x2="20.7" y2="200.0" class="bp-line res-line" />
<line x1="20.7" y1="200.0" x2="20.7" y2="192.44" class="bp-line res-line" />
<line x1="20.7" y1="192.44" x2="17.81" y2="185.54" class="bp-line res-line" />
<line x1="17.81" y1="185.54" x2="20.91" y2="178.65" class="bp-line res-line" />
<line x1="20.91" y1="178.65" x2="20.7" y2="171.09" class="bp-line res-line" />
<line x1="20.7" y1="171.09" x2="21.119999999999997" y2="163.53" class="bp-line res-line" />
<line x1="21.119999999999997" y1="163.53" x2="18.02" y2="156.63" class="bp-line res-line" />
<line x1="18.02" y1="156.63" x2="20.7" y2="149.74" class="bp-line res-line" />
<line x1="20.7" y1="149.74" x2="20.91" y2="142.18" class="bp-line res-line" />
<line x1="20.91" y1="142.18" x2="20.91" y2="134.62" class="bp-line res-line" />
<line x1="20.91" y1="134.62" x2="18.02" y2="127.72" class="bp-line res-line" />
<line x1="18.02" y1="127.72" x2="20.7" y2="120.82" class="bp-line res-line" />
<line x1="20.7" y1="120.82" x2="20.7" y2="113.26" class="bp-line res-line" />
<line x1="20.7" y1="113.26" x2="16.81" y2="107.8" class="bp-line res-line" />
<line x1="16.81" y1="107.8" x2="14.809999999999999" y2="101.4" class="bp-line res-line" />
<line x1="14.809999999999999" y1="101.4" x2="14.9" y2="94.7" class="bp-line res-line" />
<line x1="14.9" y1="94.7" x2="17.07" y2="88.36" class="bp-line res-line" />
<line x1="17.07" y1="88.36" x2="21.1" y2="83.0" class="bp-line res-line" />
<line x1="21.1" y1="83.0" x2="20.68" y2="75.44" class="bp-line res-line" />
<line x1="20.68" y1="75.44" x2="20.68" y2="67.88" class="bp-line res-line" />
<line x1="20.68" y1="67.88" x2="18.55" y2="61.93" class="bp-line res-line" />
<line x1="18.55" y1="61.93" x2="18.66" y2="55.62" class="bp-line res-line" />
<line x1="18.66" y1="55.62" x2="21.0" y2="49.75" class="bp-line res-line" />
<line x1="21.0" y1="49.75" x2="20.85" y2="41.980000000000004" class="bp-line res-line" />
<line x1="20.85" y1="41.980000000000004" x2="20.64" y2="34.42" class="bp-line res-line" />
<line x1="20.64" y1="34.42" x2="20.64" y2="26.86" class="bp-line res-line" />
<line x1="20.64" y1="26.86" x2="17.240000000000002" y2="20.11" class="bp-line res-line" />
<line x1="17.240000000000002" y1="20.11" x2="20.03" y2="13.0" class="bp-line res-line" />
<line x1="20.03" y1="13.0" x2="27.18" y2="10.0" class="bp-line res-line" />
<line x1="27.18" y1="10.0" x2="33.91" y2="13.0" class="bp-line res-line" />
<line x1="33.91" y1="13.0" x2="36.489999999999995" y2="20.11" class="bp-line res-line" />
<line x1="36.489999999999995" y1="20.11" x2="33.3" y2="26.86" class="bp-line res-line" />
<line x1="33.3" y1="26.86" x2="33.09" y2="34.42" class="bp-line res-line" />
<line x1="33.09" y1="34.42" x2="32.879999999999995" y2="41.980000000000004" class="bp-line res-line" />
<line x1="32.879999999999995" y1="41.980000000000004" x2="33.239999999999995" y2="49.75" class="bp-line res-line" />
<line x1="33.239999999999995" y1="49.75" x2="35.45" y2="55.67" class="bp-line res-line" />
<line x1="35.45" y1="55.67" x2="35.41" y2="61.99" class="bp-line res-line" />
<line x1="35.41" y1="61.99" x2="33.129999999999995" y2="67.88" class="bp-line res-line" />
<line x1="33.129999999999995" y1="67.88" x2="33.129999999999995" y2="75.44" class="bp-line res-line" />
<line x1="33.129999999999995" y1="75.44" x2="33.129999999999995" y2="83.0" class="bp-line res-line" />
<line x1="33.129999999999995" y1="83.0" x2="37.09" y2="88.41" class="bp-line res-line" />
<line x1="37.09" y1="88.41" x2="39.18" y2="94.78" class="bp-line res-line" />
<line x1="39.18" y1="94.78" x2="39.18" y2="101.48" class="bp-line res-line" />
<line x1="39.18" y1="101.48" x2="37.11" y2="107.85" class="bp-line res-line" />
<line x1="37.11" y1="107.85" x2="33.15" y2="113.26" class="bp-line res-line" />
<line x1="33.15" y1="113.26" x2="33.36" y2="120.82" class="bp-line res-line" />
<line x1="33.36" y1="120.82" x2="36.04" y2="127.72" class="bp-line res-line" />
<line x1="36.04" y1="127.72" x2="32.94" y2="134.62" class="bp-line res-line" />
<line x1="32.94" y1="134.62" x2="39.9" y2="138.4" class="bp-line res-line" />
<line x1="39.9" y1="138.4" x2="33.36" y2="142.18" class="bp-line res-line" />
<line x1="33.36" y1="142.18" x2="33.15" y2="149.74" class="bp-line res-line" />
<line x1="33.15" y1="149.74" x2="36.46" y2="156.63" class="bp-line res-line" />
<line x1="36.46" y1="156.63" x2="33.15" y2="163.53" class="bp-line res-line" />
<line x1="33.15" y1="163.53" x2="33.36" y2="171.09" class="bp-line res-line" />
<line x1="33.36" y1="171.09" x2="32.94" y2="178.65" class="bp-line res-line" />
<line x1="32.94" y1="178.65" x2="36.46" y2="185.54" class="bp-line res-line" />
<line x1="36.46" y1="185.54" x2="33.15" y2="192.44" class="bp-line res-line" />
<line x1="33.15" y1="192.44" x2="33.15" y2="200.0" class="bp-line res-line" />
<line x1="33.15" y1="200.0" x2="33.15" y2="207.56" class="bp-line res-line" />
<line x1="33.15" y1="207.56" x2="33.15" y2="215.12" class="bp-line res-line" />
<line x1="33.15" y1="215.12" x2="33.15" y2="222.68" class="bp-line res-line" />
<line x1="33.15" y1="222.68" x2="40.19" y2="226.0" class="bp-line res-line" />
<line x1="40.19" y1="226.0" x2="40.04" y2="233.35" class="bp-line res-line" />
<line x1="40.04" y1="233.35" x2="33.15" y2="236.47" class="bp-line res-line" />
<line x1="33.15" y1="236.47" x2="32.94" y2="244.03" class="bp-line res-line" />
<line x1="32.94" y1="244.03" x2="36.46" y2="250.92" class="bp-line res-line" />
<line x1="36.46" y1="250.92" x2="33.15" y2="257.82" class="bp-line res-line" />
<line x1="33.15" y1="257.82" x2="33.36" y2="265.38" class="bp-line res-line" />
<line x1="33.36" y1="265.38" x2="32.94" y2="272.94" class="bp-line res-line" />
<line x1="32.94" y1="272.94" x2="33.15" y2="280.5" class="bp-line res-line" />
<line x1="33.15" y1="280.5" x2="40.34" y2="278.16" class="bp-line res-line" />
<line x1="40.34" y1="278.16" x2="44.78" y2="284.28" class="bp-line res-line" />
<line x1="44.78" y1="284.28" x2="40.34" y2="290.39" class="bp-line res-line" />
<line x1="40.34" y1="290.39" x2="32.94" y2="288.06" class="bp-line res-line" />
<line x1="32.94" y1="288.06" x2="32.94" y2="295.62" class="bp-line res-line" />
<line x1="32.94" y1="295.62" x2="32.94" y2="303.18" class="bp-line res-line" />
<line x1="32.94" y1="303.18" x2="33.84" y2="308.47" class="bp-line res-line" />
<line x1="33.84" y1="308.47" x2="32.94" y2="313.75" class="bp-line res-line" />
<line x1="32.94" y1="313.75" x2="33.15" y2="321.31" class="bp-line res-line" />
<line x1="33.15" y1="321.31" x2="33.15" y2="328.87" class="bp-line res-line" />
<line x1="33.15" y1="328.87" x2="38.6" y2="334.11" class="bp-line res-line" />
<line x1="38.6" y1="334.11" x2="46.17" y2="334.11" class="bp-line res-line" />
<line x1="46.17" y1="334.11" x2="53.73" y2="334.11" class="bp-line res-line" />
<line x1="53.73" y1="334.11" x2="61.3" y2="334.11" class="bp-line res-line" />
<line x1="61.3" y1="334.11" x2="68.86" y2="334.11" class="bp-line res-line" />
<line x1="68.86" y1="334.11" x2="76.43" y2="334.11" class="bp-line res-line" />
<line x1="76.43" y1="334.11" x2="84.0" y2="334.11" class="bp-line res-line" />
<line x1="84.0" y1="334.11" x2="91.56" y2="334.11" class="bp-line res-line" />
<line x1="91.56" y1="334.11" x2="99.13" y2="334.11" class="bp-line res-line" />
<line x1="99.13" y1="334.11" x2="106.69" y2="334.11" class="bp-line res-line" />
<line x1="106.69" y1="334.11" x2="114.26" y2="334.11" class="bp-line res-line" />
<line x1="114.26" y1="334.11" x2="121.83" y2="334.11" class="bp-line res-line" />
<circle cx="10.0" cy="339.57" class="residue-circle" r="2.30626875"/>
<circle cx="15.35" cy="334.22" class="residue-circle color-posterior_probability-10" r="2.30626875"/>
<circle cx="20.7" cy="328.87" class="residue-circle color-posterior_probability-10" r="2.30626875"/>
<circle cx="20.7" cy="321.31" class="residue-circle color-posterior_probability-10" r="2.30626875"/>
<circle cx="20.91" cy="313.75" class="residue-circle color-posterior_probability-10" r="2.30626875"/>
<circle cx="20.009999999999998" cy="308.47" class="residue-circle color-posterior_probability-10" r="2.30626875"/>
<circle cx="20.91" cy="303.18" class="residue-circle color-posterior_probability-10" r="2.30626875"/>
<circle cx="20.91" cy="295.62" class="residue-circle color-posterior_probability-10" r="2.30626875"/>
<circle cx="20.91" cy="288.06" class="residue-circle color-posterior_probability-10" r="2.30626875"/>
<circle cx="20.7" cy="280.5" class="residue-circle color-posterior_probability-10" r="2.30626875"/>
<circle cx="20.91" cy="272.94" class="residue-circle color-posterior_probability-10" r="2.30626875"/>
<circle cx="20.91" cy="265.38" class="residue-circle color-posterior_probability-10" r="2.30626875"/>
<circle cx="20.7" cy="257.82" class="residue-circle color-posterior_probability-10" r="2.30626875"/>
<circle cx="18.02" cy="250.92" class="residue-circle color-posterior_probability-10" r="2.30626875"/>
<circle cx="20.91" cy="244.03" class="residue-circle color-posterior_probability-10" r="2.30626875"/>
<circle cx="21.119999999999997" cy="236.47" class="residue-circle color-posterior_probability-10" r="2.30626875"/>
<circle cx="17.81" cy="229.57" class="residue-circle color-posterior_probability-10" r="2.30626875"/>
<circle cx="20.7" cy="222.68" class="residue-circle color-posterior_probability-10" r="2.30626875"/>
<circle cx="20.7" cy="215.12" class="residue-circle color-posterior_probability-10" r="2.30626875"/>
<circle cx="20.7" cy="207.56" class="residue-circle color-posterior_probability-10" r="2.30626875"/>
<circle cx="20.7" cy="200.0" class="residue-circle color-posterior_probability-10" r="2.30626875"/>
<circle cx="20.7" cy="192.44" class="residue-circle color-posterior_probability-10" r="2.30626875"/>
<circle cx="17.81" cy="185.54" class="residue-circle color-posterior_probability-10" r="2.30626875"/>
<circle cx="20.91" cy="178.65" class="residue-circle color-posterior_probability-10" r="2.30626875"/>
<circle cx="20.7" cy="171.09" class="residue-circle color-posterior_probability-10" r="2.30626875"/>
<circle cx="21.119999999999997" cy="163.53" class="residue-circle color-posterior_probability-10" r="2.30626875"/>
<circle cx="18.02" cy="156.63" class="residue-circle color-posterior_probability-10" r="2.30626875"/>
<circle cx="20.7" cy="149.74" class="residue-circle color-posterior_probability-10" r="2.30626875"/>
<circle cx="20.91" cy="142.18" class="residue-circle color-posterior_probability-10" r="2.30626875"/>
<circle cx="20.91" cy="134.62" class="residue-circle color-posterior_probability-10" r="2.30626875"/>
<circle cx="18.02" cy="127.72" class="residue-circle color-posterior_probability-10" r="2.30626875"/>
<circle cx="20.7" cy="120.82" class="residue-circle color-posterior_probability-10" r="2.30626875"/>
<circle cx="20.7" cy="113.26" class="residue-circle color-posterior_probability-10" r="2.30626875"/>
<circle cx="16.81" cy="107.8" class="residue-circle color-posterior_probability-10" r="2.30626875"/>
<circle cx="14.809999999999999" cy="101.4" class="residue-circle color-posterior_probability-10" r="2.30626875"/>
<circle cx="14.9" cy="94.7" class="residue-circle color-posterior_probability-10" r="2.30626875"/>
<circle cx="17.07" cy="88.36" class="residue-circle color-posterior_probability-10" r="2.30626875"/>
<circle cx="21.1" cy="83.0" class="residue-circle color-posterior_probability-10" r="2.30626875"/>
<circle cx="20.68" cy="75.44" class="residue-circle color-posterior_probability-10" r="2.30626875"/>
<circle cx="20.68" cy="67.88" class="residue-circle color-posterior_probability-10" r="2.30626875"/>
<circle cx="18.55" cy="61.93" class="residue-circle color-posterior_probability-10" r="2.30626875"/>
<circle cx="18.66" cy="55.62" class="residue-circle color-posterior_probability-10" r="2.30626875"/>
<circle cx="21.0" cy="49.75" class="residue-circle color-posterior_probability-10" r="2.30626875"/>
<circle cx="20.85" cy="41.980000000000004" class="residue-circle color-posterior_probability-10" r="2.30626875"/>
<circle cx="20.64" cy="34.42" class="residue-circle color-posterior_probability-10" r="2.30626875"/>
<circle cx="20.64" cy="26.86" class="residue-circle color-posterior_probability-10" r="2.30626875"/>
<circle cx="17.240000000000002" cy="20.11" class="residue-circle color-posterior_probability-10" r="2.30626875"/>
<circle cx="20.03" cy="13.0" class="residue-circle color-posterior_probability-10" r="2.30626875"/>
<circle cx="27.18" cy="10.0" class="residue-circle color-posterior_probability-10" r="2.30626875"/>
<circle cx="33.91" cy="13.0" class="residue-circle color-posterior_probability-10" r="2.30626875"/>
<circle cx="36.489999999999995" cy="20.11" class="residue-circle color-posterior_probability-10" r="2.30626875"/>
<circle cx="33.3" cy="26.86" class="residue-circle color-posterior_probability-10" r="2.30626875"/>
<circle cx="33.09" cy="34.42" class="residue-circle color-posterior_probability-10" r="2.30626875"/>
<circle cx="32.879999999999995" cy="41.980000000000004" class="residue-circle color-posterior_probability-10" r="2.30626875"/>
<circle cx="33.239999999999995" cy="49.75" class="residue-circle color-posterior_probability-10" r="2.30626875"/>
<circle cx="35.45" cy="55.67" class="residue-circle color-posterior_probability-10" r="2.30626875"/>
<circle cx="35.41" cy="61.99" class="residue-circle color-posterior_probability-10" r="2.30626875"/>
<circle cx="33.129999999999995" cy="67.88" class="residue-circle color-posterior_probability-10" r="2.30626875"/>
<circle cx="33.129999999999995" cy="75.44" class="residue-circle color-posterior_probability-10" r="2.30626875"/>
<circle cx="33.129999999999995" cy="83.0" class="residue-circle color-posterior_probability-10" r="2.30626875"/>
<circle cx="37.09" cy="88.41" class="residue-circle color-posterior_probability-10" r="2.30626875"/>
<circle cx="39.18" cy="94.78" class="residue-circle color-posterior_probability-10" r="2.30626875"/>
<circle cx="39.18" cy="101.48" class="residue-circle color-posterior_probability-10" r="2.30626875"/>
<circle cx="37.11" cy="107.85" class="residue-circle color-posterior_probability-10" r="2.30626875"/>
<circle cx="33.15" cy="113.26" class="residue-circle color-posterior_probability-10" r="2.30626875"/>
<circle cx="33.36" cy="120.82" class="residue-circle color-posterior_probability-10" r="2.30626875"/>
<circle cx="36.04" cy="127.72" class="residue-circle color-posterior_probability-10" r="2.30626875"/>
<circle cx="32.94" cy="134.62" class="residue-circle color-posterior_probability-10" r="2.30626875"/>
<circle cx="39.9" cy="138.4" class="residue-circle color-posterior_probability-10" r="2.30626875"/>
<circle cx="33.36" cy="142.18" class="residue-circle color-posterior_probability-10" r="2.30626875"/>
<circle cx="33.15" cy="149.74" class="residue-circle color-posterior_probability-10" r="2.30626875"/>
<circle cx="36.46" cy="156.63" class="residue-circle color-posterior_probability-10" r="2.30626875"/>
<circle cx="33.15" cy="163.53" class="residue-circle color-posterior_probability-10" r="2.30626875"/>
<circle cx="33.36" cy="171.09" class="residue-circle color-posterior_probability-10" r="2.30626875"/>
<circle cx="32.94" cy="178.65" class="residue-circle color-posterior_probability-10" r="2.30626875"/>
<circle cx="36.46" cy="185.54" class="residue-circle color-posterior_probability-10" r="2.30626875"/>
<circle cx="33.15" cy="192.44" class="residue-circle color-posterior_probability-10" r="2.30626875"/>
<circle cx="33.15" cy="200.0" class="residue-circle color-posterior_probability-10" r="2.30626875"/>
<circle cx="33.15" cy="207.56" class="residue-circle color-posterior_probability-10" r="2.30626875"/>
<circle cx="33.15" cy="215.12" class="residue-circle color-posterior_probability-10" r="2.30626875"/>
<circle cx="33.15" cy="222.68" class="residue-circle color-posterior_probability-10" r="2.30626875"/>
<circle cx="40.19" cy="226.0" class="residue-circle color-posterior_probability-10" r="2.30626875"/>
<circle cx="40.04" cy="233.35" class="residue-circle color-posterior_probability-10" r="2.30626875"/>
<circle cx="33.15" cy="236.47" class="residue-circle color-posterior_probability-10" r="2.30626875"/>
<circle cx="32.94" cy="244.03" class="residue-circle color-posterior_probability-10" r="2.30626875"/>
<circle cx="36.46" cy="250.92" class="residue-circle color-posterior_probability-10" r="2.30626875"/>
<circle cx="33.15" cy="257.82" class="residue-circle color-posterior_probability-10" r="2.30626875"/>
<circle cx="33.36" cy="265.38" class="residue-circle color-posterior_probability-10" r="2.30626875"/>
<circle cx="32.94" cy="272.94" class="residue-circle color-posterior_probability-10" r="2.30626875"/>
<circle cx="33.15" cy="280.5" class="residue-circle color-posterior_probability-10" r="2.30626875"/>
<circle cx="40.34" cy="278.16" class="residue-circle color-posterior_probability-10" r="2.30626875"/>
<circle cx="44.78" cy="284.28" class="residue-circle color-posterior_probability-0" r="2.30626875"/>
<circle cx="40.34" cy="290.39" class="residue-circle color-posterior_probability-0" r="2.30626875"/>
<circle cx="32.94" cy="288.06" class="residue-circle color-posterior_probability-0" r="2.30626875"/>
<circle cx="32.94" cy="295.62" class="residue-circle color-posterior_probability-0" r="2.30626875"/>
<circle cx="32.94" cy="303.18" class="residue-circle color-posterior_probability-0" r="2.30626875"/>
<circle cx="33.84" cy="308.47" class="residue-circle color-posterior_probability-0" r="2.30626875"/>
<circle cx="32.94" cy="313.75" class="residue-circle color-posterior_probability-0" r="2.30626875"/>
<circle cx="33.15" cy="321.31" class="residue-circle color-posterior_probability-0" r="2.30626875"/>
<circle cx="33.15" cy="328.87" class="residue-circle color-posterior_probability-0" r="2.30626875"/>
<circle cx="38.6" cy="334.11" class="residue-circle color-posterior_probability-0" r="2.30626875"/>
<circle cx="46.17" cy="334.11" class="residue-circle color-posterior_probability-10" r="2.30626875"/>
<circle cx="53.73" cy="334.11" class="residue-circle color-posterior_probability-10" r="2.30626875"/>
<circle cx="61.3" cy="334.11" class="residue-circle color-posterior_probability-10" r="2.30626875"/>
<circle cx="68.86" cy="334.11" class="residue-circle color-posterior_probability-10" r="2.30626875"/>
<circle cx="76.43" cy="334.11" class="residue-circle color-posterior_probability-10" r="2.30626875"/>
<circle cx="84.0" cy="334.11" class="residue-circle color-posterior_probability-10" r="2.30626875"/>
<circle cx="91.56" cy="334.11" class="residue-circle color-posterior_probability-10" r="2.30626875"/>
<circle cx="99.13" cy="334.11" class="residue-circle color-posterior_probability-10" r="2.30626875"/>
<circle cx="106.69" cy="334.11" class="residue-circle color-posterior_probability-10" r="2.30626875"/>
<circle cx="114.26" cy="334.11" class="residue-circle color-posterior_probability-10" r="2.30626875"/>
<circle cx="121.83" cy="334.11" class="residue-circle" r="2.30626875"/>
<g><title>Position: 0 (position.label in template: 0.5')</title><text x="10.0" y="339.57" class="text-green font" >5'</text></g>
<g><title>Position: 1 (position.label in template: 1.G)
Alignment accuracy: 10</title><text x="15.35" y="334.22" class="text-black font" >G</text></g>
<g><title>Position: 2 (position.label in template: 2.G)
Alignment accuracy: 10</title><text x="20.7" y="328.87" class="text-black font" >G</text></g>
<g><title>Position: 3 (position.label in template: 3.G)
Alignment accuracy: 10</title><text x="20.7" y="321.31" class="text-black font" >G</text></g>
<g><title>Position: 4 (position.label in template: 4.C)
Alignment accuracy: 10</title><text x="20.91" y="313.75" class="text-black font" >C</text></g>
<g><title>Position: 5 (position.label in template: -1.)
Alignment accuracy: 10</title><text x="20.009999999999998" y="308.47" class="text-red font" >A</text></g>
<g><title>Position: 6 (position.label in template: 6.U)
Alignment accuracy: 10</title><text x="20.91" y="303.18" class="text-black font" >U</text></g>
<g><title>Position: 7 (position.label in template: 7.C)
Alignment accuracy: 10</title><text x="20.91" y="295.62" class="text-black font" >C</text></g>
<g><title>Position: 8 (position.label in template: 8.U)
Alignment accuracy: 10</title><text x="20.91" y="288.06" class="text-black font" >U</text></g>
<g><title>Position: 9 (position.label in template: 9.G)
Alignment accuracy: 10</title><text x="20.7" y="280.5" class="text-black font" >G</text></g>
<g><title>Position: 10 (position.label in template: 10.C)
Alignment accuracy: 10</title><text x="20.91" y="272.94" class="text-black font" >C</text></g>
<g><title>Position: 11 (position.label in template: 11.U)
Alignment accuracy: 10</title><text x="20.91" y="265.38" class="text-black font" >U</text></g>
<g><title>Position: 12 (position.label in template: 12.G)
Alignment accuracy: 10</title><text x="20.7" y="257.82" class="text-black font" >G</text></g>
<g><title>Position: 13 (position.label in template: 13.A)
Alignment accuracy: 10</title><text x="18.02" y="250.92" class="text-black font" >A</text></g>
<g><title>Position: 14 (position.label in template: 14.C)
Alignment accuracy: 10</title><text x="20.91" y="244.03" class="text-black font" >C</text></g>
<g><title>Position: 15 (position.label in template: 15.A)
Alignment accuracy: 10</title><text x="21.119999999999997" y="236.47" class="text-black font" >A</text></g>
<g><title>Position: 16 (position.label in template: 16.U)
Alignment accuracy: 10</title><text x="17.81" y="229.57" class="text-black font" >U</text></g>
<g><title>Position: 17 (position.label in template: 17.G)
Alignment accuracy: 10</title><text x="20.7" y="222.68" class="text-black font" >G</text></g>
<g><title>Position: 18 (position.label in template: 18.G)
Alignment accuracy: 10</title><text x="20.7" y="215.12" class="text-black font" >G</text></g>
<g><title>Position: 19 (position.label in template: 19.G)
Alignment accuracy: 10</title><text x="20.7" y="207.56" class="text-black font" >G</text></g>
<g><title>Position: 20 (position.label in template: 20.G)
Alignment accuracy: 10</title><text x="20.7" y="200.0" class="text-black font" >G</text></g>
<g><title>Position: 21 (position.label in template: 21.G)
Alignment accuracy: 10</title><text x="20.7" y="192.44" class="text-black font" >G</text></g>
<g><title>Position: 22 (position.label in template: 22.C)
Alignment accuracy: 10</title><text x="17.81" y="185.54" class="text-black font" >C</text></g>
<g><title>Position: 23 (position.label in template: 23.C)
Alignment accuracy: 10</title><text x="20.91" y="178.65" class="text-black font" >C</text></g>
<g><title>Position: 24 (position.label in template: 24.G)
Alignment accuracy: 10</title><text x="20.7" y="171.09" class="text-green font" >G</text></g>
<g><title>Position: 25 (position.label in template: 25.A)
Alignment accuracy: 10</title><text x="21.119999999999997" y="163.53" class="text-black font" >A</text></g>
<g><title>Position: 26 (position.label in template: 26.A)
Alignment accuracy: 10</title><text x="18.02" y="156.63" class="text-black font" >A</text></g>
<g><title>Position: 27 (position.label in template: 27.G)
Alignment accuracy: 10</title><text x="20.7" y="149.74" class="text-black font" >G</text></g>
<g><title>Position: 28 (position.label in template: 28.U)
Alignment accuracy: 10</title><text x="20.91" y="142.18" class="text-black font" >U</text></g>
<g><title>Position: 29 (position.label in template: 29.C)
Alignment accuracy: 10</title><text x="20.91" y="134.62" class="text-black font" >C</text></g>
<g><title>Position: 30 (position.label in template: 30.A)
Alignment accuracy: 10</title><text x="18.02" y="127.72" class="text-black font" >A</text></g>
<g><title>Position: 31 (position.label in template: 31.G)
Alignment accuracy: 10</title><text x="20.7" y="120.82" class="text-green font" >G</text></g>
<g><title>Position: 32 (position.label in template: 32.G)
Alignment accuracy: 10</title><text x="20.7" y="113.26" class="text-black font" >G</text></g>
<g><title>Position: 33 (position.label in template: 33.C)
Alignment accuracy: 10</title><text x="16.81" y="107.8" class="text-blue font" >C</text></g>
<g><title>Position: 34 (position.label in template: -1.)
Alignment accuracy: 10</title><text x="14.809999999999999" y="101.4" class="text-red font" >A</text></g>
<g><title>Position: 35 (position.label in template: 35.C)
Alignment accuracy: 10</title><text x="14.9" y="94.7" class="text-blue font" >C</text></g>
<g><title>Position: 36 (position.label in template: 36.C)
Alignment accuracy: 10</title><text x="17.07" y="88.36" class="text-blue font" >C</text></g>
<g><title>Position: 37 (position.label in template: 37.A)
Alignment accuracy: 10</title><text x="21.1" y="83.0" class="text-black font" >A</text></g>
<g><title>Position: 38 (position.label in template: 38.G)
Alignment accuracy: 10</title><text x="20.68" y="75.44" class="text-black font" >G</text></g>
<g><title>Position: 39 (position.label in template: 39.G)
Alignment accuracy: 10</title><text x="20.68" y="67.88" class="text-black font" >G</text></g>
<g><title>Position: 40 (position.label in template: -1.)
Alignment accuracy: 10</title><text x="18.55" y="61.93" class="text-red font" >C</text></g>
<g><title>Position: 41 (position.label in template: 41.A)
Alignment accuracy: 10</title><text x="18.66" y="55.62" class="text-blue font" >A</text></g>
<g><title>Position: 42 (position.label in template: 42.N)
Alignment accuracy: 10</title><text x="21.0" y="49.75" class="text-green font" >U</text></g>
<g><title>Position: 43 (position.label in template: 43.C)
Alignment accuracy: 10</title><text x="20.85" y="41.980000000000004" class="text-black font" >C</text></g>
<g><title>Position: 44 (position.label in template: 44.G)
Alignment accuracy: 10</title><text x="20.64" y="34.42" class="text-black font" >G</text></g>
<g><title>Position: 45 (position.label in template: 45.G)
Alignment accuracy: 10</title><text x="20.64" y="26.86" class="text-green font" >G</text></g>
<g><title>Position: 46 (position.label in template: 46.G)
Alignment accuracy: 10</title><text x="17.240000000000002" y="20.11" class="text-black font" >G</text></g>
<g><title>Position: 47 (position.label in template: 47.C)
Alignment accuracy: 10</title><text x="20.03" y="13.0" class="text-green font" >A</text></g>
<g><title>Position: 48 (position.label in template: 48.A)
Alignment accuracy: 10</title><text x="27.18" y="10.0" class="text-black font" >A</text></g>
<g><title>Position: 49 (position.label in template: 49.C)
Alignment accuracy: 10</title><text x="33.91" y="13.0" class="text-black font" >C</text></g>
<g><title>Position: 50 (position.label in template: 50.U)
Alignment accuracy: 10</title><text x="36.489999999999995" y="20.11" class="text-black font" >U</text></g>
<g><title>Position: 51 (position.label in template: 51.Y)
Alignment accuracy: 10</title><text x="33.3" y="26.86" class="text-green font" >C</text></g>
<g><title>Position: 52 (position.label in template: 52.U)
Alignment accuracy: 10</title><text x="33.09" y="34.42" class="text-black font" >U</text></g>
<g><title>Position: 53 (position.label in template: 53.G)
Alignment accuracy: 10</title><text x="32.879999999999995" y="41.980000000000004" class="text-black font" >G</text></g>
<g><title>Position: 54 (position.label in template: 54.N)
Alignment accuracy: 10</title><text x="33.239999999999995" y="49.75" class="text-green font" >G</text></g>
<g><title>Position: 55 (position.label in template: 55.A)
Alignment accuracy: 10</title><text x="35.45" y="55.67" class="text-blue font" >A</text></g>
<g><title>Position: 56 (position.label in template: -1.)
Alignment accuracy: 10</title><text x="35.41" y="61.99" class="text-red font" >U</text></g>
<g><title>Position: 57 (position.label in template: 57.C)
Alignment accuracy: 10</title><text x="33.129999999999995" y="67.88" class="text-black font" >C</text></g>
<g><title>Position: 58 (position.label in template: 58.U)
Alignment accuracy: 10</title><text x="33.129999999999995" y="75.44" class="text-black font" >U</text></g>
<g><title>Position: 59 (position.label in template: 59.U)
Alignment accuracy: 10</title><text x="33.129999999999995" y="83.0" class="text-black font" >U</text></g>
<g><title>Position: 60 (position.label in template: 60.A)
Alignment accuracy: 10</title><text x="37.09" y="88.41" class="text-blue font" >A</text></g>
<g><title>Position: 61 (position.label in template: 61.U)
Alignment accuracy: 10</title><text x="39.18" y="94.78" class="text-blue font" >U</text></g>
<g><title>Position: 62 (position.label in template: -1.)
Alignment accuracy: 10</title><text x="39.18" y="101.48" class="text-red font" >C</text></g>
<g><title>Position: 63 (position.label in template: 63.U)
Alignment accuracy: 10</title><text x="37.11" y="107.85" class="text-blue font" >U</text></g>
<g><title>Position: 64 (position.label in template: 64.C)
Alignment accuracy: 10</title><text x="33.15" y="113.26" class="text-black font" >C</text></g>
<g><title>Position: 65 (position.label in template: 65.Y)
Alignment accuracy: 10</title><text x="33.36" y="120.82" class="text-green font" >U</text></g>
<g><title>Position: 66 (position.label in template: 66.G)
Alignment accuracy: 10</title><text x="36.04" y="127.72" class="text-black font" >G</text></g>
<g><title>Position: 67 (position.label in template: 67.G)
Alignment accuracy: 10</title><text x="32.94" y="134.62" class="text-black font" >G</text></g>
<g><title>Position: 68 (position.label in template: 68.A)
Alignment accuracy: 10</title><text x="39.9" y="138.4" class="text-black font" >A</text></g>
<g><title>Position: 69 (position.label in template: 69.A)
Alignment accuracy: 10</title><text x="33.36" y="142.18" class="text-black font" >A</text></g>
<g><title>Position: 70 (position.label in template: 70.C)
Alignment accuracy: 10</title><text x="33.15" y="149.74" class="text-black font" >C</text></g>
<g><title>Position: 71 (position.label in template: 71.A)
Alignment accuracy: 10</title><text x="36.46" y="156.63" class="text-black font" >A</text></g>
<g><title>Position: 72 (position.label in template: 72.U)
Alignment accuracy: 10</title><text x="33.15" y="163.53" class="text-black font" >U</text></g>
<g><title>Position: 73 (position.label in template: 73.Y)
Alignment accuracy: 10</title><text x="33.36" y="171.09" class="text-green font" >C</text></g>
<g><title>Position: 74 (position.label in template: 74.G)
Alignment accuracy: 10</title><text x="32.94" y="178.65" class="text-black font" >G</text></g>
<g><title>Position: 75 (position.label in template: 75.A)
Alignment accuracy: 10</title><text x="36.46" y="185.54" class="text-black font" >A</text></g>
<g><title>Position: 76 (position.label in template: 76.U)
Alignment accuracy: 10</title><text x="33.15" y="192.44" class="text-black font" >U</text></g>
<g><title>Position: 77 (position.label in template: 77.C)
Alignment accuracy: 10</title><text x="33.15" y="200.0" class="text-black font" >C</text></g>
<g><title>Position: 78 (position.label in template: 78.C)
Alignment accuracy: 10</title><text x="33.15" y="207.56" class="text-black font" >C</text></g>
<g><title>Position: 79 (position.label in template: 79.U)
Alignment accuracy: 10</title><text x="33.15" y="215.12" class="text-black font" >U</text></g>
<g><title>Position: 80 (position.label in template: 80.C)
Alignment accuracy: 10</title><text x="33.15" y="222.68" class="text-black font" >C</text></g>
<g><title>Position: 81 (position.label in template: 81.N)
Alignment accuracy: 10</title><text x="40.19" y="226.0" class="text-green font" >C</text></g>
<g><title>Position: 82 (position.label in template: 82.U)
Alignment accuracy: 10</title><text x="40.04" y="233.35" class="text-black font" >U</text></g>
<g><title>Position: 83 (position.label in template: 83.U)
Alignment accuracy: 10</title><text x="33.15" y="236.47" class="text-black font" >U</text></g>
<g><title>Position: 84 (position.label in template: 84.G)
Alignment accuracy: 10</title><text x="32.94" y="244.03" class="text-black font" >G</text></g>
<g><title>Position: 85 (position.label in template: 85.A)
Alignment accuracy: 10</title><text x="36.46" y="250.92" class="text-black font" >A</text></g>
<g><title>Position: 86 (position.label in template: 86.C)
Alignment accuracy: 10</title><text x="33.15" y="257.82" class="text-black font" >C</text></g>
<g><title>Position: 87 (position.label in template: 87.A)
Alignment accuracy: 10</title><text x="33.36" y="265.38" class="text-black font" >A</text></g>
<g><title>Position: 88 (position.label in template: 88.G)
Alignment accuracy: 10</title><text x="32.94" y="272.94" class="text-black font" >G</text></g>
<g><title>Position: 89 (position.label in template: 89.C)
Alignment accuracy: 10</title><text x="33.15" y="280.5" class="text-black font" >C</text></g>
<g><title>Position: 90 (position.label in template: 90.C)
Alignment accuracy: 10</title><text x="40.34" y="278.16" class="text-black font" >C</text></g>
<g><title>Position: 91 (position.label in template: 91.U)
Alignment accuracy: 0</title><text x="44.78" y="284.28" class="text-black font" >U</text></g>
<g><title>Position: 92 (position.label in template: 92.U)
Alignment accuracy: 0</title><text x="40.34" y="290.39" class="text-black font" >U</text></g>
<g><title>Position: 93 (position.label in template: 93.G)
Alignment accuracy: 0</title><text x="32.94" y="288.06" class="text-black font" >G</text></g>
<g><title>Position: 94 (position.label in template: 94.G)
Alignment accuracy: 0</title><text x="32.94" y="295.62" class="text-black font" >G</text></g>
<g><title>Position: 95 (position.label in template: 95.G)
Alignment accuracy: 0</title><text x="32.94" y="303.18" class="text-black font" >G</text></g>
<g><title>Position: 96 (position.label in template: -1.)
Alignment accuracy: 0</title><text x="33.84" y="308.47" class="text-red font" >G</text></g>
<g><title>Position: 97 (position.label in template: 97.G)
Alignment accuracy: 0</title><text x="32.94" y="313.75" class="text-black font" >G</text></g>
<g><title>Position: 98 (position.label in template: 98.U)
Alignment accuracy: 0</title><text x="33.15" y="321.31" class="text-black font" >U</text></g>
<g><title>Position: 99 (position.label in template: 99.C)
Alignment accuracy: 0</title><text x="33.15" y="328.87" class="text-black font" >C</text></g>
<g><title>Position: 100 (position.label in template: 100.A)
Alignment accuracy: 0</title><text x="38.6" y="334.11" class="text-black font" >A</text></g>
<g><title>Position: 101 (position.label in template: 101.G)
Alignment accuracy: 10</title><text x="46.17" y="334.11" class="text-black font" >G</text></g>
<g><title>Position: 102 (position.label in template: -1.)
Alignment accuracy: 10</title><text x="53.73" y="334.11" class="text-red font" >G</text></g>
<g><title>Position: 103 (position.label in template: -1.)
Alignment accuracy: 10</title><text x="61.3" y="334.11" class="text-red font" >C</text></g>
<g><title>Position: 104 (position.label in template: -1.)
Alignment accuracy: 10</title><text x="68.86" y="334.11" class="text-red font" >U</text></g>
<g><title>Position: 105 (position.label in template: -1.)
Alignment accuracy: 10</title><text x="76.43" y="334.11" class="text-red font" >G</text></g>
<g><title>Position: 106 (position.label in template: -1.)
Alignment accuracy: 10</title><text x="84.0" y="334.11" class="text-red font" >G</text></g>
<g><title>Position: 107 (position.label in template: -1.)
Alignment accuracy: 10</title><text x="91.56" y="334.11" class="text-red font" >G</text></g>
<g><title>Position: 108 (position.label in template: -1.)
Alignment accuracy: 10</title><text x="99.13" y="334.11" class="text-red font" >C</text></g>
<g><title>Position: 109 (position.label in template: -1.)
Alignment accuracy: 10</title><text x="106.69" y="334.11" class="text-red font" >U</text></g>
<g><title>Position: 110 (position.label in template: -1.)
Alignment accuracy: 10</title><text x="114.26" y="334.11" class="text-red font" >C</text></g>
<g><title>Position: 111 (position.label in template: 102.3')</title><text x="121.83" y="334.11" class="text-green font" >3'</text></g>
</g>
<g class="labels">
<g class="label">
<text x="13.991542118299957" y="272.84688845209075" class="font numbering-label sequential" >10</text>
<line x1="19.064843327045182" y1="272.9173509688789" x2="15.836557024229524" y2="272.87251365911754" class="numbering-line sequential" />
</g><g class="label">
<text x="13.780874891782105" y="200.00297370395572" class="font numbering-label sequential" >20</text>
<line x1="18.8546653999651" y1="200.00297370395572" x2="15.625889797711675" y2="200.00297370395566" class="numbering-line sequential" />
</g><g class="label">
<text x="11.101675843090927" y="127.82824768410003" class="font numbering-label sequential" >30</text>
<line x1="16.174878986991175" y1="127.75104676669284" x2="12.946690749020497" y2="127.80017137031416" class="numbering-line sequential" />
</g><g class="label">
<text x="43.407026075492254" y="20.414212816635256" class="font numbering-label sequential" >50</text>
<line x1="38.3381424466444" y1="20.19112342171485" x2="41.562011169562695" y2="20.333010861901016" class="numbering-line sequential" />
</g><g class="label">
<text x="36.015706233075534" y="340.5318610417365" class="font numbering-label sequential" >100</text>
<line x1="37.91208090283139" y1="335.82578908809654" x2="36.635267438151715" y2="338.99434862012845" class="numbering-line sequential" />
</g></g>

</svg>